%TF.GenerationSoftware,KiCad,Pcbnew,7.0.9*%
%TF.CreationDate,2024-09-21T10:37:09-07:00*%
%TF.ProjectId,DIY Meshtastic 1W Node,44495920-4d65-4736-9874-617374696320,1.0*%
%TF.SameCoordinates,Original*%
%TF.FileFunction,Drillmap*%
%TF.FilePolarity,Positive*%
%FSLAX45Y45*%
G04 Gerber Fmt 4.5, Leading zero omitted, Abs format (unit mm)*
G04 Created by KiCad (PCBNEW 7.0.9) date 2024-09-21 10:37:09*
%MOMM*%
%LPD*%
G01*
G04 APERTURE LIST*
%ADD10C,0.100000*%
%ADD11C,0.200000*%
%ADD12C,0.102000*%
%ADD13C,0.110000*%
%ADD14C,0.150000*%
%ADD15C,0.152000*%
%ADD16C,0.170000*%
G04 APERTURE END LIST*
D10*
X9906000Y-3048000D02*
X14732000Y-3048000D01*
X14732000Y-19304000D01*
X9906000Y-19304000D01*
X9906000Y-3048000D01*
D11*
D10*
X10673400Y-9124000D02*
X10713400Y-9164000D01*
X10713400Y-9124000D02*
X10673400Y-9164000D01*
X10673400Y-9378000D02*
X10713400Y-9418000D01*
X10713400Y-9378000D02*
X10673400Y-9418000D01*
X11150150Y-9358450D02*
X11190150Y-9398450D01*
X11190150Y-9358450D02*
X11150150Y-9398450D01*
X11253808Y-13797600D02*
X11293808Y-13837600D01*
X11293808Y-13797600D02*
X11253808Y-13837600D01*
X11562400Y-12807000D02*
X11602400Y-12847000D01*
X11602400Y-12807000D02*
X11562400Y-12847000D01*
X11613200Y-4780600D02*
X11653200Y-4820600D01*
X11653200Y-4780600D02*
X11613200Y-4820600D01*
X11765600Y-12756200D02*
X11805600Y-12796200D01*
X11805600Y-12756200D02*
X11765600Y-12796200D01*
X12299000Y-11562400D02*
X12339000Y-11602400D01*
X12339000Y-11562400D02*
X12299000Y-11602400D01*
X12400600Y-11562400D02*
X12440600Y-11602400D01*
X12440600Y-11562400D02*
X12400600Y-11602400D01*
X12502200Y-9886000D02*
X12542200Y-9926000D01*
X12542200Y-9886000D02*
X12502200Y-9926000D01*
X12502200Y-10140000D02*
X12542200Y-10180000D01*
X12542200Y-10140000D02*
X12502200Y-10180000D01*
X12680000Y-6507800D02*
X12720000Y-6547800D01*
X12720000Y-6507800D02*
X12680000Y-6547800D01*
X12934000Y-7600000D02*
X12974000Y-7640000D01*
X12974000Y-7600000D02*
X12934000Y-7640000D01*
X12959400Y-10546400D02*
X12999400Y-10586400D01*
X12999400Y-10546400D02*
X12959400Y-10586400D01*
X13035600Y-10851200D02*
X13075600Y-10891200D01*
X13075600Y-10851200D02*
X13035600Y-10891200D01*
X13188000Y-9911400D02*
X13228000Y-9951400D01*
X13228000Y-9911400D02*
X13188000Y-9951400D01*
X13188000Y-11486200D02*
X13228000Y-11526200D01*
X13228000Y-11486200D02*
X13188000Y-11526200D01*
X13315000Y-14229400D02*
X13355000Y-14269400D01*
X13355000Y-14229400D02*
X13315000Y-14269400D01*
X13391200Y-10851200D02*
X13431200Y-10891200D01*
X13431200Y-10851200D02*
X13391200Y-10891200D01*
X13823000Y-14331000D02*
X13863000Y-14371000D01*
X13863000Y-14331000D02*
X13823000Y-14371000D01*
X14102400Y-16134400D02*
X14142400Y-16174400D01*
X14142400Y-16134400D02*
X14102400Y-16174400D01*
X14396450Y-12273600D02*
X14436450Y-12313600D01*
X14436450Y-12273600D02*
X14396450Y-12313600D01*
X10439400Y-16484600D02*
G75*
G03*
X10439400Y-16484600I-38100J0D01*
G01*
X10439400Y-18204600D02*
G75*
G03*
X10439400Y-18204600I-38100J0D01*
G01*
X14395400Y-16484600D02*
G75*
G03*
X14395400Y-16484600I-38100J0D01*
G01*
X14395400Y-18204600D02*
G75*
G03*
X14395400Y-18204600I-38100J0D01*
G01*
X11201400Y-3963200D02*
X11201400Y-4063200D01*
X11151400Y-4013200D02*
X11251400Y-4013200D01*
X11455400Y-3963200D02*
X11455400Y-4063200D01*
X11405400Y-4013200D02*
X11505400Y-4013200D01*
X11709400Y-3963200D02*
X11709400Y-4063200D01*
X11659400Y-4013200D02*
X11759400Y-4013200D01*
X11963400Y-3963200D02*
X11963400Y-4063200D01*
X11913400Y-4013200D02*
X12013400Y-4013200D01*
X13360400Y-14775992D02*
X13360400Y-14875992D01*
X13310400Y-14825992D02*
X13410400Y-14825992D01*
X13360400Y-15145696D02*
X13360400Y-15245696D01*
X13310400Y-15195696D02*
X13410400Y-15195696D01*
X13360400Y-15520200D02*
X13360400Y-15620200D01*
X13310400Y-15570200D02*
X13410400Y-15570200D01*
X13360400Y-15899504D02*
X13360400Y-15999504D01*
X13310400Y-15949504D02*
X13410400Y-15949504D01*
X13614400Y-14775992D02*
X13614400Y-14875992D01*
X13564400Y-14825992D02*
X13664400Y-14825992D01*
X13614400Y-15145696D02*
X13614400Y-15245696D01*
X13564400Y-15195696D02*
X13664400Y-15195696D01*
X13614400Y-15520200D02*
X13614400Y-15620200D01*
X13564400Y-15570200D02*
X13664400Y-15570200D01*
X13614400Y-15899504D02*
X13614400Y-15999504D01*
X13564400Y-15949504D02*
X13664400Y-15949504D01*
X13766800Y-11481600D02*
X13766800Y-11581600D01*
X13716800Y-11531600D02*
X13816800Y-11531600D01*
X13766800Y-11735600D02*
X13766800Y-11835600D01*
X13716800Y-11785600D02*
X13816800Y-11785600D01*
X13766800Y-11989600D02*
X13766800Y-12089600D01*
X13716800Y-12039600D02*
X13816800Y-12039600D01*
X13766800Y-12243600D02*
X13766800Y-12343600D01*
X13716800Y-12293600D02*
X13816800Y-12293600D01*
X13868400Y-14775992D02*
X13868400Y-14875992D01*
X13818400Y-14825992D02*
X13918400Y-14825992D01*
X13868400Y-15145696D02*
X13868400Y-15245696D01*
X13818400Y-15195696D02*
X13918400Y-15195696D01*
X13868400Y-15520200D02*
X13868400Y-15620200D01*
X13818400Y-15570200D02*
X13918400Y-15570200D01*
X13868400Y-15899504D02*
X13868400Y-15999504D01*
X13818400Y-15949504D02*
X13918400Y-15949504D01*
X14122400Y-14775992D02*
X14122400Y-14875992D01*
X14072400Y-14825992D02*
X14172400Y-14825992D01*
X14122400Y-15145696D02*
X14122400Y-15245696D01*
X14072400Y-15195696D02*
X14172400Y-15195696D01*
X14122400Y-15520200D02*
X14122400Y-15620200D01*
X14072400Y-15570200D02*
X14172400Y-15570200D01*
X14122400Y-15899504D02*
X14122400Y-15999504D01*
X14072400Y-15949504D02*
X14172400Y-15949504D01*
X14376400Y-14775992D02*
X14376400Y-14875992D01*
X14326400Y-14825992D02*
X14426400Y-14825992D01*
X14376400Y-15145696D02*
X14376400Y-15245696D01*
X14326400Y-15195696D02*
X14426400Y-15195696D01*
X14376400Y-15520200D02*
X14376400Y-15620200D01*
X14326400Y-15570200D02*
X14426400Y-15570200D01*
X14376400Y-15899504D02*
X14376400Y-15999504D01*
X14326400Y-15949504D02*
X14426400Y-15949504D01*
D12*
X10424663Y-11855663D02*
X10424663Y-11783537D01*
X10352537Y-11783537D01*
X10352537Y-11855663D01*
X10424663Y-11855663D01*
X10424663Y-12109663D02*
X10424663Y-12037537D01*
X10352537Y-12037537D01*
X10352537Y-12109663D01*
X10424663Y-12109663D01*
X10424663Y-12363663D02*
X10424663Y-12291537D01*
X10352537Y-12291537D01*
X10352537Y-12363663D01*
X10424663Y-12363663D01*
X10424663Y-12617663D02*
X10424663Y-12545537D01*
X10352537Y-12545537D01*
X10352537Y-12617663D01*
X10424663Y-12617663D01*
X10424663Y-12871663D02*
X10424663Y-12799537D01*
X10352537Y-12799537D01*
X10352537Y-12871663D01*
X10424663Y-12871663D01*
X10424663Y-13125663D02*
X10424663Y-13053537D01*
X10352537Y-13053537D01*
X10352537Y-13125663D01*
X10424663Y-13125663D01*
X10424663Y-13379663D02*
X10424663Y-13307537D01*
X10352537Y-13307537D01*
X10352537Y-13379663D01*
X10424663Y-13379663D01*
X10424663Y-13633663D02*
X10424663Y-13561537D01*
X10352537Y-13561537D01*
X10352537Y-13633663D01*
X10424663Y-13633663D01*
X10424663Y-13887663D02*
X10424663Y-13815537D01*
X10352537Y-13815537D01*
X10352537Y-13887663D01*
X10424663Y-13887663D01*
X10424663Y-14141663D02*
X10424663Y-14069537D01*
X10352537Y-14069537D01*
X10352537Y-14141663D01*
X10424663Y-14141663D01*
X10424663Y-14395663D02*
X10424663Y-14323537D01*
X10352537Y-14323537D01*
X10352537Y-14395663D01*
X10424663Y-14395663D01*
X10424663Y-14649663D02*
X10424663Y-14577537D01*
X10352537Y-14577537D01*
X10352537Y-14649663D01*
X10424663Y-14649663D01*
X10424663Y-14903663D02*
X10424663Y-14831537D01*
X10352537Y-14831537D01*
X10352537Y-14903663D01*
X10424663Y-14903663D01*
X10424663Y-15157663D02*
X10424663Y-15085537D01*
X10352537Y-15085537D01*
X10352537Y-15157663D01*
X10424663Y-15157663D01*
X10424663Y-15411663D02*
X10424663Y-15339537D01*
X10352537Y-15339537D01*
X10352537Y-15411663D01*
X10424663Y-15411663D01*
X12964663Y-11855663D02*
X12964663Y-11783537D01*
X12892537Y-11783537D01*
X12892537Y-11855663D01*
X12964663Y-11855663D01*
X12964663Y-12109663D02*
X12964663Y-12037537D01*
X12892537Y-12037537D01*
X12892537Y-12109663D01*
X12964663Y-12109663D01*
X12964663Y-12363663D02*
X12964663Y-12291537D01*
X12892537Y-12291537D01*
X12892537Y-12363663D01*
X12964663Y-12363663D01*
X12964663Y-12617663D02*
X12964663Y-12545537D01*
X12892537Y-12545537D01*
X12892537Y-12617663D01*
X12964663Y-12617663D01*
X12964663Y-12871663D02*
X12964663Y-12799537D01*
X12892537Y-12799537D01*
X12892537Y-12871663D01*
X12964663Y-12871663D01*
X12964663Y-13125663D02*
X12964663Y-13053537D01*
X12892537Y-13053537D01*
X12892537Y-13125663D01*
X12964663Y-13125663D01*
X12964663Y-13379663D02*
X12964663Y-13307537D01*
X12892537Y-13307537D01*
X12892537Y-13379663D01*
X12964663Y-13379663D01*
X12964663Y-13633663D02*
X12964663Y-13561537D01*
X12892537Y-13561537D01*
X12892537Y-13633663D01*
X12964663Y-13633663D01*
X12964663Y-13887663D02*
X12964663Y-13815537D01*
X12892537Y-13815537D01*
X12892537Y-13887663D01*
X12964663Y-13887663D01*
X12964663Y-14141663D02*
X12964663Y-14069537D01*
X12892537Y-14069537D01*
X12892537Y-14141663D01*
X12964663Y-14141663D01*
X12964663Y-14395663D02*
X12964663Y-14323537D01*
X12892537Y-14323537D01*
X12892537Y-14395663D01*
X12964663Y-14395663D01*
X12964663Y-14649663D02*
X12964663Y-14577537D01*
X12892537Y-14577537D01*
X12892537Y-14649663D01*
X12964663Y-14649663D01*
X12964663Y-14903663D02*
X12964663Y-14831537D01*
X12892537Y-14831537D01*
X12892537Y-14903663D01*
X12964663Y-14903663D01*
X12964663Y-15157663D02*
X12964663Y-15085537D01*
X12892537Y-15085537D01*
X12892537Y-15157663D01*
X12964663Y-15157663D01*
X12964663Y-15411663D02*
X12964663Y-15339537D01*
X12892537Y-15339537D01*
X12892537Y-15411663D01*
X12964663Y-15411663D01*
D13*
X13574000Y-9765000D02*
X13629000Y-9710000D01*
X13574000Y-9655000D01*
X13519000Y-9710000D01*
X13574000Y-9765000D01*
X13574000Y-10215000D02*
X13629000Y-10160000D01*
X13574000Y-10105000D01*
X13519000Y-10160000D01*
X13574000Y-10215000D01*
X14224000Y-9765000D02*
X14279000Y-9710000D01*
X14224000Y-9655000D01*
X14169000Y-9710000D01*
X14224000Y-9765000D01*
X14224000Y-10215000D02*
X14279000Y-10160000D01*
X14224000Y-10105000D01*
X14169000Y-10160000D01*
X14224000Y-10215000D01*
D14*
X13793400Y-5513000D02*
X13943400Y-5663000D01*
X13943400Y-5513000D02*
X13793400Y-5663000D01*
X13943400Y-5588000D02*
G75*
G03*
X13943400Y-5588000I-75000J0D01*
G01*
D15*
X12116000Y-18821600D02*
X12268000Y-18973600D01*
X12268000Y-18821600D02*
X12116000Y-18973600D01*
X12192000Y-18821600D02*
X12192000Y-18973600D01*
X12116000Y-18897600D02*
X12268000Y-18897600D01*
X12624000Y-18821600D02*
X12776000Y-18973600D01*
X12776000Y-18821600D02*
X12624000Y-18973600D01*
X12700000Y-18821600D02*
X12700000Y-18973600D01*
X12624000Y-18897600D02*
X12776000Y-18897600D01*
D16*
X13529400Y-5249000D02*
X13699400Y-5419000D01*
X13699400Y-5249000D02*
X13529400Y-5419000D01*
X13674505Y-5394105D02*
X13674505Y-5273895D01*
X13554295Y-5273895D01*
X13554295Y-5394105D01*
X13674505Y-5394105D01*
X13529400Y-5757000D02*
X13699400Y-5927000D01*
X13699400Y-5757000D02*
X13529400Y-5927000D01*
X13674505Y-5902105D02*
X13674505Y-5781895D01*
X13554295Y-5781895D01*
X13554295Y-5902105D01*
X13674505Y-5902105D01*
X14037400Y-5249000D02*
X14207400Y-5419000D01*
X14207400Y-5249000D02*
X14037400Y-5419000D01*
X14182505Y-5394105D02*
X14182505Y-5273895D01*
X14062295Y-5273895D01*
X14062295Y-5394105D01*
X14182505Y-5394105D01*
X14037400Y-5757000D02*
X14207400Y-5927000D01*
X14207400Y-5757000D02*
X14037400Y-5927000D01*
X14182505Y-5902105D02*
X14182505Y-5781895D01*
X14062295Y-5781895D01*
X14062295Y-5902105D01*
X14182505Y-5902105D01*
D11*
X10161777Y-19620484D02*
X10161777Y-19420484D01*
X10161777Y-19420484D02*
X10209396Y-19420484D01*
X10209396Y-19420484D02*
X10237967Y-19430008D01*
X10237967Y-19430008D02*
X10257015Y-19449055D01*
X10257015Y-19449055D02*
X10266539Y-19468103D01*
X10266539Y-19468103D02*
X10276063Y-19506198D01*
X10276063Y-19506198D02*
X10276063Y-19534770D01*
X10276063Y-19534770D02*
X10266539Y-19572865D01*
X10266539Y-19572865D02*
X10257015Y-19591912D01*
X10257015Y-19591912D02*
X10237967Y-19610960D01*
X10237967Y-19610960D02*
X10209396Y-19620484D01*
X10209396Y-19620484D02*
X10161777Y-19620484D01*
X10361777Y-19620484D02*
X10361777Y-19487150D01*
X10361777Y-19525246D02*
X10371301Y-19506198D01*
X10371301Y-19506198D02*
X10380824Y-19496674D01*
X10380824Y-19496674D02*
X10399872Y-19487150D01*
X10399872Y-19487150D02*
X10418920Y-19487150D01*
X10485586Y-19620484D02*
X10485586Y-19487150D01*
X10485586Y-19420484D02*
X10476063Y-19430008D01*
X10476063Y-19430008D02*
X10485586Y-19439531D01*
X10485586Y-19439531D02*
X10495110Y-19430008D01*
X10495110Y-19430008D02*
X10485586Y-19420484D01*
X10485586Y-19420484D02*
X10485586Y-19439531D01*
X10609396Y-19620484D02*
X10590348Y-19610960D01*
X10590348Y-19610960D02*
X10580824Y-19591912D01*
X10580824Y-19591912D02*
X10580824Y-19420484D01*
X10714158Y-19620484D02*
X10695110Y-19610960D01*
X10695110Y-19610960D02*
X10685586Y-19591912D01*
X10685586Y-19591912D02*
X10685586Y-19420484D01*
X10942729Y-19620484D02*
X10942729Y-19420484D01*
X10942729Y-19420484D02*
X11009396Y-19563341D01*
X11009396Y-19563341D02*
X11076063Y-19420484D01*
X11076063Y-19420484D02*
X11076063Y-19620484D01*
X11257015Y-19620484D02*
X11257015Y-19515722D01*
X11257015Y-19515722D02*
X11247491Y-19496674D01*
X11247491Y-19496674D02*
X11228443Y-19487150D01*
X11228443Y-19487150D02*
X11190348Y-19487150D01*
X11190348Y-19487150D02*
X11171301Y-19496674D01*
X11257015Y-19610960D02*
X11237967Y-19620484D01*
X11237967Y-19620484D02*
X11190348Y-19620484D01*
X11190348Y-19620484D02*
X11171301Y-19610960D01*
X11171301Y-19610960D02*
X11161777Y-19591912D01*
X11161777Y-19591912D02*
X11161777Y-19572865D01*
X11161777Y-19572865D02*
X11171301Y-19553817D01*
X11171301Y-19553817D02*
X11190348Y-19544293D01*
X11190348Y-19544293D02*
X11237967Y-19544293D01*
X11237967Y-19544293D02*
X11257015Y-19534770D01*
X11352253Y-19487150D02*
X11352253Y-19687150D01*
X11352253Y-19496674D02*
X11371301Y-19487150D01*
X11371301Y-19487150D02*
X11409396Y-19487150D01*
X11409396Y-19487150D02*
X11428443Y-19496674D01*
X11428443Y-19496674D02*
X11437967Y-19506198D01*
X11437967Y-19506198D02*
X11447491Y-19525246D01*
X11447491Y-19525246D02*
X11447491Y-19582389D01*
X11447491Y-19582389D02*
X11437967Y-19601436D01*
X11437967Y-19601436D02*
X11428443Y-19610960D01*
X11428443Y-19610960D02*
X11409396Y-19620484D01*
X11409396Y-19620484D02*
X11371301Y-19620484D01*
X11371301Y-19620484D02*
X11352253Y-19610960D01*
X11533205Y-19601436D02*
X11542729Y-19610960D01*
X11542729Y-19610960D02*
X11533205Y-19620484D01*
X11533205Y-19620484D02*
X11523682Y-19610960D01*
X11523682Y-19610960D02*
X11533205Y-19601436D01*
X11533205Y-19601436D02*
X11533205Y-19620484D01*
X11533205Y-19496674D02*
X11542729Y-19506198D01*
X11542729Y-19506198D02*
X11533205Y-19515722D01*
X11533205Y-19515722D02*
X11523682Y-19506198D01*
X11523682Y-19506198D02*
X11533205Y-19496674D01*
X11533205Y-19496674D02*
X11533205Y-19515722D01*
D10*
X9861000Y-19929000D02*
X9901000Y-19969000D01*
X9901000Y-19929000D02*
X9861000Y-19969000D01*
D11*
X10199872Y-19840484D02*
X10218920Y-19840484D01*
X10218920Y-19840484D02*
X10237967Y-19850008D01*
X10237967Y-19850008D02*
X10247491Y-19859531D01*
X10247491Y-19859531D02*
X10257015Y-19878579D01*
X10257015Y-19878579D02*
X10266539Y-19916674D01*
X10266539Y-19916674D02*
X10266539Y-19964293D01*
X10266539Y-19964293D02*
X10257015Y-20002389D01*
X10257015Y-20002389D02*
X10247491Y-20021436D01*
X10247491Y-20021436D02*
X10237967Y-20030960D01*
X10237967Y-20030960D02*
X10218920Y-20040484D01*
X10218920Y-20040484D02*
X10199872Y-20040484D01*
X10199872Y-20040484D02*
X10180824Y-20030960D01*
X10180824Y-20030960D02*
X10171301Y-20021436D01*
X10171301Y-20021436D02*
X10161777Y-20002389D01*
X10161777Y-20002389D02*
X10152253Y-19964293D01*
X10152253Y-19964293D02*
X10152253Y-19916674D01*
X10152253Y-19916674D02*
X10161777Y-19878579D01*
X10161777Y-19878579D02*
X10171301Y-19859531D01*
X10171301Y-19859531D02*
X10180824Y-19850008D01*
X10180824Y-19850008D02*
X10199872Y-19840484D01*
X10352253Y-20021436D02*
X10361777Y-20030960D01*
X10361777Y-20030960D02*
X10352253Y-20040484D01*
X10352253Y-20040484D02*
X10342729Y-20030960D01*
X10342729Y-20030960D02*
X10352253Y-20021436D01*
X10352253Y-20021436D02*
X10352253Y-20040484D01*
X10533205Y-19907150D02*
X10533205Y-20040484D01*
X10485586Y-19830960D02*
X10437967Y-19973817D01*
X10437967Y-19973817D02*
X10561777Y-19973817D01*
X10676063Y-19840484D02*
X10695110Y-19840484D01*
X10695110Y-19840484D02*
X10714158Y-19850008D01*
X10714158Y-19850008D02*
X10723682Y-19859531D01*
X10723682Y-19859531D02*
X10733205Y-19878579D01*
X10733205Y-19878579D02*
X10742729Y-19916674D01*
X10742729Y-19916674D02*
X10742729Y-19964293D01*
X10742729Y-19964293D02*
X10733205Y-20002389D01*
X10733205Y-20002389D02*
X10723682Y-20021436D01*
X10723682Y-20021436D02*
X10714158Y-20030960D01*
X10714158Y-20030960D02*
X10695110Y-20040484D01*
X10695110Y-20040484D02*
X10676063Y-20040484D01*
X10676063Y-20040484D02*
X10657015Y-20030960D01*
X10657015Y-20030960D02*
X10647491Y-20021436D01*
X10647491Y-20021436D02*
X10637967Y-20002389D01*
X10637967Y-20002389D02*
X10628444Y-19964293D01*
X10628444Y-19964293D02*
X10628444Y-19916674D01*
X10628444Y-19916674D02*
X10637967Y-19878579D01*
X10637967Y-19878579D02*
X10647491Y-19859531D01*
X10647491Y-19859531D02*
X10657015Y-19850008D01*
X10657015Y-19850008D02*
X10676063Y-19840484D01*
X10866539Y-19840484D02*
X10885586Y-19840484D01*
X10885586Y-19840484D02*
X10904634Y-19850008D01*
X10904634Y-19850008D02*
X10914158Y-19859531D01*
X10914158Y-19859531D02*
X10923682Y-19878579D01*
X10923682Y-19878579D02*
X10933205Y-19916674D01*
X10933205Y-19916674D02*
X10933205Y-19964293D01*
X10933205Y-19964293D02*
X10923682Y-20002389D01*
X10923682Y-20002389D02*
X10914158Y-20021436D01*
X10914158Y-20021436D02*
X10904634Y-20030960D01*
X10904634Y-20030960D02*
X10885586Y-20040484D01*
X10885586Y-20040484D02*
X10866539Y-20040484D01*
X10866539Y-20040484D02*
X10847491Y-20030960D01*
X10847491Y-20030960D02*
X10837967Y-20021436D01*
X10837967Y-20021436D02*
X10828444Y-20002389D01*
X10828444Y-20002389D02*
X10818920Y-19964293D01*
X10818920Y-19964293D02*
X10818920Y-19916674D01*
X10818920Y-19916674D02*
X10828444Y-19878579D01*
X10828444Y-19878579D02*
X10837967Y-19859531D01*
X10837967Y-19859531D02*
X10847491Y-19850008D01*
X10847491Y-19850008D02*
X10866539Y-19840484D01*
X11018920Y-20040484D02*
X11018920Y-19907150D01*
X11018920Y-19926198D02*
X11028444Y-19916674D01*
X11028444Y-19916674D02*
X11047491Y-19907150D01*
X11047491Y-19907150D02*
X11076063Y-19907150D01*
X11076063Y-19907150D02*
X11095110Y-19916674D01*
X11095110Y-19916674D02*
X11104634Y-19935722D01*
X11104634Y-19935722D02*
X11104634Y-20040484D01*
X11104634Y-19935722D02*
X11114158Y-19916674D01*
X11114158Y-19916674D02*
X11133205Y-19907150D01*
X11133205Y-19907150D02*
X11161777Y-19907150D01*
X11161777Y-19907150D02*
X11180825Y-19916674D01*
X11180825Y-19916674D02*
X11190348Y-19935722D01*
X11190348Y-19935722D02*
X11190348Y-20040484D01*
X11285586Y-20040484D02*
X11285586Y-19907150D01*
X11285586Y-19926198D02*
X11295110Y-19916674D01*
X11295110Y-19916674D02*
X11314158Y-19907150D01*
X11314158Y-19907150D02*
X11342729Y-19907150D01*
X11342729Y-19907150D02*
X11361777Y-19916674D01*
X11361777Y-19916674D02*
X11371301Y-19935722D01*
X11371301Y-19935722D02*
X11371301Y-20040484D01*
X11371301Y-19935722D02*
X11380824Y-19916674D01*
X11380824Y-19916674D02*
X11399872Y-19907150D01*
X11399872Y-19907150D02*
X11428443Y-19907150D01*
X11428443Y-19907150D02*
X11447491Y-19916674D01*
X11447491Y-19916674D02*
X11457015Y-19935722D01*
X11457015Y-19935722D02*
X11457015Y-20040484D01*
X11847491Y-19830960D02*
X11676063Y-20088103D01*
X12104634Y-19840484D02*
X12123682Y-19840484D01*
X12123682Y-19840484D02*
X12142729Y-19850008D01*
X12142729Y-19850008D02*
X12152253Y-19859531D01*
X12152253Y-19859531D02*
X12161777Y-19878579D01*
X12161777Y-19878579D02*
X12171301Y-19916674D01*
X12171301Y-19916674D02*
X12171301Y-19964293D01*
X12171301Y-19964293D02*
X12161777Y-20002389D01*
X12161777Y-20002389D02*
X12152253Y-20021436D01*
X12152253Y-20021436D02*
X12142729Y-20030960D01*
X12142729Y-20030960D02*
X12123682Y-20040484D01*
X12123682Y-20040484D02*
X12104634Y-20040484D01*
X12104634Y-20040484D02*
X12085586Y-20030960D01*
X12085586Y-20030960D02*
X12076063Y-20021436D01*
X12076063Y-20021436D02*
X12066539Y-20002389D01*
X12066539Y-20002389D02*
X12057015Y-19964293D01*
X12057015Y-19964293D02*
X12057015Y-19916674D01*
X12057015Y-19916674D02*
X12066539Y-19878579D01*
X12066539Y-19878579D02*
X12076063Y-19859531D01*
X12076063Y-19859531D02*
X12085586Y-19850008D01*
X12085586Y-19850008D02*
X12104634Y-19840484D01*
X12257015Y-20021436D02*
X12266539Y-20030960D01*
X12266539Y-20030960D02*
X12257015Y-20040484D01*
X12257015Y-20040484D02*
X12247491Y-20030960D01*
X12247491Y-20030960D02*
X12257015Y-20021436D01*
X12257015Y-20021436D02*
X12257015Y-20040484D01*
X12390348Y-19840484D02*
X12409396Y-19840484D01*
X12409396Y-19840484D02*
X12428444Y-19850008D01*
X12428444Y-19850008D02*
X12437967Y-19859531D01*
X12437967Y-19859531D02*
X12447491Y-19878579D01*
X12447491Y-19878579D02*
X12457015Y-19916674D01*
X12457015Y-19916674D02*
X12457015Y-19964293D01*
X12457015Y-19964293D02*
X12447491Y-20002389D01*
X12447491Y-20002389D02*
X12437967Y-20021436D01*
X12437967Y-20021436D02*
X12428444Y-20030960D01*
X12428444Y-20030960D02*
X12409396Y-20040484D01*
X12409396Y-20040484D02*
X12390348Y-20040484D01*
X12390348Y-20040484D02*
X12371301Y-20030960D01*
X12371301Y-20030960D02*
X12361777Y-20021436D01*
X12361777Y-20021436D02*
X12352253Y-20002389D01*
X12352253Y-20002389D02*
X12342729Y-19964293D01*
X12342729Y-19964293D02*
X12342729Y-19916674D01*
X12342729Y-19916674D02*
X12352253Y-19878579D01*
X12352253Y-19878579D02*
X12361777Y-19859531D01*
X12361777Y-19859531D02*
X12371301Y-19850008D01*
X12371301Y-19850008D02*
X12390348Y-19840484D01*
X12647491Y-20040484D02*
X12533206Y-20040484D01*
X12590348Y-20040484D02*
X12590348Y-19840484D01*
X12590348Y-19840484D02*
X12571301Y-19869055D01*
X12571301Y-19869055D02*
X12552253Y-19888103D01*
X12552253Y-19888103D02*
X12533206Y-19897627D01*
X12828444Y-19840484D02*
X12733206Y-19840484D01*
X12733206Y-19840484D02*
X12723682Y-19935722D01*
X12723682Y-19935722D02*
X12733206Y-19926198D01*
X12733206Y-19926198D02*
X12752253Y-19916674D01*
X12752253Y-19916674D02*
X12799872Y-19916674D01*
X12799872Y-19916674D02*
X12818920Y-19926198D01*
X12818920Y-19926198D02*
X12828444Y-19935722D01*
X12828444Y-19935722D02*
X12837967Y-19954770D01*
X12837967Y-19954770D02*
X12837967Y-20002389D01*
X12837967Y-20002389D02*
X12828444Y-20021436D01*
X12828444Y-20021436D02*
X12818920Y-20030960D01*
X12818920Y-20030960D02*
X12799872Y-20040484D01*
X12799872Y-20040484D02*
X12752253Y-20040484D01*
X12752253Y-20040484D02*
X12733206Y-20030960D01*
X12733206Y-20030960D02*
X12723682Y-20021436D01*
X12904634Y-19840484D02*
X13037967Y-19840484D01*
X13037967Y-19840484D02*
X12952253Y-20040484D01*
X13104634Y-19840484D02*
X13104634Y-19878579D01*
X13180825Y-19840484D02*
X13180825Y-19878579D01*
X13476063Y-20116674D02*
X13466539Y-20107150D01*
X13466539Y-20107150D02*
X13447491Y-20078579D01*
X13447491Y-20078579D02*
X13437968Y-20059531D01*
X13437968Y-20059531D02*
X13428444Y-20030960D01*
X13428444Y-20030960D02*
X13418920Y-19983341D01*
X13418920Y-19983341D02*
X13418920Y-19945246D01*
X13418920Y-19945246D02*
X13428444Y-19897627D01*
X13428444Y-19897627D02*
X13437968Y-19869055D01*
X13437968Y-19869055D02*
X13447491Y-19850008D01*
X13447491Y-19850008D02*
X13466539Y-19821436D01*
X13466539Y-19821436D02*
X13476063Y-19811912D01*
X13542729Y-19859531D02*
X13552253Y-19850008D01*
X13552253Y-19850008D02*
X13571301Y-19840484D01*
X13571301Y-19840484D02*
X13618920Y-19840484D01*
X13618920Y-19840484D02*
X13637968Y-19850008D01*
X13637968Y-19850008D02*
X13647491Y-19859531D01*
X13647491Y-19859531D02*
X13657015Y-19878579D01*
X13657015Y-19878579D02*
X13657015Y-19897627D01*
X13657015Y-19897627D02*
X13647491Y-19926198D01*
X13647491Y-19926198D02*
X13533206Y-20040484D01*
X13533206Y-20040484D02*
X13657015Y-20040484D01*
X13733206Y-19859531D02*
X13742729Y-19850008D01*
X13742729Y-19850008D02*
X13761777Y-19840484D01*
X13761777Y-19840484D02*
X13809396Y-19840484D01*
X13809396Y-19840484D02*
X13828444Y-19850008D01*
X13828444Y-19850008D02*
X13837968Y-19859531D01*
X13837968Y-19859531D02*
X13847491Y-19878579D01*
X13847491Y-19878579D02*
X13847491Y-19897627D01*
X13847491Y-19897627D02*
X13837968Y-19926198D01*
X13837968Y-19926198D02*
X13723682Y-20040484D01*
X13723682Y-20040484D02*
X13847491Y-20040484D01*
X14085587Y-20040484D02*
X14085587Y-19840484D01*
X14171301Y-20040484D02*
X14171301Y-19935722D01*
X14171301Y-19935722D02*
X14161777Y-19916674D01*
X14161777Y-19916674D02*
X14142730Y-19907150D01*
X14142730Y-19907150D02*
X14114158Y-19907150D01*
X14114158Y-19907150D02*
X14095110Y-19916674D01*
X14095110Y-19916674D02*
X14085587Y-19926198D01*
X14295110Y-20040484D02*
X14276063Y-20030960D01*
X14276063Y-20030960D02*
X14266539Y-20021436D01*
X14266539Y-20021436D02*
X14257015Y-20002389D01*
X14257015Y-20002389D02*
X14257015Y-19945246D01*
X14257015Y-19945246D02*
X14266539Y-19926198D01*
X14266539Y-19926198D02*
X14276063Y-19916674D01*
X14276063Y-19916674D02*
X14295110Y-19907150D01*
X14295110Y-19907150D02*
X14323682Y-19907150D01*
X14323682Y-19907150D02*
X14342730Y-19916674D01*
X14342730Y-19916674D02*
X14352253Y-19926198D01*
X14352253Y-19926198D02*
X14361777Y-19945246D01*
X14361777Y-19945246D02*
X14361777Y-20002389D01*
X14361777Y-20002389D02*
X14352253Y-20021436D01*
X14352253Y-20021436D02*
X14342730Y-20030960D01*
X14342730Y-20030960D02*
X14323682Y-20040484D01*
X14323682Y-20040484D02*
X14295110Y-20040484D01*
X14476063Y-20040484D02*
X14457015Y-20030960D01*
X14457015Y-20030960D02*
X14447491Y-20011912D01*
X14447491Y-20011912D02*
X14447491Y-19840484D01*
X14628444Y-20030960D02*
X14609396Y-20040484D01*
X14609396Y-20040484D02*
X14571301Y-20040484D01*
X14571301Y-20040484D02*
X14552253Y-20030960D01*
X14552253Y-20030960D02*
X14542730Y-20011912D01*
X14542730Y-20011912D02*
X14542730Y-19935722D01*
X14542730Y-19935722D02*
X14552253Y-19916674D01*
X14552253Y-19916674D02*
X14571301Y-19907150D01*
X14571301Y-19907150D02*
X14609396Y-19907150D01*
X14609396Y-19907150D02*
X14628444Y-19916674D01*
X14628444Y-19916674D02*
X14637968Y-19935722D01*
X14637968Y-19935722D02*
X14637968Y-19954770D01*
X14637968Y-19954770D02*
X14542730Y-19973817D01*
X14714158Y-20030960D02*
X14733206Y-20040484D01*
X14733206Y-20040484D02*
X14771301Y-20040484D01*
X14771301Y-20040484D02*
X14790349Y-20030960D01*
X14790349Y-20030960D02*
X14799872Y-20011912D01*
X14799872Y-20011912D02*
X14799872Y-20002389D01*
X14799872Y-20002389D02*
X14790349Y-19983341D01*
X14790349Y-19983341D02*
X14771301Y-19973817D01*
X14771301Y-19973817D02*
X14742730Y-19973817D01*
X14742730Y-19973817D02*
X14723682Y-19964293D01*
X14723682Y-19964293D02*
X14714158Y-19945246D01*
X14714158Y-19945246D02*
X14714158Y-19935722D01*
X14714158Y-19935722D02*
X14723682Y-19916674D01*
X14723682Y-19916674D02*
X14742730Y-19907150D01*
X14742730Y-19907150D02*
X14771301Y-19907150D01*
X14771301Y-19907150D02*
X14790349Y-19916674D01*
X14866539Y-20116674D02*
X14876063Y-20107150D01*
X14876063Y-20107150D02*
X14895111Y-20078579D01*
X14895111Y-20078579D02*
X14904634Y-20059531D01*
X14904634Y-20059531D02*
X14914158Y-20030960D01*
X14914158Y-20030960D02*
X14923682Y-19983341D01*
X14923682Y-19983341D02*
X14923682Y-19945246D01*
X14923682Y-19945246D02*
X14914158Y-19897627D01*
X14914158Y-19897627D02*
X14904634Y-19869055D01*
X14904634Y-19869055D02*
X14895111Y-19850008D01*
X14895111Y-19850008D02*
X14876063Y-19821436D01*
X14876063Y-19821436D02*
X14866539Y-19811912D01*
D10*
X9901000Y-20213000D02*
G75*
G03*
X9901000Y-20213000I-38100J0D01*
G01*
D11*
X10199872Y-20104484D02*
X10218920Y-20104484D01*
X10218920Y-20104484D02*
X10237967Y-20114008D01*
X10237967Y-20114008D02*
X10247491Y-20123531D01*
X10247491Y-20123531D02*
X10257015Y-20142579D01*
X10257015Y-20142579D02*
X10266539Y-20180674D01*
X10266539Y-20180674D02*
X10266539Y-20228293D01*
X10266539Y-20228293D02*
X10257015Y-20266389D01*
X10257015Y-20266389D02*
X10247491Y-20285436D01*
X10247491Y-20285436D02*
X10237967Y-20294960D01*
X10237967Y-20294960D02*
X10218920Y-20304484D01*
X10218920Y-20304484D02*
X10199872Y-20304484D01*
X10199872Y-20304484D02*
X10180824Y-20294960D01*
X10180824Y-20294960D02*
X10171301Y-20285436D01*
X10171301Y-20285436D02*
X10161777Y-20266389D01*
X10161777Y-20266389D02*
X10152253Y-20228293D01*
X10152253Y-20228293D02*
X10152253Y-20180674D01*
X10152253Y-20180674D02*
X10161777Y-20142579D01*
X10161777Y-20142579D02*
X10171301Y-20123531D01*
X10171301Y-20123531D02*
X10180824Y-20114008D01*
X10180824Y-20114008D02*
X10199872Y-20104484D01*
X10352253Y-20285436D02*
X10361777Y-20294960D01*
X10361777Y-20294960D02*
X10352253Y-20304484D01*
X10352253Y-20304484D02*
X10342729Y-20294960D01*
X10342729Y-20294960D02*
X10352253Y-20285436D01*
X10352253Y-20285436D02*
X10352253Y-20304484D01*
X10428444Y-20104484D02*
X10561777Y-20104484D01*
X10561777Y-20104484D02*
X10476063Y-20304484D01*
X10723682Y-20104484D02*
X10685586Y-20104484D01*
X10685586Y-20104484D02*
X10666539Y-20114008D01*
X10666539Y-20114008D02*
X10657015Y-20123531D01*
X10657015Y-20123531D02*
X10637967Y-20152103D01*
X10637967Y-20152103D02*
X10628444Y-20190198D01*
X10628444Y-20190198D02*
X10628444Y-20266389D01*
X10628444Y-20266389D02*
X10637967Y-20285436D01*
X10637967Y-20285436D02*
X10647491Y-20294960D01*
X10647491Y-20294960D02*
X10666539Y-20304484D01*
X10666539Y-20304484D02*
X10704634Y-20304484D01*
X10704634Y-20304484D02*
X10723682Y-20294960D01*
X10723682Y-20294960D02*
X10733205Y-20285436D01*
X10733205Y-20285436D02*
X10742729Y-20266389D01*
X10742729Y-20266389D02*
X10742729Y-20218770D01*
X10742729Y-20218770D02*
X10733205Y-20199722D01*
X10733205Y-20199722D02*
X10723682Y-20190198D01*
X10723682Y-20190198D02*
X10704634Y-20180674D01*
X10704634Y-20180674D02*
X10666539Y-20180674D01*
X10666539Y-20180674D02*
X10647491Y-20190198D01*
X10647491Y-20190198D02*
X10637967Y-20199722D01*
X10637967Y-20199722D02*
X10628444Y-20218770D01*
X10818920Y-20123531D02*
X10828444Y-20114008D01*
X10828444Y-20114008D02*
X10847491Y-20104484D01*
X10847491Y-20104484D02*
X10895110Y-20104484D01*
X10895110Y-20104484D02*
X10914158Y-20114008D01*
X10914158Y-20114008D02*
X10923682Y-20123531D01*
X10923682Y-20123531D02*
X10933205Y-20142579D01*
X10933205Y-20142579D02*
X10933205Y-20161627D01*
X10933205Y-20161627D02*
X10923682Y-20190198D01*
X10923682Y-20190198D02*
X10809396Y-20304484D01*
X10809396Y-20304484D02*
X10933205Y-20304484D01*
X11018920Y-20304484D02*
X11018920Y-20171150D01*
X11018920Y-20190198D02*
X11028444Y-20180674D01*
X11028444Y-20180674D02*
X11047491Y-20171150D01*
X11047491Y-20171150D02*
X11076063Y-20171150D01*
X11076063Y-20171150D02*
X11095110Y-20180674D01*
X11095110Y-20180674D02*
X11104634Y-20199722D01*
X11104634Y-20199722D02*
X11104634Y-20304484D01*
X11104634Y-20199722D02*
X11114158Y-20180674D01*
X11114158Y-20180674D02*
X11133205Y-20171150D01*
X11133205Y-20171150D02*
X11161777Y-20171150D01*
X11161777Y-20171150D02*
X11180825Y-20180674D01*
X11180825Y-20180674D02*
X11190348Y-20199722D01*
X11190348Y-20199722D02*
X11190348Y-20304484D01*
X11285586Y-20304484D02*
X11285586Y-20171150D01*
X11285586Y-20190198D02*
X11295110Y-20180674D01*
X11295110Y-20180674D02*
X11314158Y-20171150D01*
X11314158Y-20171150D02*
X11342729Y-20171150D01*
X11342729Y-20171150D02*
X11361777Y-20180674D01*
X11361777Y-20180674D02*
X11371301Y-20199722D01*
X11371301Y-20199722D02*
X11371301Y-20304484D01*
X11371301Y-20199722D02*
X11380824Y-20180674D01*
X11380824Y-20180674D02*
X11399872Y-20171150D01*
X11399872Y-20171150D02*
X11428443Y-20171150D01*
X11428443Y-20171150D02*
X11447491Y-20180674D01*
X11447491Y-20180674D02*
X11457015Y-20199722D01*
X11457015Y-20199722D02*
X11457015Y-20304484D01*
X11847491Y-20094960D02*
X11676063Y-20352103D01*
X12104634Y-20104484D02*
X12123682Y-20104484D01*
X12123682Y-20104484D02*
X12142729Y-20114008D01*
X12142729Y-20114008D02*
X12152253Y-20123531D01*
X12152253Y-20123531D02*
X12161777Y-20142579D01*
X12161777Y-20142579D02*
X12171301Y-20180674D01*
X12171301Y-20180674D02*
X12171301Y-20228293D01*
X12171301Y-20228293D02*
X12161777Y-20266389D01*
X12161777Y-20266389D02*
X12152253Y-20285436D01*
X12152253Y-20285436D02*
X12142729Y-20294960D01*
X12142729Y-20294960D02*
X12123682Y-20304484D01*
X12123682Y-20304484D02*
X12104634Y-20304484D01*
X12104634Y-20304484D02*
X12085586Y-20294960D01*
X12085586Y-20294960D02*
X12076063Y-20285436D01*
X12076063Y-20285436D02*
X12066539Y-20266389D01*
X12066539Y-20266389D02*
X12057015Y-20228293D01*
X12057015Y-20228293D02*
X12057015Y-20180674D01*
X12057015Y-20180674D02*
X12066539Y-20142579D01*
X12066539Y-20142579D02*
X12076063Y-20123531D01*
X12076063Y-20123531D02*
X12085586Y-20114008D01*
X12085586Y-20114008D02*
X12104634Y-20104484D01*
X12257015Y-20285436D02*
X12266539Y-20294960D01*
X12266539Y-20294960D02*
X12257015Y-20304484D01*
X12257015Y-20304484D02*
X12247491Y-20294960D01*
X12247491Y-20294960D02*
X12257015Y-20285436D01*
X12257015Y-20285436D02*
X12257015Y-20304484D01*
X12390348Y-20104484D02*
X12409396Y-20104484D01*
X12409396Y-20104484D02*
X12428444Y-20114008D01*
X12428444Y-20114008D02*
X12437967Y-20123531D01*
X12437967Y-20123531D02*
X12447491Y-20142579D01*
X12447491Y-20142579D02*
X12457015Y-20180674D01*
X12457015Y-20180674D02*
X12457015Y-20228293D01*
X12457015Y-20228293D02*
X12447491Y-20266389D01*
X12447491Y-20266389D02*
X12437967Y-20285436D01*
X12437967Y-20285436D02*
X12428444Y-20294960D01*
X12428444Y-20294960D02*
X12409396Y-20304484D01*
X12409396Y-20304484D02*
X12390348Y-20304484D01*
X12390348Y-20304484D02*
X12371301Y-20294960D01*
X12371301Y-20294960D02*
X12361777Y-20285436D01*
X12361777Y-20285436D02*
X12352253Y-20266389D01*
X12352253Y-20266389D02*
X12342729Y-20228293D01*
X12342729Y-20228293D02*
X12342729Y-20180674D01*
X12342729Y-20180674D02*
X12352253Y-20142579D01*
X12352253Y-20142579D02*
X12361777Y-20123531D01*
X12361777Y-20123531D02*
X12371301Y-20114008D01*
X12371301Y-20114008D02*
X12390348Y-20104484D01*
X12523682Y-20104484D02*
X12647491Y-20104484D01*
X12647491Y-20104484D02*
X12580825Y-20180674D01*
X12580825Y-20180674D02*
X12609396Y-20180674D01*
X12609396Y-20180674D02*
X12628444Y-20190198D01*
X12628444Y-20190198D02*
X12637967Y-20199722D01*
X12637967Y-20199722D02*
X12647491Y-20218770D01*
X12647491Y-20218770D02*
X12647491Y-20266389D01*
X12647491Y-20266389D02*
X12637967Y-20285436D01*
X12637967Y-20285436D02*
X12628444Y-20294960D01*
X12628444Y-20294960D02*
X12609396Y-20304484D01*
X12609396Y-20304484D02*
X12552253Y-20304484D01*
X12552253Y-20304484D02*
X12533206Y-20294960D01*
X12533206Y-20294960D02*
X12523682Y-20285436D01*
X12771301Y-20104484D02*
X12790348Y-20104484D01*
X12790348Y-20104484D02*
X12809396Y-20114008D01*
X12809396Y-20114008D02*
X12818920Y-20123531D01*
X12818920Y-20123531D02*
X12828444Y-20142579D01*
X12828444Y-20142579D02*
X12837967Y-20180674D01*
X12837967Y-20180674D02*
X12837967Y-20228293D01*
X12837967Y-20228293D02*
X12828444Y-20266389D01*
X12828444Y-20266389D02*
X12818920Y-20285436D01*
X12818920Y-20285436D02*
X12809396Y-20294960D01*
X12809396Y-20294960D02*
X12790348Y-20304484D01*
X12790348Y-20304484D02*
X12771301Y-20304484D01*
X12771301Y-20304484D02*
X12752253Y-20294960D01*
X12752253Y-20294960D02*
X12742729Y-20285436D01*
X12742729Y-20285436D02*
X12733206Y-20266389D01*
X12733206Y-20266389D02*
X12723682Y-20228293D01*
X12723682Y-20228293D02*
X12723682Y-20180674D01*
X12723682Y-20180674D02*
X12733206Y-20142579D01*
X12733206Y-20142579D02*
X12742729Y-20123531D01*
X12742729Y-20123531D02*
X12752253Y-20114008D01*
X12752253Y-20114008D02*
X12771301Y-20104484D01*
X12961777Y-20104484D02*
X12980825Y-20104484D01*
X12980825Y-20104484D02*
X12999872Y-20114008D01*
X12999872Y-20114008D02*
X13009396Y-20123531D01*
X13009396Y-20123531D02*
X13018920Y-20142579D01*
X13018920Y-20142579D02*
X13028444Y-20180674D01*
X13028444Y-20180674D02*
X13028444Y-20228293D01*
X13028444Y-20228293D02*
X13018920Y-20266389D01*
X13018920Y-20266389D02*
X13009396Y-20285436D01*
X13009396Y-20285436D02*
X12999872Y-20294960D01*
X12999872Y-20294960D02*
X12980825Y-20304484D01*
X12980825Y-20304484D02*
X12961777Y-20304484D01*
X12961777Y-20304484D02*
X12942729Y-20294960D01*
X12942729Y-20294960D02*
X12933206Y-20285436D01*
X12933206Y-20285436D02*
X12923682Y-20266389D01*
X12923682Y-20266389D02*
X12914158Y-20228293D01*
X12914158Y-20228293D02*
X12914158Y-20180674D01*
X12914158Y-20180674D02*
X12923682Y-20142579D01*
X12923682Y-20142579D02*
X12933206Y-20123531D01*
X12933206Y-20123531D02*
X12942729Y-20114008D01*
X12942729Y-20114008D02*
X12961777Y-20104484D01*
X13104634Y-20104484D02*
X13104634Y-20142579D01*
X13180825Y-20104484D02*
X13180825Y-20142579D01*
X13476063Y-20380674D02*
X13466539Y-20371150D01*
X13466539Y-20371150D02*
X13447491Y-20342579D01*
X13447491Y-20342579D02*
X13437968Y-20323531D01*
X13437968Y-20323531D02*
X13428444Y-20294960D01*
X13428444Y-20294960D02*
X13418920Y-20247341D01*
X13418920Y-20247341D02*
X13418920Y-20209246D01*
X13418920Y-20209246D02*
X13428444Y-20161627D01*
X13428444Y-20161627D02*
X13437968Y-20133055D01*
X13437968Y-20133055D02*
X13447491Y-20114008D01*
X13447491Y-20114008D02*
X13466539Y-20085436D01*
X13466539Y-20085436D02*
X13476063Y-20075912D01*
X13637968Y-20171150D02*
X13637968Y-20304484D01*
X13590348Y-20094960D02*
X13542729Y-20237817D01*
X13542729Y-20237817D02*
X13666539Y-20237817D01*
X13895110Y-20304484D02*
X13895110Y-20104484D01*
X13980825Y-20304484D02*
X13980825Y-20199722D01*
X13980825Y-20199722D02*
X13971301Y-20180674D01*
X13971301Y-20180674D02*
X13952253Y-20171150D01*
X13952253Y-20171150D02*
X13923682Y-20171150D01*
X13923682Y-20171150D02*
X13904634Y-20180674D01*
X13904634Y-20180674D02*
X13895110Y-20190198D01*
X14104634Y-20304484D02*
X14085587Y-20294960D01*
X14085587Y-20294960D02*
X14076063Y-20285436D01*
X14076063Y-20285436D02*
X14066539Y-20266389D01*
X14066539Y-20266389D02*
X14066539Y-20209246D01*
X14066539Y-20209246D02*
X14076063Y-20190198D01*
X14076063Y-20190198D02*
X14085587Y-20180674D01*
X14085587Y-20180674D02*
X14104634Y-20171150D01*
X14104634Y-20171150D02*
X14133206Y-20171150D01*
X14133206Y-20171150D02*
X14152253Y-20180674D01*
X14152253Y-20180674D02*
X14161777Y-20190198D01*
X14161777Y-20190198D02*
X14171301Y-20209246D01*
X14171301Y-20209246D02*
X14171301Y-20266389D01*
X14171301Y-20266389D02*
X14161777Y-20285436D01*
X14161777Y-20285436D02*
X14152253Y-20294960D01*
X14152253Y-20294960D02*
X14133206Y-20304484D01*
X14133206Y-20304484D02*
X14104634Y-20304484D01*
X14285587Y-20304484D02*
X14266539Y-20294960D01*
X14266539Y-20294960D02*
X14257015Y-20275912D01*
X14257015Y-20275912D02*
X14257015Y-20104484D01*
X14437968Y-20294960D02*
X14418920Y-20304484D01*
X14418920Y-20304484D02*
X14380825Y-20304484D01*
X14380825Y-20304484D02*
X14361777Y-20294960D01*
X14361777Y-20294960D02*
X14352253Y-20275912D01*
X14352253Y-20275912D02*
X14352253Y-20199722D01*
X14352253Y-20199722D02*
X14361777Y-20180674D01*
X14361777Y-20180674D02*
X14380825Y-20171150D01*
X14380825Y-20171150D02*
X14418920Y-20171150D01*
X14418920Y-20171150D02*
X14437968Y-20180674D01*
X14437968Y-20180674D02*
X14447491Y-20199722D01*
X14447491Y-20199722D02*
X14447491Y-20218770D01*
X14447491Y-20218770D02*
X14352253Y-20237817D01*
X14523682Y-20294960D02*
X14542730Y-20304484D01*
X14542730Y-20304484D02*
X14580825Y-20304484D01*
X14580825Y-20304484D02*
X14599872Y-20294960D01*
X14599872Y-20294960D02*
X14609396Y-20275912D01*
X14609396Y-20275912D02*
X14609396Y-20266389D01*
X14609396Y-20266389D02*
X14599872Y-20247341D01*
X14599872Y-20247341D02*
X14580825Y-20237817D01*
X14580825Y-20237817D02*
X14552253Y-20237817D01*
X14552253Y-20237817D02*
X14533206Y-20228293D01*
X14533206Y-20228293D02*
X14523682Y-20209246D01*
X14523682Y-20209246D02*
X14523682Y-20199722D01*
X14523682Y-20199722D02*
X14533206Y-20180674D01*
X14533206Y-20180674D02*
X14552253Y-20171150D01*
X14552253Y-20171150D02*
X14580825Y-20171150D01*
X14580825Y-20171150D02*
X14599872Y-20180674D01*
X14676063Y-20380674D02*
X14685587Y-20371150D01*
X14685587Y-20371150D02*
X14704634Y-20342579D01*
X14704634Y-20342579D02*
X14714158Y-20323531D01*
X14714158Y-20323531D02*
X14723682Y-20294960D01*
X14723682Y-20294960D02*
X14733206Y-20247341D01*
X14733206Y-20247341D02*
X14733206Y-20209246D01*
X14733206Y-20209246D02*
X14723682Y-20161627D01*
X14723682Y-20161627D02*
X14714158Y-20133055D01*
X14714158Y-20133055D02*
X14704634Y-20114008D01*
X14704634Y-20114008D02*
X14685587Y-20085436D01*
X14685587Y-20085436D02*
X14676063Y-20075912D01*
D10*
X9851000Y-20427000D02*
X9851000Y-20527000D01*
X9801000Y-20477000D02*
X9901000Y-20477000D01*
D11*
X10266539Y-20568484D02*
X10152253Y-20568484D01*
X10209396Y-20568484D02*
X10209396Y-20368484D01*
X10209396Y-20368484D02*
X10190348Y-20397055D01*
X10190348Y-20397055D02*
X10171301Y-20416103D01*
X10171301Y-20416103D02*
X10152253Y-20425627D01*
X10352253Y-20549436D02*
X10361777Y-20558960D01*
X10361777Y-20558960D02*
X10352253Y-20568484D01*
X10352253Y-20568484D02*
X10342729Y-20558960D01*
X10342729Y-20558960D02*
X10352253Y-20549436D01*
X10352253Y-20549436D02*
X10352253Y-20568484D01*
X10485586Y-20368484D02*
X10504634Y-20368484D01*
X10504634Y-20368484D02*
X10523682Y-20378008D01*
X10523682Y-20378008D02*
X10533205Y-20387531D01*
X10533205Y-20387531D02*
X10542729Y-20406579D01*
X10542729Y-20406579D02*
X10552253Y-20444674D01*
X10552253Y-20444674D02*
X10552253Y-20492293D01*
X10552253Y-20492293D02*
X10542729Y-20530389D01*
X10542729Y-20530389D02*
X10533205Y-20549436D01*
X10533205Y-20549436D02*
X10523682Y-20558960D01*
X10523682Y-20558960D02*
X10504634Y-20568484D01*
X10504634Y-20568484D02*
X10485586Y-20568484D01*
X10485586Y-20568484D02*
X10466539Y-20558960D01*
X10466539Y-20558960D02*
X10457015Y-20549436D01*
X10457015Y-20549436D02*
X10447491Y-20530389D01*
X10447491Y-20530389D02*
X10437967Y-20492293D01*
X10437967Y-20492293D02*
X10437967Y-20444674D01*
X10437967Y-20444674D02*
X10447491Y-20406579D01*
X10447491Y-20406579D02*
X10457015Y-20387531D01*
X10457015Y-20387531D02*
X10466539Y-20378008D01*
X10466539Y-20378008D02*
X10485586Y-20368484D01*
X10676063Y-20368484D02*
X10695110Y-20368484D01*
X10695110Y-20368484D02*
X10714158Y-20378008D01*
X10714158Y-20378008D02*
X10723682Y-20387531D01*
X10723682Y-20387531D02*
X10733205Y-20406579D01*
X10733205Y-20406579D02*
X10742729Y-20444674D01*
X10742729Y-20444674D02*
X10742729Y-20492293D01*
X10742729Y-20492293D02*
X10733205Y-20530389D01*
X10733205Y-20530389D02*
X10723682Y-20549436D01*
X10723682Y-20549436D02*
X10714158Y-20558960D01*
X10714158Y-20558960D02*
X10695110Y-20568484D01*
X10695110Y-20568484D02*
X10676063Y-20568484D01*
X10676063Y-20568484D02*
X10657015Y-20558960D01*
X10657015Y-20558960D02*
X10647491Y-20549436D01*
X10647491Y-20549436D02*
X10637967Y-20530389D01*
X10637967Y-20530389D02*
X10628444Y-20492293D01*
X10628444Y-20492293D02*
X10628444Y-20444674D01*
X10628444Y-20444674D02*
X10637967Y-20406579D01*
X10637967Y-20406579D02*
X10647491Y-20387531D01*
X10647491Y-20387531D02*
X10657015Y-20378008D01*
X10657015Y-20378008D02*
X10676063Y-20368484D01*
X10866539Y-20368484D02*
X10885586Y-20368484D01*
X10885586Y-20368484D02*
X10904634Y-20378008D01*
X10904634Y-20378008D02*
X10914158Y-20387531D01*
X10914158Y-20387531D02*
X10923682Y-20406579D01*
X10923682Y-20406579D02*
X10933205Y-20444674D01*
X10933205Y-20444674D02*
X10933205Y-20492293D01*
X10933205Y-20492293D02*
X10923682Y-20530389D01*
X10923682Y-20530389D02*
X10914158Y-20549436D01*
X10914158Y-20549436D02*
X10904634Y-20558960D01*
X10904634Y-20558960D02*
X10885586Y-20568484D01*
X10885586Y-20568484D02*
X10866539Y-20568484D01*
X10866539Y-20568484D02*
X10847491Y-20558960D01*
X10847491Y-20558960D02*
X10837967Y-20549436D01*
X10837967Y-20549436D02*
X10828444Y-20530389D01*
X10828444Y-20530389D02*
X10818920Y-20492293D01*
X10818920Y-20492293D02*
X10818920Y-20444674D01*
X10818920Y-20444674D02*
X10828444Y-20406579D01*
X10828444Y-20406579D02*
X10837967Y-20387531D01*
X10837967Y-20387531D02*
X10847491Y-20378008D01*
X10847491Y-20378008D02*
X10866539Y-20368484D01*
X11018920Y-20568484D02*
X11018920Y-20435150D01*
X11018920Y-20454198D02*
X11028444Y-20444674D01*
X11028444Y-20444674D02*
X11047491Y-20435150D01*
X11047491Y-20435150D02*
X11076063Y-20435150D01*
X11076063Y-20435150D02*
X11095110Y-20444674D01*
X11095110Y-20444674D02*
X11104634Y-20463722D01*
X11104634Y-20463722D02*
X11104634Y-20568484D01*
X11104634Y-20463722D02*
X11114158Y-20444674D01*
X11114158Y-20444674D02*
X11133205Y-20435150D01*
X11133205Y-20435150D02*
X11161777Y-20435150D01*
X11161777Y-20435150D02*
X11180825Y-20444674D01*
X11180825Y-20444674D02*
X11190348Y-20463722D01*
X11190348Y-20463722D02*
X11190348Y-20568484D01*
X11285586Y-20568484D02*
X11285586Y-20435150D01*
X11285586Y-20454198D02*
X11295110Y-20444674D01*
X11295110Y-20444674D02*
X11314158Y-20435150D01*
X11314158Y-20435150D02*
X11342729Y-20435150D01*
X11342729Y-20435150D02*
X11361777Y-20444674D01*
X11361777Y-20444674D02*
X11371301Y-20463722D01*
X11371301Y-20463722D02*
X11371301Y-20568484D01*
X11371301Y-20463722D02*
X11380824Y-20444674D01*
X11380824Y-20444674D02*
X11399872Y-20435150D01*
X11399872Y-20435150D02*
X11428443Y-20435150D01*
X11428443Y-20435150D02*
X11447491Y-20444674D01*
X11447491Y-20444674D02*
X11457015Y-20463722D01*
X11457015Y-20463722D02*
X11457015Y-20568484D01*
X11847491Y-20358960D02*
X11676063Y-20616103D01*
X12104634Y-20368484D02*
X12123682Y-20368484D01*
X12123682Y-20368484D02*
X12142729Y-20378008D01*
X12142729Y-20378008D02*
X12152253Y-20387531D01*
X12152253Y-20387531D02*
X12161777Y-20406579D01*
X12161777Y-20406579D02*
X12171301Y-20444674D01*
X12171301Y-20444674D02*
X12171301Y-20492293D01*
X12171301Y-20492293D02*
X12161777Y-20530389D01*
X12161777Y-20530389D02*
X12152253Y-20549436D01*
X12152253Y-20549436D02*
X12142729Y-20558960D01*
X12142729Y-20558960D02*
X12123682Y-20568484D01*
X12123682Y-20568484D02*
X12104634Y-20568484D01*
X12104634Y-20568484D02*
X12085586Y-20558960D01*
X12085586Y-20558960D02*
X12076063Y-20549436D01*
X12076063Y-20549436D02*
X12066539Y-20530389D01*
X12066539Y-20530389D02*
X12057015Y-20492293D01*
X12057015Y-20492293D02*
X12057015Y-20444674D01*
X12057015Y-20444674D02*
X12066539Y-20406579D01*
X12066539Y-20406579D02*
X12076063Y-20387531D01*
X12076063Y-20387531D02*
X12085586Y-20378008D01*
X12085586Y-20378008D02*
X12104634Y-20368484D01*
X12257015Y-20549436D02*
X12266539Y-20558960D01*
X12266539Y-20558960D02*
X12257015Y-20568484D01*
X12257015Y-20568484D02*
X12247491Y-20558960D01*
X12247491Y-20558960D02*
X12257015Y-20549436D01*
X12257015Y-20549436D02*
X12257015Y-20568484D01*
X12390348Y-20368484D02*
X12409396Y-20368484D01*
X12409396Y-20368484D02*
X12428444Y-20378008D01*
X12428444Y-20378008D02*
X12437967Y-20387531D01*
X12437967Y-20387531D02*
X12447491Y-20406579D01*
X12447491Y-20406579D02*
X12457015Y-20444674D01*
X12457015Y-20444674D02*
X12457015Y-20492293D01*
X12457015Y-20492293D02*
X12447491Y-20530389D01*
X12447491Y-20530389D02*
X12437967Y-20549436D01*
X12437967Y-20549436D02*
X12428444Y-20558960D01*
X12428444Y-20558960D02*
X12409396Y-20568484D01*
X12409396Y-20568484D02*
X12390348Y-20568484D01*
X12390348Y-20568484D02*
X12371301Y-20558960D01*
X12371301Y-20558960D02*
X12361777Y-20549436D01*
X12361777Y-20549436D02*
X12352253Y-20530389D01*
X12352253Y-20530389D02*
X12342729Y-20492293D01*
X12342729Y-20492293D02*
X12342729Y-20444674D01*
X12342729Y-20444674D02*
X12352253Y-20406579D01*
X12352253Y-20406579D02*
X12361777Y-20387531D01*
X12361777Y-20387531D02*
X12371301Y-20378008D01*
X12371301Y-20378008D02*
X12390348Y-20368484D01*
X12523682Y-20368484D02*
X12647491Y-20368484D01*
X12647491Y-20368484D02*
X12580825Y-20444674D01*
X12580825Y-20444674D02*
X12609396Y-20444674D01*
X12609396Y-20444674D02*
X12628444Y-20454198D01*
X12628444Y-20454198D02*
X12637967Y-20463722D01*
X12637967Y-20463722D02*
X12647491Y-20482770D01*
X12647491Y-20482770D02*
X12647491Y-20530389D01*
X12647491Y-20530389D02*
X12637967Y-20549436D01*
X12637967Y-20549436D02*
X12628444Y-20558960D01*
X12628444Y-20558960D02*
X12609396Y-20568484D01*
X12609396Y-20568484D02*
X12552253Y-20568484D01*
X12552253Y-20568484D02*
X12533206Y-20558960D01*
X12533206Y-20558960D02*
X12523682Y-20549436D01*
X12742729Y-20568484D02*
X12780825Y-20568484D01*
X12780825Y-20568484D02*
X12799872Y-20558960D01*
X12799872Y-20558960D02*
X12809396Y-20549436D01*
X12809396Y-20549436D02*
X12828444Y-20520865D01*
X12828444Y-20520865D02*
X12837967Y-20482770D01*
X12837967Y-20482770D02*
X12837967Y-20406579D01*
X12837967Y-20406579D02*
X12828444Y-20387531D01*
X12828444Y-20387531D02*
X12818920Y-20378008D01*
X12818920Y-20378008D02*
X12799872Y-20368484D01*
X12799872Y-20368484D02*
X12761777Y-20368484D01*
X12761777Y-20368484D02*
X12742729Y-20378008D01*
X12742729Y-20378008D02*
X12733206Y-20387531D01*
X12733206Y-20387531D02*
X12723682Y-20406579D01*
X12723682Y-20406579D02*
X12723682Y-20454198D01*
X12723682Y-20454198D02*
X12733206Y-20473246D01*
X12733206Y-20473246D02*
X12742729Y-20482770D01*
X12742729Y-20482770D02*
X12761777Y-20492293D01*
X12761777Y-20492293D02*
X12799872Y-20492293D01*
X12799872Y-20492293D02*
X12818920Y-20482770D01*
X12818920Y-20482770D02*
X12828444Y-20473246D01*
X12828444Y-20473246D02*
X12837967Y-20454198D01*
X13009396Y-20435150D02*
X13009396Y-20568484D01*
X12961777Y-20358960D02*
X12914158Y-20501817D01*
X12914158Y-20501817D02*
X13037967Y-20501817D01*
X13104634Y-20368484D02*
X13104634Y-20406579D01*
X13180825Y-20368484D02*
X13180825Y-20406579D01*
X13476063Y-20644674D02*
X13466539Y-20635150D01*
X13466539Y-20635150D02*
X13447491Y-20606579D01*
X13447491Y-20606579D02*
X13437968Y-20587531D01*
X13437968Y-20587531D02*
X13428444Y-20558960D01*
X13428444Y-20558960D02*
X13418920Y-20511341D01*
X13418920Y-20511341D02*
X13418920Y-20473246D01*
X13418920Y-20473246D02*
X13428444Y-20425627D01*
X13428444Y-20425627D02*
X13437968Y-20397055D01*
X13437968Y-20397055D02*
X13447491Y-20378008D01*
X13447491Y-20378008D02*
X13466539Y-20349436D01*
X13466539Y-20349436D02*
X13476063Y-20339912D01*
X13542729Y-20387531D02*
X13552253Y-20378008D01*
X13552253Y-20378008D02*
X13571301Y-20368484D01*
X13571301Y-20368484D02*
X13618920Y-20368484D01*
X13618920Y-20368484D02*
X13637968Y-20378008D01*
X13637968Y-20378008D02*
X13647491Y-20387531D01*
X13647491Y-20387531D02*
X13657015Y-20406579D01*
X13657015Y-20406579D02*
X13657015Y-20425627D01*
X13657015Y-20425627D02*
X13647491Y-20454198D01*
X13647491Y-20454198D02*
X13533206Y-20568484D01*
X13533206Y-20568484D02*
X13657015Y-20568484D01*
X13771301Y-20454198D02*
X13752253Y-20444674D01*
X13752253Y-20444674D02*
X13742729Y-20435150D01*
X13742729Y-20435150D02*
X13733206Y-20416103D01*
X13733206Y-20416103D02*
X13733206Y-20406579D01*
X13733206Y-20406579D02*
X13742729Y-20387531D01*
X13742729Y-20387531D02*
X13752253Y-20378008D01*
X13752253Y-20378008D02*
X13771301Y-20368484D01*
X13771301Y-20368484D02*
X13809396Y-20368484D01*
X13809396Y-20368484D02*
X13828444Y-20378008D01*
X13828444Y-20378008D02*
X13837968Y-20387531D01*
X13837968Y-20387531D02*
X13847491Y-20406579D01*
X13847491Y-20406579D02*
X13847491Y-20416103D01*
X13847491Y-20416103D02*
X13837968Y-20435150D01*
X13837968Y-20435150D02*
X13828444Y-20444674D01*
X13828444Y-20444674D02*
X13809396Y-20454198D01*
X13809396Y-20454198D02*
X13771301Y-20454198D01*
X13771301Y-20454198D02*
X13752253Y-20463722D01*
X13752253Y-20463722D02*
X13742729Y-20473246D01*
X13742729Y-20473246D02*
X13733206Y-20492293D01*
X13733206Y-20492293D02*
X13733206Y-20530389D01*
X13733206Y-20530389D02*
X13742729Y-20549436D01*
X13742729Y-20549436D02*
X13752253Y-20558960D01*
X13752253Y-20558960D02*
X13771301Y-20568484D01*
X13771301Y-20568484D02*
X13809396Y-20568484D01*
X13809396Y-20568484D02*
X13828444Y-20558960D01*
X13828444Y-20558960D02*
X13837968Y-20549436D01*
X13837968Y-20549436D02*
X13847491Y-20530389D01*
X13847491Y-20530389D02*
X13847491Y-20492293D01*
X13847491Y-20492293D02*
X13837968Y-20473246D01*
X13837968Y-20473246D02*
X13828444Y-20463722D01*
X13828444Y-20463722D02*
X13809396Y-20454198D01*
X14085587Y-20568484D02*
X14085587Y-20368484D01*
X14171301Y-20568484D02*
X14171301Y-20463722D01*
X14171301Y-20463722D02*
X14161777Y-20444674D01*
X14161777Y-20444674D02*
X14142730Y-20435150D01*
X14142730Y-20435150D02*
X14114158Y-20435150D01*
X14114158Y-20435150D02*
X14095110Y-20444674D01*
X14095110Y-20444674D02*
X14085587Y-20454198D01*
X14295110Y-20568484D02*
X14276063Y-20558960D01*
X14276063Y-20558960D02*
X14266539Y-20549436D01*
X14266539Y-20549436D02*
X14257015Y-20530389D01*
X14257015Y-20530389D02*
X14257015Y-20473246D01*
X14257015Y-20473246D02*
X14266539Y-20454198D01*
X14266539Y-20454198D02*
X14276063Y-20444674D01*
X14276063Y-20444674D02*
X14295110Y-20435150D01*
X14295110Y-20435150D02*
X14323682Y-20435150D01*
X14323682Y-20435150D02*
X14342730Y-20444674D01*
X14342730Y-20444674D02*
X14352253Y-20454198D01*
X14352253Y-20454198D02*
X14361777Y-20473246D01*
X14361777Y-20473246D02*
X14361777Y-20530389D01*
X14361777Y-20530389D02*
X14352253Y-20549436D01*
X14352253Y-20549436D02*
X14342730Y-20558960D01*
X14342730Y-20558960D02*
X14323682Y-20568484D01*
X14323682Y-20568484D02*
X14295110Y-20568484D01*
X14476063Y-20568484D02*
X14457015Y-20558960D01*
X14457015Y-20558960D02*
X14447491Y-20539912D01*
X14447491Y-20539912D02*
X14447491Y-20368484D01*
X14628444Y-20558960D02*
X14609396Y-20568484D01*
X14609396Y-20568484D02*
X14571301Y-20568484D01*
X14571301Y-20568484D02*
X14552253Y-20558960D01*
X14552253Y-20558960D02*
X14542730Y-20539912D01*
X14542730Y-20539912D02*
X14542730Y-20463722D01*
X14542730Y-20463722D02*
X14552253Y-20444674D01*
X14552253Y-20444674D02*
X14571301Y-20435150D01*
X14571301Y-20435150D02*
X14609396Y-20435150D01*
X14609396Y-20435150D02*
X14628444Y-20444674D01*
X14628444Y-20444674D02*
X14637968Y-20463722D01*
X14637968Y-20463722D02*
X14637968Y-20482770D01*
X14637968Y-20482770D02*
X14542730Y-20501817D01*
X14714158Y-20558960D02*
X14733206Y-20568484D01*
X14733206Y-20568484D02*
X14771301Y-20568484D01*
X14771301Y-20568484D02*
X14790349Y-20558960D01*
X14790349Y-20558960D02*
X14799872Y-20539912D01*
X14799872Y-20539912D02*
X14799872Y-20530389D01*
X14799872Y-20530389D02*
X14790349Y-20511341D01*
X14790349Y-20511341D02*
X14771301Y-20501817D01*
X14771301Y-20501817D02*
X14742730Y-20501817D01*
X14742730Y-20501817D02*
X14723682Y-20492293D01*
X14723682Y-20492293D02*
X14714158Y-20473246D01*
X14714158Y-20473246D02*
X14714158Y-20463722D01*
X14714158Y-20463722D02*
X14723682Y-20444674D01*
X14723682Y-20444674D02*
X14742730Y-20435150D01*
X14742730Y-20435150D02*
X14771301Y-20435150D01*
X14771301Y-20435150D02*
X14790349Y-20444674D01*
X14866539Y-20644674D02*
X14876063Y-20635150D01*
X14876063Y-20635150D02*
X14895111Y-20606579D01*
X14895111Y-20606579D02*
X14904634Y-20587531D01*
X14904634Y-20587531D02*
X14914158Y-20558960D01*
X14914158Y-20558960D02*
X14923682Y-20511341D01*
X14923682Y-20511341D02*
X14923682Y-20473246D01*
X14923682Y-20473246D02*
X14914158Y-20425627D01*
X14914158Y-20425627D02*
X14904634Y-20397055D01*
X14904634Y-20397055D02*
X14895111Y-20378008D01*
X14895111Y-20378008D02*
X14876063Y-20349436D01*
X14876063Y-20349436D02*
X14866539Y-20339912D01*
D12*
X9886063Y-20777063D02*
X9886063Y-20704937D01*
X9813937Y-20704937D01*
X9813937Y-20777063D01*
X9886063Y-20777063D01*
D11*
X10266539Y-20832484D02*
X10152253Y-20832484D01*
X10209396Y-20832484D02*
X10209396Y-20632484D01*
X10209396Y-20632484D02*
X10190348Y-20661055D01*
X10190348Y-20661055D02*
X10171301Y-20680103D01*
X10171301Y-20680103D02*
X10152253Y-20689627D01*
X10352253Y-20813436D02*
X10361777Y-20822960D01*
X10361777Y-20822960D02*
X10352253Y-20832484D01*
X10352253Y-20832484D02*
X10342729Y-20822960D01*
X10342729Y-20822960D02*
X10352253Y-20813436D01*
X10352253Y-20813436D02*
X10352253Y-20832484D01*
X10485586Y-20632484D02*
X10504634Y-20632484D01*
X10504634Y-20632484D02*
X10523682Y-20642008D01*
X10523682Y-20642008D02*
X10533205Y-20651531D01*
X10533205Y-20651531D02*
X10542729Y-20670579D01*
X10542729Y-20670579D02*
X10552253Y-20708674D01*
X10552253Y-20708674D02*
X10552253Y-20756293D01*
X10552253Y-20756293D02*
X10542729Y-20794389D01*
X10542729Y-20794389D02*
X10533205Y-20813436D01*
X10533205Y-20813436D02*
X10523682Y-20822960D01*
X10523682Y-20822960D02*
X10504634Y-20832484D01*
X10504634Y-20832484D02*
X10485586Y-20832484D01*
X10485586Y-20832484D02*
X10466539Y-20822960D01*
X10466539Y-20822960D02*
X10457015Y-20813436D01*
X10457015Y-20813436D02*
X10447491Y-20794389D01*
X10447491Y-20794389D02*
X10437967Y-20756293D01*
X10437967Y-20756293D02*
X10437967Y-20708674D01*
X10437967Y-20708674D02*
X10447491Y-20670579D01*
X10447491Y-20670579D02*
X10457015Y-20651531D01*
X10457015Y-20651531D02*
X10466539Y-20642008D01*
X10466539Y-20642008D02*
X10485586Y-20632484D01*
X10628444Y-20651531D02*
X10637967Y-20642008D01*
X10637967Y-20642008D02*
X10657015Y-20632484D01*
X10657015Y-20632484D02*
X10704634Y-20632484D01*
X10704634Y-20632484D02*
X10723682Y-20642008D01*
X10723682Y-20642008D02*
X10733205Y-20651531D01*
X10733205Y-20651531D02*
X10742729Y-20670579D01*
X10742729Y-20670579D02*
X10742729Y-20689627D01*
X10742729Y-20689627D02*
X10733205Y-20718198D01*
X10733205Y-20718198D02*
X10618920Y-20832484D01*
X10618920Y-20832484D02*
X10742729Y-20832484D01*
X10866539Y-20632484D02*
X10885586Y-20632484D01*
X10885586Y-20632484D02*
X10904634Y-20642008D01*
X10904634Y-20642008D02*
X10914158Y-20651531D01*
X10914158Y-20651531D02*
X10923682Y-20670579D01*
X10923682Y-20670579D02*
X10933205Y-20708674D01*
X10933205Y-20708674D02*
X10933205Y-20756293D01*
X10933205Y-20756293D02*
X10923682Y-20794389D01*
X10923682Y-20794389D02*
X10914158Y-20813436D01*
X10914158Y-20813436D02*
X10904634Y-20822960D01*
X10904634Y-20822960D02*
X10885586Y-20832484D01*
X10885586Y-20832484D02*
X10866539Y-20832484D01*
X10866539Y-20832484D02*
X10847491Y-20822960D01*
X10847491Y-20822960D02*
X10837967Y-20813436D01*
X10837967Y-20813436D02*
X10828444Y-20794389D01*
X10828444Y-20794389D02*
X10818920Y-20756293D01*
X10818920Y-20756293D02*
X10818920Y-20708674D01*
X10818920Y-20708674D02*
X10828444Y-20670579D01*
X10828444Y-20670579D02*
X10837967Y-20651531D01*
X10837967Y-20651531D02*
X10847491Y-20642008D01*
X10847491Y-20642008D02*
X10866539Y-20632484D01*
X11018920Y-20832484D02*
X11018920Y-20699150D01*
X11018920Y-20718198D02*
X11028444Y-20708674D01*
X11028444Y-20708674D02*
X11047491Y-20699150D01*
X11047491Y-20699150D02*
X11076063Y-20699150D01*
X11076063Y-20699150D02*
X11095110Y-20708674D01*
X11095110Y-20708674D02*
X11104634Y-20727722D01*
X11104634Y-20727722D02*
X11104634Y-20832484D01*
X11104634Y-20727722D02*
X11114158Y-20708674D01*
X11114158Y-20708674D02*
X11133205Y-20699150D01*
X11133205Y-20699150D02*
X11161777Y-20699150D01*
X11161777Y-20699150D02*
X11180825Y-20708674D01*
X11180825Y-20708674D02*
X11190348Y-20727722D01*
X11190348Y-20727722D02*
X11190348Y-20832484D01*
X11285586Y-20832484D02*
X11285586Y-20699150D01*
X11285586Y-20718198D02*
X11295110Y-20708674D01*
X11295110Y-20708674D02*
X11314158Y-20699150D01*
X11314158Y-20699150D02*
X11342729Y-20699150D01*
X11342729Y-20699150D02*
X11361777Y-20708674D01*
X11361777Y-20708674D02*
X11371301Y-20727722D01*
X11371301Y-20727722D02*
X11371301Y-20832484D01*
X11371301Y-20727722D02*
X11380824Y-20708674D01*
X11380824Y-20708674D02*
X11399872Y-20699150D01*
X11399872Y-20699150D02*
X11428443Y-20699150D01*
X11428443Y-20699150D02*
X11447491Y-20708674D01*
X11447491Y-20708674D02*
X11457015Y-20727722D01*
X11457015Y-20727722D02*
X11457015Y-20832484D01*
X11847491Y-20622960D02*
X11676063Y-20880103D01*
X12104634Y-20632484D02*
X12123682Y-20632484D01*
X12123682Y-20632484D02*
X12142729Y-20642008D01*
X12142729Y-20642008D02*
X12152253Y-20651531D01*
X12152253Y-20651531D02*
X12161777Y-20670579D01*
X12161777Y-20670579D02*
X12171301Y-20708674D01*
X12171301Y-20708674D02*
X12171301Y-20756293D01*
X12171301Y-20756293D02*
X12161777Y-20794389D01*
X12161777Y-20794389D02*
X12152253Y-20813436D01*
X12152253Y-20813436D02*
X12142729Y-20822960D01*
X12142729Y-20822960D02*
X12123682Y-20832484D01*
X12123682Y-20832484D02*
X12104634Y-20832484D01*
X12104634Y-20832484D02*
X12085586Y-20822960D01*
X12085586Y-20822960D02*
X12076063Y-20813436D01*
X12076063Y-20813436D02*
X12066539Y-20794389D01*
X12066539Y-20794389D02*
X12057015Y-20756293D01*
X12057015Y-20756293D02*
X12057015Y-20708674D01*
X12057015Y-20708674D02*
X12066539Y-20670579D01*
X12066539Y-20670579D02*
X12076063Y-20651531D01*
X12076063Y-20651531D02*
X12085586Y-20642008D01*
X12085586Y-20642008D02*
X12104634Y-20632484D01*
X12257015Y-20813436D02*
X12266539Y-20822960D01*
X12266539Y-20822960D02*
X12257015Y-20832484D01*
X12257015Y-20832484D02*
X12247491Y-20822960D01*
X12247491Y-20822960D02*
X12257015Y-20813436D01*
X12257015Y-20813436D02*
X12257015Y-20832484D01*
X12390348Y-20632484D02*
X12409396Y-20632484D01*
X12409396Y-20632484D02*
X12428444Y-20642008D01*
X12428444Y-20642008D02*
X12437967Y-20651531D01*
X12437967Y-20651531D02*
X12447491Y-20670579D01*
X12447491Y-20670579D02*
X12457015Y-20708674D01*
X12457015Y-20708674D02*
X12457015Y-20756293D01*
X12457015Y-20756293D02*
X12447491Y-20794389D01*
X12447491Y-20794389D02*
X12437967Y-20813436D01*
X12437967Y-20813436D02*
X12428444Y-20822960D01*
X12428444Y-20822960D02*
X12409396Y-20832484D01*
X12409396Y-20832484D02*
X12390348Y-20832484D01*
X12390348Y-20832484D02*
X12371301Y-20822960D01*
X12371301Y-20822960D02*
X12361777Y-20813436D01*
X12361777Y-20813436D02*
X12352253Y-20794389D01*
X12352253Y-20794389D02*
X12342729Y-20756293D01*
X12342729Y-20756293D02*
X12342729Y-20708674D01*
X12342729Y-20708674D02*
X12352253Y-20670579D01*
X12352253Y-20670579D02*
X12361777Y-20651531D01*
X12361777Y-20651531D02*
X12371301Y-20642008D01*
X12371301Y-20642008D02*
X12390348Y-20632484D01*
X12628444Y-20699150D02*
X12628444Y-20832484D01*
X12580825Y-20622960D02*
X12533206Y-20765817D01*
X12533206Y-20765817D02*
X12657015Y-20765817D01*
X12771301Y-20632484D02*
X12790348Y-20632484D01*
X12790348Y-20632484D02*
X12809396Y-20642008D01*
X12809396Y-20642008D02*
X12818920Y-20651531D01*
X12818920Y-20651531D02*
X12828444Y-20670579D01*
X12828444Y-20670579D02*
X12837967Y-20708674D01*
X12837967Y-20708674D02*
X12837967Y-20756293D01*
X12837967Y-20756293D02*
X12828444Y-20794389D01*
X12828444Y-20794389D02*
X12818920Y-20813436D01*
X12818920Y-20813436D02*
X12809396Y-20822960D01*
X12809396Y-20822960D02*
X12790348Y-20832484D01*
X12790348Y-20832484D02*
X12771301Y-20832484D01*
X12771301Y-20832484D02*
X12752253Y-20822960D01*
X12752253Y-20822960D02*
X12742729Y-20813436D01*
X12742729Y-20813436D02*
X12733206Y-20794389D01*
X12733206Y-20794389D02*
X12723682Y-20756293D01*
X12723682Y-20756293D02*
X12723682Y-20708674D01*
X12723682Y-20708674D02*
X12733206Y-20670579D01*
X12733206Y-20670579D02*
X12742729Y-20651531D01*
X12742729Y-20651531D02*
X12752253Y-20642008D01*
X12752253Y-20642008D02*
X12771301Y-20632484D01*
X12914158Y-20651531D02*
X12923682Y-20642008D01*
X12923682Y-20642008D02*
X12942729Y-20632484D01*
X12942729Y-20632484D02*
X12990348Y-20632484D01*
X12990348Y-20632484D02*
X13009396Y-20642008D01*
X13009396Y-20642008D02*
X13018920Y-20651531D01*
X13018920Y-20651531D02*
X13028444Y-20670579D01*
X13028444Y-20670579D02*
X13028444Y-20689627D01*
X13028444Y-20689627D02*
X13018920Y-20718198D01*
X13018920Y-20718198D02*
X12904634Y-20832484D01*
X12904634Y-20832484D02*
X13028444Y-20832484D01*
X13104634Y-20632484D02*
X13104634Y-20670579D01*
X13180825Y-20632484D02*
X13180825Y-20670579D01*
X13476063Y-20908674D02*
X13466539Y-20899150D01*
X13466539Y-20899150D02*
X13447491Y-20870579D01*
X13447491Y-20870579D02*
X13437968Y-20851531D01*
X13437968Y-20851531D02*
X13428444Y-20822960D01*
X13428444Y-20822960D02*
X13418920Y-20775341D01*
X13418920Y-20775341D02*
X13418920Y-20737246D01*
X13418920Y-20737246D02*
X13428444Y-20689627D01*
X13428444Y-20689627D02*
X13437968Y-20661055D01*
X13437968Y-20661055D02*
X13447491Y-20642008D01*
X13447491Y-20642008D02*
X13466539Y-20613436D01*
X13466539Y-20613436D02*
X13476063Y-20603912D01*
X13533206Y-20632484D02*
X13657015Y-20632484D01*
X13657015Y-20632484D02*
X13590348Y-20708674D01*
X13590348Y-20708674D02*
X13618920Y-20708674D01*
X13618920Y-20708674D02*
X13637968Y-20718198D01*
X13637968Y-20718198D02*
X13647491Y-20727722D01*
X13647491Y-20727722D02*
X13657015Y-20746770D01*
X13657015Y-20746770D02*
X13657015Y-20794389D01*
X13657015Y-20794389D02*
X13647491Y-20813436D01*
X13647491Y-20813436D02*
X13637968Y-20822960D01*
X13637968Y-20822960D02*
X13618920Y-20832484D01*
X13618920Y-20832484D02*
X13561777Y-20832484D01*
X13561777Y-20832484D02*
X13542729Y-20822960D01*
X13542729Y-20822960D02*
X13533206Y-20813436D01*
X13780825Y-20632484D02*
X13799872Y-20632484D01*
X13799872Y-20632484D02*
X13818920Y-20642008D01*
X13818920Y-20642008D02*
X13828444Y-20651531D01*
X13828444Y-20651531D02*
X13837968Y-20670579D01*
X13837968Y-20670579D02*
X13847491Y-20708674D01*
X13847491Y-20708674D02*
X13847491Y-20756293D01*
X13847491Y-20756293D02*
X13837968Y-20794389D01*
X13837968Y-20794389D02*
X13828444Y-20813436D01*
X13828444Y-20813436D02*
X13818920Y-20822960D01*
X13818920Y-20822960D02*
X13799872Y-20832484D01*
X13799872Y-20832484D02*
X13780825Y-20832484D01*
X13780825Y-20832484D02*
X13761777Y-20822960D01*
X13761777Y-20822960D02*
X13752253Y-20813436D01*
X13752253Y-20813436D02*
X13742729Y-20794389D01*
X13742729Y-20794389D02*
X13733206Y-20756293D01*
X13733206Y-20756293D02*
X13733206Y-20708674D01*
X13733206Y-20708674D02*
X13742729Y-20670579D01*
X13742729Y-20670579D02*
X13752253Y-20651531D01*
X13752253Y-20651531D02*
X13761777Y-20642008D01*
X13761777Y-20642008D02*
X13780825Y-20632484D01*
X14085587Y-20832484D02*
X14085587Y-20632484D01*
X14171301Y-20832484D02*
X14171301Y-20727722D01*
X14171301Y-20727722D02*
X14161777Y-20708674D01*
X14161777Y-20708674D02*
X14142730Y-20699150D01*
X14142730Y-20699150D02*
X14114158Y-20699150D01*
X14114158Y-20699150D02*
X14095110Y-20708674D01*
X14095110Y-20708674D02*
X14085587Y-20718198D01*
X14295110Y-20832484D02*
X14276063Y-20822960D01*
X14276063Y-20822960D02*
X14266539Y-20813436D01*
X14266539Y-20813436D02*
X14257015Y-20794389D01*
X14257015Y-20794389D02*
X14257015Y-20737246D01*
X14257015Y-20737246D02*
X14266539Y-20718198D01*
X14266539Y-20718198D02*
X14276063Y-20708674D01*
X14276063Y-20708674D02*
X14295110Y-20699150D01*
X14295110Y-20699150D02*
X14323682Y-20699150D01*
X14323682Y-20699150D02*
X14342730Y-20708674D01*
X14342730Y-20708674D02*
X14352253Y-20718198D01*
X14352253Y-20718198D02*
X14361777Y-20737246D01*
X14361777Y-20737246D02*
X14361777Y-20794389D01*
X14361777Y-20794389D02*
X14352253Y-20813436D01*
X14352253Y-20813436D02*
X14342730Y-20822960D01*
X14342730Y-20822960D02*
X14323682Y-20832484D01*
X14323682Y-20832484D02*
X14295110Y-20832484D01*
X14476063Y-20832484D02*
X14457015Y-20822960D01*
X14457015Y-20822960D02*
X14447491Y-20803912D01*
X14447491Y-20803912D02*
X14447491Y-20632484D01*
X14628444Y-20822960D02*
X14609396Y-20832484D01*
X14609396Y-20832484D02*
X14571301Y-20832484D01*
X14571301Y-20832484D02*
X14552253Y-20822960D01*
X14552253Y-20822960D02*
X14542730Y-20803912D01*
X14542730Y-20803912D02*
X14542730Y-20727722D01*
X14542730Y-20727722D02*
X14552253Y-20708674D01*
X14552253Y-20708674D02*
X14571301Y-20699150D01*
X14571301Y-20699150D02*
X14609396Y-20699150D01*
X14609396Y-20699150D02*
X14628444Y-20708674D01*
X14628444Y-20708674D02*
X14637968Y-20727722D01*
X14637968Y-20727722D02*
X14637968Y-20746770D01*
X14637968Y-20746770D02*
X14542730Y-20765817D01*
X14714158Y-20822960D02*
X14733206Y-20832484D01*
X14733206Y-20832484D02*
X14771301Y-20832484D01*
X14771301Y-20832484D02*
X14790349Y-20822960D01*
X14790349Y-20822960D02*
X14799872Y-20803912D01*
X14799872Y-20803912D02*
X14799872Y-20794389D01*
X14799872Y-20794389D02*
X14790349Y-20775341D01*
X14790349Y-20775341D02*
X14771301Y-20765817D01*
X14771301Y-20765817D02*
X14742730Y-20765817D01*
X14742730Y-20765817D02*
X14723682Y-20756293D01*
X14723682Y-20756293D02*
X14714158Y-20737246D01*
X14714158Y-20737246D02*
X14714158Y-20727722D01*
X14714158Y-20727722D02*
X14723682Y-20708674D01*
X14723682Y-20708674D02*
X14742730Y-20699150D01*
X14742730Y-20699150D02*
X14771301Y-20699150D01*
X14771301Y-20699150D02*
X14790349Y-20708674D01*
X14866539Y-20908674D02*
X14876063Y-20899150D01*
X14876063Y-20899150D02*
X14895111Y-20870579D01*
X14895111Y-20870579D02*
X14904634Y-20851531D01*
X14904634Y-20851531D02*
X14914158Y-20822960D01*
X14914158Y-20822960D02*
X14923682Y-20775341D01*
X14923682Y-20775341D02*
X14923682Y-20737246D01*
X14923682Y-20737246D02*
X14914158Y-20689627D01*
X14914158Y-20689627D02*
X14904634Y-20661055D01*
X14904634Y-20661055D02*
X14895111Y-20642008D01*
X14895111Y-20642008D02*
X14876063Y-20613436D01*
X14876063Y-20613436D02*
X14866539Y-20603912D01*
D13*
X9846000Y-21060000D02*
X9901000Y-21005000D01*
X9846000Y-20950000D01*
X9791000Y-21005000D01*
X9846000Y-21060000D01*
D11*
X10266539Y-21096484D02*
X10152253Y-21096484D01*
X10209396Y-21096484D02*
X10209396Y-20896484D01*
X10209396Y-20896484D02*
X10190348Y-20925055D01*
X10190348Y-20925055D02*
X10171301Y-20944103D01*
X10171301Y-20944103D02*
X10152253Y-20953627D01*
X10352253Y-21077436D02*
X10361777Y-21086960D01*
X10361777Y-21086960D02*
X10352253Y-21096484D01*
X10352253Y-21096484D02*
X10342729Y-21086960D01*
X10342729Y-21086960D02*
X10352253Y-21077436D01*
X10352253Y-21077436D02*
X10352253Y-21096484D01*
X10552253Y-21096484D02*
X10437967Y-21096484D01*
X10495110Y-21096484D02*
X10495110Y-20896484D01*
X10495110Y-20896484D02*
X10476063Y-20925055D01*
X10476063Y-20925055D02*
X10457015Y-20944103D01*
X10457015Y-20944103D02*
X10437967Y-20953627D01*
X10676063Y-20896484D02*
X10695110Y-20896484D01*
X10695110Y-20896484D02*
X10714158Y-20906008D01*
X10714158Y-20906008D02*
X10723682Y-20915531D01*
X10723682Y-20915531D02*
X10733205Y-20934579D01*
X10733205Y-20934579D02*
X10742729Y-20972674D01*
X10742729Y-20972674D02*
X10742729Y-21020293D01*
X10742729Y-21020293D02*
X10733205Y-21058389D01*
X10733205Y-21058389D02*
X10723682Y-21077436D01*
X10723682Y-21077436D02*
X10714158Y-21086960D01*
X10714158Y-21086960D02*
X10695110Y-21096484D01*
X10695110Y-21096484D02*
X10676063Y-21096484D01*
X10676063Y-21096484D02*
X10657015Y-21086960D01*
X10657015Y-21086960D02*
X10647491Y-21077436D01*
X10647491Y-21077436D02*
X10637967Y-21058389D01*
X10637967Y-21058389D02*
X10628444Y-21020293D01*
X10628444Y-21020293D02*
X10628444Y-20972674D01*
X10628444Y-20972674D02*
X10637967Y-20934579D01*
X10637967Y-20934579D02*
X10647491Y-20915531D01*
X10647491Y-20915531D02*
X10657015Y-20906008D01*
X10657015Y-20906008D02*
X10676063Y-20896484D01*
X10866539Y-20896484D02*
X10885586Y-20896484D01*
X10885586Y-20896484D02*
X10904634Y-20906008D01*
X10904634Y-20906008D02*
X10914158Y-20915531D01*
X10914158Y-20915531D02*
X10923682Y-20934579D01*
X10923682Y-20934579D02*
X10933205Y-20972674D01*
X10933205Y-20972674D02*
X10933205Y-21020293D01*
X10933205Y-21020293D02*
X10923682Y-21058389D01*
X10923682Y-21058389D02*
X10914158Y-21077436D01*
X10914158Y-21077436D02*
X10904634Y-21086960D01*
X10904634Y-21086960D02*
X10885586Y-21096484D01*
X10885586Y-21096484D02*
X10866539Y-21096484D01*
X10866539Y-21096484D02*
X10847491Y-21086960D01*
X10847491Y-21086960D02*
X10837967Y-21077436D01*
X10837967Y-21077436D02*
X10828444Y-21058389D01*
X10828444Y-21058389D02*
X10818920Y-21020293D01*
X10818920Y-21020293D02*
X10818920Y-20972674D01*
X10818920Y-20972674D02*
X10828444Y-20934579D01*
X10828444Y-20934579D02*
X10837967Y-20915531D01*
X10837967Y-20915531D02*
X10847491Y-20906008D01*
X10847491Y-20906008D02*
X10866539Y-20896484D01*
X11018920Y-21096484D02*
X11018920Y-20963150D01*
X11018920Y-20982198D02*
X11028444Y-20972674D01*
X11028444Y-20972674D02*
X11047491Y-20963150D01*
X11047491Y-20963150D02*
X11076063Y-20963150D01*
X11076063Y-20963150D02*
X11095110Y-20972674D01*
X11095110Y-20972674D02*
X11104634Y-20991722D01*
X11104634Y-20991722D02*
X11104634Y-21096484D01*
X11104634Y-20991722D02*
X11114158Y-20972674D01*
X11114158Y-20972674D02*
X11133205Y-20963150D01*
X11133205Y-20963150D02*
X11161777Y-20963150D01*
X11161777Y-20963150D02*
X11180825Y-20972674D01*
X11180825Y-20972674D02*
X11190348Y-20991722D01*
X11190348Y-20991722D02*
X11190348Y-21096484D01*
X11285586Y-21096484D02*
X11285586Y-20963150D01*
X11285586Y-20982198D02*
X11295110Y-20972674D01*
X11295110Y-20972674D02*
X11314158Y-20963150D01*
X11314158Y-20963150D02*
X11342729Y-20963150D01*
X11342729Y-20963150D02*
X11361777Y-20972674D01*
X11361777Y-20972674D02*
X11371301Y-20991722D01*
X11371301Y-20991722D02*
X11371301Y-21096484D01*
X11371301Y-20991722D02*
X11380824Y-20972674D01*
X11380824Y-20972674D02*
X11399872Y-20963150D01*
X11399872Y-20963150D02*
X11428443Y-20963150D01*
X11428443Y-20963150D02*
X11447491Y-20972674D01*
X11447491Y-20972674D02*
X11457015Y-20991722D01*
X11457015Y-20991722D02*
X11457015Y-21096484D01*
X11847491Y-20886960D02*
X11676063Y-21144103D01*
X12104634Y-20896484D02*
X12123682Y-20896484D01*
X12123682Y-20896484D02*
X12142729Y-20906008D01*
X12142729Y-20906008D02*
X12152253Y-20915531D01*
X12152253Y-20915531D02*
X12161777Y-20934579D01*
X12161777Y-20934579D02*
X12171301Y-20972674D01*
X12171301Y-20972674D02*
X12171301Y-21020293D01*
X12171301Y-21020293D02*
X12161777Y-21058389D01*
X12161777Y-21058389D02*
X12152253Y-21077436D01*
X12152253Y-21077436D02*
X12142729Y-21086960D01*
X12142729Y-21086960D02*
X12123682Y-21096484D01*
X12123682Y-21096484D02*
X12104634Y-21096484D01*
X12104634Y-21096484D02*
X12085586Y-21086960D01*
X12085586Y-21086960D02*
X12076063Y-21077436D01*
X12076063Y-21077436D02*
X12066539Y-21058389D01*
X12066539Y-21058389D02*
X12057015Y-21020293D01*
X12057015Y-21020293D02*
X12057015Y-20972674D01*
X12057015Y-20972674D02*
X12066539Y-20934579D01*
X12066539Y-20934579D02*
X12076063Y-20915531D01*
X12076063Y-20915531D02*
X12085586Y-20906008D01*
X12085586Y-20906008D02*
X12104634Y-20896484D01*
X12257015Y-21077436D02*
X12266539Y-21086960D01*
X12266539Y-21086960D02*
X12257015Y-21096484D01*
X12257015Y-21096484D02*
X12247491Y-21086960D01*
X12247491Y-21086960D02*
X12257015Y-21077436D01*
X12257015Y-21077436D02*
X12257015Y-21096484D01*
X12390348Y-20896484D02*
X12409396Y-20896484D01*
X12409396Y-20896484D02*
X12428444Y-20906008D01*
X12428444Y-20906008D02*
X12437967Y-20915531D01*
X12437967Y-20915531D02*
X12447491Y-20934579D01*
X12447491Y-20934579D02*
X12457015Y-20972674D01*
X12457015Y-20972674D02*
X12457015Y-21020293D01*
X12457015Y-21020293D02*
X12447491Y-21058389D01*
X12447491Y-21058389D02*
X12437967Y-21077436D01*
X12437967Y-21077436D02*
X12428444Y-21086960D01*
X12428444Y-21086960D02*
X12409396Y-21096484D01*
X12409396Y-21096484D02*
X12390348Y-21096484D01*
X12390348Y-21096484D02*
X12371301Y-21086960D01*
X12371301Y-21086960D02*
X12361777Y-21077436D01*
X12361777Y-21077436D02*
X12352253Y-21058389D01*
X12352253Y-21058389D02*
X12342729Y-21020293D01*
X12342729Y-21020293D02*
X12342729Y-20972674D01*
X12342729Y-20972674D02*
X12352253Y-20934579D01*
X12352253Y-20934579D02*
X12361777Y-20915531D01*
X12361777Y-20915531D02*
X12371301Y-20906008D01*
X12371301Y-20906008D02*
X12390348Y-20896484D01*
X12628444Y-20963150D02*
X12628444Y-21096484D01*
X12580825Y-20886960D02*
X12533206Y-21029817D01*
X12533206Y-21029817D02*
X12657015Y-21029817D01*
X12714158Y-20896484D02*
X12837967Y-20896484D01*
X12837967Y-20896484D02*
X12771301Y-20972674D01*
X12771301Y-20972674D02*
X12799872Y-20972674D01*
X12799872Y-20972674D02*
X12818920Y-20982198D01*
X12818920Y-20982198D02*
X12828444Y-20991722D01*
X12828444Y-20991722D02*
X12837967Y-21010770D01*
X12837967Y-21010770D02*
X12837967Y-21058389D01*
X12837967Y-21058389D02*
X12828444Y-21077436D01*
X12828444Y-21077436D02*
X12818920Y-21086960D01*
X12818920Y-21086960D02*
X12799872Y-21096484D01*
X12799872Y-21096484D02*
X12742729Y-21096484D01*
X12742729Y-21096484D02*
X12723682Y-21086960D01*
X12723682Y-21086960D02*
X12714158Y-21077436D01*
X12904634Y-20896484D02*
X13028444Y-20896484D01*
X13028444Y-20896484D02*
X12961777Y-20972674D01*
X12961777Y-20972674D02*
X12990348Y-20972674D01*
X12990348Y-20972674D02*
X13009396Y-20982198D01*
X13009396Y-20982198D02*
X13018920Y-20991722D01*
X13018920Y-20991722D02*
X13028444Y-21010770D01*
X13028444Y-21010770D02*
X13028444Y-21058389D01*
X13028444Y-21058389D02*
X13018920Y-21077436D01*
X13018920Y-21077436D02*
X13009396Y-21086960D01*
X13009396Y-21086960D02*
X12990348Y-21096484D01*
X12990348Y-21096484D02*
X12933206Y-21096484D01*
X12933206Y-21096484D02*
X12914158Y-21086960D01*
X12914158Y-21086960D02*
X12904634Y-21077436D01*
X13104634Y-20896484D02*
X13104634Y-20934579D01*
X13180825Y-20896484D02*
X13180825Y-20934579D01*
X13476063Y-21172674D02*
X13466539Y-21163150D01*
X13466539Y-21163150D02*
X13447491Y-21134579D01*
X13447491Y-21134579D02*
X13437968Y-21115531D01*
X13437968Y-21115531D02*
X13428444Y-21086960D01*
X13428444Y-21086960D02*
X13418920Y-21039341D01*
X13418920Y-21039341D02*
X13418920Y-21001246D01*
X13418920Y-21001246D02*
X13428444Y-20953627D01*
X13428444Y-20953627D02*
X13437968Y-20925055D01*
X13437968Y-20925055D02*
X13447491Y-20906008D01*
X13447491Y-20906008D02*
X13466539Y-20877436D01*
X13466539Y-20877436D02*
X13476063Y-20867912D01*
X13637968Y-20963150D02*
X13637968Y-21096484D01*
X13590348Y-20886960D02*
X13542729Y-21029817D01*
X13542729Y-21029817D02*
X13666539Y-21029817D01*
X13895110Y-21096484D02*
X13895110Y-20896484D01*
X13980825Y-21096484D02*
X13980825Y-20991722D01*
X13980825Y-20991722D02*
X13971301Y-20972674D01*
X13971301Y-20972674D02*
X13952253Y-20963150D01*
X13952253Y-20963150D02*
X13923682Y-20963150D01*
X13923682Y-20963150D02*
X13904634Y-20972674D01*
X13904634Y-20972674D02*
X13895110Y-20982198D01*
X14104634Y-21096484D02*
X14085587Y-21086960D01*
X14085587Y-21086960D02*
X14076063Y-21077436D01*
X14076063Y-21077436D02*
X14066539Y-21058389D01*
X14066539Y-21058389D02*
X14066539Y-21001246D01*
X14066539Y-21001246D02*
X14076063Y-20982198D01*
X14076063Y-20982198D02*
X14085587Y-20972674D01*
X14085587Y-20972674D02*
X14104634Y-20963150D01*
X14104634Y-20963150D02*
X14133206Y-20963150D01*
X14133206Y-20963150D02*
X14152253Y-20972674D01*
X14152253Y-20972674D02*
X14161777Y-20982198D01*
X14161777Y-20982198D02*
X14171301Y-21001246D01*
X14171301Y-21001246D02*
X14171301Y-21058389D01*
X14171301Y-21058389D02*
X14161777Y-21077436D01*
X14161777Y-21077436D02*
X14152253Y-21086960D01*
X14152253Y-21086960D02*
X14133206Y-21096484D01*
X14133206Y-21096484D02*
X14104634Y-21096484D01*
X14285587Y-21096484D02*
X14266539Y-21086960D01*
X14266539Y-21086960D02*
X14257015Y-21067912D01*
X14257015Y-21067912D02*
X14257015Y-20896484D01*
X14437968Y-21086960D02*
X14418920Y-21096484D01*
X14418920Y-21096484D02*
X14380825Y-21096484D01*
X14380825Y-21096484D02*
X14361777Y-21086960D01*
X14361777Y-21086960D02*
X14352253Y-21067912D01*
X14352253Y-21067912D02*
X14352253Y-20991722D01*
X14352253Y-20991722D02*
X14361777Y-20972674D01*
X14361777Y-20972674D02*
X14380825Y-20963150D01*
X14380825Y-20963150D02*
X14418920Y-20963150D01*
X14418920Y-20963150D02*
X14437968Y-20972674D01*
X14437968Y-20972674D02*
X14447491Y-20991722D01*
X14447491Y-20991722D02*
X14447491Y-21010770D01*
X14447491Y-21010770D02*
X14352253Y-21029817D01*
X14523682Y-21086960D02*
X14542730Y-21096484D01*
X14542730Y-21096484D02*
X14580825Y-21096484D01*
X14580825Y-21096484D02*
X14599872Y-21086960D01*
X14599872Y-21086960D02*
X14609396Y-21067912D01*
X14609396Y-21067912D02*
X14609396Y-21058389D01*
X14609396Y-21058389D02*
X14599872Y-21039341D01*
X14599872Y-21039341D02*
X14580825Y-21029817D01*
X14580825Y-21029817D02*
X14552253Y-21029817D01*
X14552253Y-21029817D02*
X14533206Y-21020293D01*
X14533206Y-21020293D02*
X14523682Y-21001246D01*
X14523682Y-21001246D02*
X14523682Y-20991722D01*
X14523682Y-20991722D02*
X14533206Y-20972674D01*
X14533206Y-20972674D02*
X14552253Y-20963150D01*
X14552253Y-20963150D02*
X14580825Y-20963150D01*
X14580825Y-20963150D02*
X14599872Y-20972674D01*
X14676063Y-21172674D02*
X14685587Y-21163150D01*
X14685587Y-21163150D02*
X14704634Y-21134579D01*
X14704634Y-21134579D02*
X14714158Y-21115531D01*
X14714158Y-21115531D02*
X14723682Y-21086960D01*
X14723682Y-21086960D02*
X14733206Y-21039341D01*
X14733206Y-21039341D02*
X14733206Y-21001246D01*
X14733206Y-21001246D02*
X14723682Y-20953627D01*
X14723682Y-20953627D02*
X14714158Y-20925055D01*
X14714158Y-20925055D02*
X14704634Y-20906008D01*
X14704634Y-20906008D02*
X14685587Y-20877436D01*
X14685587Y-20877436D02*
X14676063Y-20867912D01*
D14*
X9751000Y-21194000D02*
X9901000Y-21344000D01*
X9901000Y-21194000D02*
X9751000Y-21344000D01*
X9901000Y-21269000D02*
G75*
G03*
X9901000Y-21269000I-75000J0D01*
G01*
D11*
X10266539Y-21360484D02*
X10152253Y-21360484D01*
X10209396Y-21360484D02*
X10209396Y-21160484D01*
X10209396Y-21160484D02*
X10190348Y-21189055D01*
X10190348Y-21189055D02*
X10171301Y-21208103D01*
X10171301Y-21208103D02*
X10152253Y-21217627D01*
X10352253Y-21341436D02*
X10361777Y-21350960D01*
X10361777Y-21350960D02*
X10352253Y-21360484D01*
X10352253Y-21360484D02*
X10342729Y-21350960D01*
X10342729Y-21350960D02*
X10352253Y-21341436D01*
X10352253Y-21341436D02*
X10352253Y-21360484D01*
X10542729Y-21160484D02*
X10447491Y-21160484D01*
X10447491Y-21160484D02*
X10437967Y-21255722D01*
X10437967Y-21255722D02*
X10447491Y-21246198D01*
X10447491Y-21246198D02*
X10466539Y-21236674D01*
X10466539Y-21236674D02*
X10514158Y-21236674D01*
X10514158Y-21236674D02*
X10533205Y-21246198D01*
X10533205Y-21246198D02*
X10542729Y-21255722D01*
X10542729Y-21255722D02*
X10552253Y-21274770D01*
X10552253Y-21274770D02*
X10552253Y-21322389D01*
X10552253Y-21322389D02*
X10542729Y-21341436D01*
X10542729Y-21341436D02*
X10533205Y-21350960D01*
X10533205Y-21350960D02*
X10514158Y-21360484D01*
X10514158Y-21360484D02*
X10466539Y-21360484D01*
X10466539Y-21360484D02*
X10447491Y-21350960D01*
X10447491Y-21350960D02*
X10437967Y-21341436D01*
X10676063Y-21160484D02*
X10695110Y-21160484D01*
X10695110Y-21160484D02*
X10714158Y-21170008D01*
X10714158Y-21170008D02*
X10723682Y-21179531D01*
X10723682Y-21179531D02*
X10733205Y-21198579D01*
X10733205Y-21198579D02*
X10742729Y-21236674D01*
X10742729Y-21236674D02*
X10742729Y-21284293D01*
X10742729Y-21284293D02*
X10733205Y-21322389D01*
X10733205Y-21322389D02*
X10723682Y-21341436D01*
X10723682Y-21341436D02*
X10714158Y-21350960D01*
X10714158Y-21350960D02*
X10695110Y-21360484D01*
X10695110Y-21360484D02*
X10676063Y-21360484D01*
X10676063Y-21360484D02*
X10657015Y-21350960D01*
X10657015Y-21350960D02*
X10647491Y-21341436D01*
X10647491Y-21341436D02*
X10637967Y-21322389D01*
X10637967Y-21322389D02*
X10628444Y-21284293D01*
X10628444Y-21284293D02*
X10628444Y-21236674D01*
X10628444Y-21236674D02*
X10637967Y-21198579D01*
X10637967Y-21198579D02*
X10647491Y-21179531D01*
X10647491Y-21179531D02*
X10657015Y-21170008D01*
X10657015Y-21170008D02*
X10676063Y-21160484D01*
X10866539Y-21160484D02*
X10885586Y-21160484D01*
X10885586Y-21160484D02*
X10904634Y-21170008D01*
X10904634Y-21170008D02*
X10914158Y-21179531D01*
X10914158Y-21179531D02*
X10923682Y-21198579D01*
X10923682Y-21198579D02*
X10933205Y-21236674D01*
X10933205Y-21236674D02*
X10933205Y-21284293D01*
X10933205Y-21284293D02*
X10923682Y-21322389D01*
X10923682Y-21322389D02*
X10914158Y-21341436D01*
X10914158Y-21341436D02*
X10904634Y-21350960D01*
X10904634Y-21350960D02*
X10885586Y-21360484D01*
X10885586Y-21360484D02*
X10866539Y-21360484D01*
X10866539Y-21360484D02*
X10847491Y-21350960D01*
X10847491Y-21350960D02*
X10837967Y-21341436D01*
X10837967Y-21341436D02*
X10828444Y-21322389D01*
X10828444Y-21322389D02*
X10818920Y-21284293D01*
X10818920Y-21284293D02*
X10818920Y-21236674D01*
X10818920Y-21236674D02*
X10828444Y-21198579D01*
X10828444Y-21198579D02*
X10837967Y-21179531D01*
X10837967Y-21179531D02*
X10847491Y-21170008D01*
X10847491Y-21170008D02*
X10866539Y-21160484D01*
X11018920Y-21360484D02*
X11018920Y-21227150D01*
X11018920Y-21246198D02*
X11028444Y-21236674D01*
X11028444Y-21236674D02*
X11047491Y-21227150D01*
X11047491Y-21227150D02*
X11076063Y-21227150D01*
X11076063Y-21227150D02*
X11095110Y-21236674D01*
X11095110Y-21236674D02*
X11104634Y-21255722D01*
X11104634Y-21255722D02*
X11104634Y-21360484D01*
X11104634Y-21255722D02*
X11114158Y-21236674D01*
X11114158Y-21236674D02*
X11133205Y-21227150D01*
X11133205Y-21227150D02*
X11161777Y-21227150D01*
X11161777Y-21227150D02*
X11180825Y-21236674D01*
X11180825Y-21236674D02*
X11190348Y-21255722D01*
X11190348Y-21255722D02*
X11190348Y-21360484D01*
X11285586Y-21360484D02*
X11285586Y-21227150D01*
X11285586Y-21246198D02*
X11295110Y-21236674D01*
X11295110Y-21236674D02*
X11314158Y-21227150D01*
X11314158Y-21227150D02*
X11342729Y-21227150D01*
X11342729Y-21227150D02*
X11361777Y-21236674D01*
X11361777Y-21236674D02*
X11371301Y-21255722D01*
X11371301Y-21255722D02*
X11371301Y-21360484D01*
X11371301Y-21255722D02*
X11380824Y-21236674D01*
X11380824Y-21236674D02*
X11399872Y-21227150D01*
X11399872Y-21227150D02*
X11428443Y-21227150D01*
X11428443Y-21227150D02*
X11447491Y-21236674D01*
X11447491Y-21236674D02*
X11457015Y-21255722D01*
X11457015Y-21255722D02*
X11457015Y-21360484D01*
X11847491Y-21150960D02*
X11676063Y-21408103D01*
X12104634Y-21160484D02*
X12123682Y-21160484D01*
X12123682Y-21160484D02*
X12142729Y-21170008D01*
X12142729Y-21170008D02*
X12152253Y-21179531D01*
X12152253Y-21179531D02*
X12161777Y-21198579D01*
X12161777Y-21198579D02*
X12171301Y-21236674D01*
X12171301Y-21236674D02*
X12171301Y-21284293D01*
X12171301Y-21284293D02*
X12161777Y-21322389D01*
X12161777Y-21322389D02*
X12152253Y-21341436D01*
X12152253Y-21341436D02*
X12142729Y-21350960D01*
X12142729Y-21350960D02*
X12123682Y-21360484D01*
X12123682Y-21360484D02*
X12104634Y-21360484D01*
X12104634Y-21360484D02*
X12085586Y-21350960D01*
X12085586Y-21350960D02*
X12076063Y-21341436D01*
X12076063Y-21341436D02*
X12066539Y-21322389D01*
X12066539Y-21322389D02*
X12057015Y-21284293D01*
X12057015Y-21284293D02*
X12057015Y-21236674D01*
X12057015Y-21236674D02*
X12066539Y-21198579D01*
X12066539Y-21198579D02*
X12076063Y-21179531D01*
X12076063Y-21179531D02*
X12085586Y-21170008D01*
X12085586Y-21170008D02*
X12104634Y-21160484D01*
X12257015Y-21341436D02*
X12266539Y-21350960D01*
X12266539Y-21350960D02*
X12257015Y-21360484D01*
X12257015Y-21360484D02*
X12247491Y-21350960D01*
X12247491Y-21350960D02*
X12257015Y-21341436D01*
X12257015Y-21341436D02*
X12257015Y-21360484D01*
X12390348Y-21160484D02*
X12409396Y-21160484D01*
X12409396Y-21160484D02*
X12428444Y-21170008D01*
X12428444Y-21170008D02*
X12437967Y-21179531D01*
X12437967Y-21179531D02*
X12447491Y-21198579D01*
X12447491Y-21198579D02*
X12457015Y-21236674D01*
X12457015Y-21236674D02*
X12457015Y-21284293D01*
X12457015Y-21284293D02*
X12447491Y-21322389D01*
X12447491Y-21322389D02*
X12437967Y-21341436D01*
X12437967Y-21341436D02*
X12428444Y-21350960D01*
X12428444Y-21350960D02*
X12409396Y-21360484D01*
X12409396Y-21360484D02*
X12390348Y-21360484D01*
X12390348Y-21360484D02*
X12371301Y-21350960D01*
X12371301Y-21350960D02*
X12361777Y-21341436D01*
X12361777Y-21341436D02*
X12352253Y-21322389D01*
X12352253Y-21322389D02*
X12342729Y-21284293D01*
X12342729Y-21284293D02*
X12342729Y-21236674D01*
X12342729Y-21236674D02*
X12352253Y-21198579D01*
X12352253Y-21198579D02*
X12361777Y-21179531D01*
X12361777Y-21179531D02*
X12371301Y-21170008D01*
X12371301Y-21170008D02*
X12390348Y-21160484D01*
X12637967Y-21160484D02*
X12542729Y-21160484D01*
X12542729Y-21160484D02*
X12533206Y-21255722D01*
X12533206Y-21255722D02*
X12542729Y-21246198D01*
X12542729Y-21246198D02*
X12561777Y-21236674D01*
X12561777Y-21236674D02*
X12609396Y-21236674D01*
X12609396Y-21236674D02*
X12628444Y-21246198D01*
X12628444Y-21246198D02*
X12637967Y-21255722D01*
X12637967Y-21255722D02*
X12647491Y-21274770D01*
X12647491Y-21274770D02*
X12647491Y-21322389D01*
X12647491Y-21322389D02*
X12637967Y-21341436D01*
X12637967Y-21341436D02*
X12628444Y-21350960D01*
X12628444Y-21350960D02*
X12609396Y-21360484D01*
X12609396Y-21360484D02*
X12561777Y-21360484D01*
X12561777Y-21360484D02*
X12542729Y-21350960D01*
X12542729Y-21350960D02*
X12533206Y-21341436D01*
X12742729Y-21360484D02*
X12780825Y-21360484D01*
X12780825Y-21360484D02*
X12799872Y-21350960D01*
X12799872Y-21350960D02*
X12809396Y-21341436D01*
X12809396Y-21341436D02*
X12828444Y-21312865D01*
X12828444Y-21312865D02*
X12837967Y-21274770D01*
X12837967Y-21274770D02*
X12837967Y-21198579D01*
X12837967Y-21198579D02*
X12828444Y-21179531D01*
X12828444Y-21179531D02*
X12818920Y-21170008D01*
X12818920Y-21170008D02*
X12799872Y-21160484D01*
X12799872Y-21160484D02*
X12761777Y-21160484D01*
X12761777Y-21160484D02*
X12742729Y-21170008D01*
X12742729Y-21170008D02*
X12733206Y-21179531D01*
X12733206Y-21179531D02*
X12723682Y-21198579D01*
X12723682Y-21198579D02*
X12723682Y-21246198D01*
X12723682Y-21246198D02*
X12733206Y-21265246D01*
X12733206Y-21265246D02*
X12742729Y-21274770D01*
X12742729Y-21274770D02*
X12761777Y-21284293D01*
X12761777Y-21284293D02*
X12799872Y-21284293D01*
X12799872Y-21284293D02*
X12818920Y-21274770D01*
X12818920Y-21274770D02*
X12828444Y-21265246D01*
X12828444Y-21265246D02*
X12837967Y-21246198D01*
X13028444Y-21360484D02*
X12914158Y-21360484D01*
X12971301Y-21360484D02*
X12971301Y-21160484D01*
X12971301Y-21160484D02*
X12952253Y-21189055D01*
X12952253Y-21189055D02*
X12933206Y-21208103D01*
X12933206Y-21208103D02*
X12914158Y-21217627D01*
X13104634Y-21160484D02*
X13104634Y-21198579D01*
X13180825Y-21160484D02*
X13180825Y-21198579D01*
X13476063Y-21436674D02*
X13466539Y-21427150D01*
X13466539Y-21427150D02*
X13447491Y-21398579D01*
X13447491Y-21398579D02*
X13437968Y-21379531D01*
X13437968Y-21379531D02*
X13428444Y-21350960D01*
X13428444Y-21350960D02*
X13418920Y-21303341D01*
X13418920Y-21303341D02*
X13418920Y-21265246D01*
X13418920Y-21265246D02*
X13428444Y-21217627D01*
X13428444Y-21217627D02*
X13437968Y-21189055D01*
X13437968Y-21189055D02*
X13447491Y-21170008D01*
X13447491Y-21170008D02*
X13466539Y-21141436D01*
X13466539Y-21141436D02*
X13476063Y-21131912D01*
X13657015Y-21360484D02*
X13542729Y-21360484D01*
X13599872Y-21360484D02*
X13599872Y-21160484D01*
X13599872Y-21160484D02*
X13580825Y-21189055D01*
X13580825Y-21189055D02*
X13561777Y-21208103D01*
X13561777Y-21208103D02*
X13542729Y-21217627D01*
X13895110Y-21360484D02*
X13895110Y-21160484D01*
X13980825Y-21360484D02*
X13980825Y-21255722D01*
X13980825Y-21255722D02*
X13971301Y-21236674D01*
X13971301Y-21236674D02*
X13952253Y-21227150D01*
X13952253Y-21227150D02*
X13923682Y-21227150D01*
X13923682Y-21227150D02*
X13904634Y-21236674D01*
X13904634Y-21236674D02*
X13895110Y-21246198D01*
X14104634Y-21360484D02*
X14085587Y-21350960D01*
X14085587Y-21350960D02*
X14076063Y-21341436D01*
X14076063Y-21341436D02*
X14066539Y-21322389D01*
X14066539Y-21322389D02*
X14066539Y-21265246D01*
X14066539Y-21265246D02*
X14076063Y-21246198D01*
X14076063Y-21246198D02*
X14085587Y-21236674D01*
X14085587Y-21236674D02*
X14104634Y-21227150D01*
X14104634Y-21227150D02*
X14133206Y-21227150D01*
X14133206Y-21227150D02*
X14152253Y-21236674D01*
X14152253Y-21236674D02*
X14161777Y-21246198D01*
X14161777Y-21246198D02*
X14171301Y-21265246D01*
X14171301Y-21265246D02*
X14171301Y-21322389D01*
X14171301Y-21322389D02*
X14161777Y-21341436D01*
X14161777Y-21341436D02*
X14152253Y-21350960D01*
X14152253Y-21350960D02*
X14133206Y-21360484D01*
X14133206Y-21360484D02*
X14104634Y-21360484D01*
X14285587Y-21360484D02*
X14266539Y-21350960D01*
X14266539Y-21350960D02*
X14257015Y-21331912D01*
X14257015Y-21331912D02*
X14257015Y-21160484D01*
X14437968Y-21350960D02*
X14418920Y-21360484D01*
X14418920Y-21360484D02*
X14380825Y-21360484D01*
X14380825Y-21360484D02*
X14361777Y-21350960D01*
X14361777Y-21350960D02*
X14352253Y-21331912D01*
X14352253Y-21331912D02*
X14352253Y-21255722D01*
X14352253Y-21255722D02*
X14361777Y-21236674D01*
X14361777Y-21236674D02*
X14380825Y-21227150D01*
X14380825Y-21227150D02*
X14418920Y-21227150D01*
X14418920Y-21227150D02*
X14437968Y-21236674D01*
X14437968Y-21236674D02*
X14447491Y-21255722D01*
X14447491Y-21255722D02*
X14447491Y-21274770D01*
X14447491Y-21274770D02*
X14352253Y-21293817D01*
X14514158Y-21436674D02*
X14523682Y-21427150D01*
X14523682Y-21427150D02*
X14542730Y-21398579D01*
X14542730Y-21398579D02*
X14552253Y-21379531D01*
X14552253Y-21379531D02*
X14561777Y-21350960D01*
X14561777Y-21350960D02*
X14571301Y-21303341D01*
X14571301Y-21303341D02*
X14571301Y-21265246D01*
X14571301Y-21265246D02*
X14561777Y-21217627D01*
X14561777Y-21217627D02*
X14552253Y-21189055D01*
X14552253Y-21189055D02*
X14542730Y-21170008D01*
X14542730Y-21170008D02*
X14523682Y-21141436D01*
X14523682Y-21141436D02*
X14514158Y-21131912D01*
D15*
X9749000Y-21463000D02*
X9901000Y-21615000D01*
X9901000Y-21463000D02*
X9749000Y-21615000D01*
X9825000Y-21463000D02*
X9825000Y-21615000D01*
X9749000Y-21539000D02*
X9901000Y-21539000D01*
D11*
X10266539Y-21630484D02*
X10152253Y-21630484D01*
X10209396Y-21630484D02*
X10209396Y-21430484D01*
X10209396Y-21430484D02*
X10190348Y-21459055D01*
X10190348Y-21459055D02*
X10171301Y-21478103D01*
X10171301Y-21478103D02*
X10152253Y-21487627D01*
X10352253Y-21611436D02*
X10361777Y-21620960D01*
X10361777Y-21620960D02*
X10352253Y-21630484D01*
X10352253Y-21630484D02*
X10342729Y-21620960D01*
X10342729Y-21620960D02*
X10352253Y-21611436D01*
X10352253Y-21611436D02*
X10352253Y-21630484D01*
X10542729Y-21430484D02*
X10447491Y-21430484D01*
X10447491Y-21430484D02*
X10437967Y-21525722D01*
X10437967Y-21525722D02*
X10447491Y-21516198D01*
X10447491Y-21516198D02*
X10466539Y-21506674D01*
X10466539Y-21506674D02*
X10514158Y-21506674D01*
X10514158Y-21506674D02*
X10533205Y-21516198D01*
X10533205Y-21516198D02*
X10542729Y-21525722D01*
X10542729Y-21525722D02*
X10552253Y-21544770D01*
X10552253Y-21544770D02*
X10552253Y-21592389D01*
X10552253Y-21592389D02*
X10542729Y-21611436D01*
X10542729Y-21611436D02*
X10533205Y-21620960D01*
X10533205Y-21620960D02*
X10514158Y-21630484D01*
X10514158Y-21630484D02*
X10466539Y-21630484D01*
X10466539Y-21630484D02*
X10447491Y-21620960D01*
X10447491Y-21620960D02*
X10437967Y-21611436D01*
X10628444Y-21449531D02*
X10637967Y-21440008D01*
X10637967Y-21440008D02*
X10657015Y-21430484D01*
X10657015Y-21430484D02*
X10704634Y-21430484D01*
X10704634Y-21430484D02*
X10723682Y-21440008D01*
X10723682Y-21440008D02*
X10733205Y-21449531D01*
X10733205Y-21449531D02*
X10742729Y-21468579D01*
X10742729Y-21468579D02*
X10742729Y-21487627D01*
X10742729Y-21487627D02*
X10733205Y-21516198D01*
X10733205Y-21516198D02*
X10618920Y-21630484D01*
X10618920Y-21630484D02*
X10742729Y-21630484D01*
X10866539Y-21430484D02*
X10885586Y-21430484D01*
X10885586Y-21430484D02*
X10904634Y-21440008D01*
X10904634Y-21440008D02*
X10914158Y-21449531D01*
X10914158Y-21449531D02*
X10923682Y-21468579D01*
X10923682Y-21468579D02*
X10933205Y-21506674D01*
X10933205Y-21506674D02*
X10933205Y-21554293D01*
X10933205Y-21554293D02*
X10923682Y-21592389D01*
X10923682Y-21592389D02*
X10914158Y-21611436D01*
X10914158Y-21611436D02*
X10904634Y-21620960D01*
X10904634Y-21620960D02*
X10885586Y-21630484D01*
X10885586Y-21630484D02*
X10866539Y-21630484D01*
X10866539Y-21630484D02*
X10847491Y-21620960D01*
X10847491Y-21620960D02*
X10837967Y-21611436D01*
X10837967Y-21611436D02*
X10828444Y-21592389D01*
X10828444Y-21592389D02*
X10818920Y-21554293D01*
X10818920Y-21554293D02*
X10818920Y-21506674D01*
X10818920Y-21506674D02*
X10828444Y-21468579D01*
X10828444Y-21468579D02*
X10837967Y-21449531D01*
X10837967Y-21449531D02*
X10847491Y-21440008D01*
X10847491Y-21440008D02*
X10866539Y-21430484D01*
X11018920Y-21630484D02*
X11018920Y-21497150D01*
X11018920Y-21516198D02*
X11028444Y-21506674D01*
X11028444Y-21506674D02*
X11047491Y-21497150D01*
X11047491Y-21497150D02*
X11076063Y-21497150D01*
X11076063Y-21497150D02*
X11095110Y-21506674D01*
X11095110Y-21506674D02*
X11104634Y-21525722D01*
X11104634Y-21525722D02*
X11104634Y-21630484D01*
X11104634Y-21525722D02*
X11114158Y-21506674D01*
X11114158Y-21506674D02*
X11133205Y-21497150D01*
X11133205Y-21497150D02*
X11161777Y-21497150D01*
X11161777Y-21497150D02*
X11180825Y-21506674D01*
X11180825Y-21506674D02*
X11190348Y-21525722D01*
X11190348Y-21525722D02*
X11190348Y-21630484D01*
X11285586Y-21630484D02*
X11285586Y-21497150D01*
X11285586Y-21516198D02*
X11295110Y-21506674D01*
X11295110Y-21506674D02*
X11314158Y-21497150D01*
X11314158Y-21497150D02*
X11342729Y-21497150D01*
X11342729Y-21497150D02*
X11361777Y-21506674D01*
X11361777Y-21506674D02*
X11371301Y-21525722D01*
X11371301Y-21525722D02*
X11371301Y-21630484D01*
X11371301Y-21525722D02*
X11380824Y-21506674D01*
X11380824Y-21506674D02*
X11399872Y-21497150D01*
X11399872Y-21497150D02*
X11428443Y-21497150D01*
X11428443Y-21497150D02*
X11447491Y-21506674D01*
X11447491Y-21506674D02*
X11457015Y-21525722D01*
X11457015Y-21525722D02*
X11457015Y-21630484D01*
X11847491Y-21420960D02*
X11676063Y-21678103D01*
X12104634Y-21430484D02*
X12123682Y-21430484D01*
X12123682Y-21430484D02*
X12142729Y-21440008D01*
X12142729Y-21440008D02*
X12152253Y-21449531D01*
X12152253Y-21449531D02*
X12161777Y-21468579D01*
X12161777Y-21468579D02*
X12171301Y-21506674D01*
X12171301Y-21506674D02*
X12171301Y-21554293D01*
X12171301Y-21554293D02*
X12161777Y-21592389D01*
X12161777Y-21592389D02*
X12152253Y-21611436D01*
X12152253Y-21611436D02*
X12142729Y-21620960D01*
X12142729Y-21620960D02*
X12123682Y-21630484D01*
X12123682Y-21630484D02*
X12104634Y-21630484D01*
X12104634Y-21630484D02*
X12085586Y-21620960D01*
X12085586Y-21620960D02*
X12076063Y-21611436D01*
X12076063Y-21611436D02*
X12066539Y-21592389D01*
X12066539Y-21592389D02*
X12057015Y-21554293D01*
X12057015Y-21554293D02*
X12057015Y-21506674D01*
X12057015Y-21506674D02*
X12066539Y-21468579D01*
X12066539Y-21468579D02*
X12076063Y-21449531D01*
X12076063Y-21449531D02*
X12085586Y-21440008D01*
X12085586Y-21440008D02*
X12104634Y-21430484D01*
X12257015Y-21611436D02*
X12266539Y-21620960D01*
X12266539Y-21620960D02*
X12257015Y-21630484D01*
X12257015Y-21630484D02*
X12247491Y-21620960D01*
X12247491Y-21620960D02*
X12257015Y-21611436D01*
X12257015Y-21611436D02*
X12257015Y-21630484D01*
X12390348Y-21430484D02*
X12409396Y-21430484D01*
X12409396Y-21430484D02*
X12428444Y-21440008D01*
X12428444Y-21440008D02*
X12437967Y-21449531D01*
X12437967Y-21449531D02*
X12447491Y-21468579D01*
X12447491Y-21468579D02*
X12457015Y-21506674D01*
X12457015Y-21506674D02*
X12457015Y-21554293D01*
X12457015Y-21554293D02*
X12447491Y-21592389D01*
X12447491Y-21592389D02*
X12437967Y-21611436D01*
X12437967Y-21611436D02*
X12428444Y-21620960D01*
X12428444Y-21620960D02*
X12409396Y-21630484D01*
X12409396Y-21630484D02*
X12390348Y-21630484D01*
X12390348Y-21630484D02*
X12371301Y-21620960D01*
X12371301Y-21620960D02*
X12361777Y-21611436D01*
X12361777Y-21611436D02*
X12352253Y-21592389D01*
X12352253Y-21592389D02*
X12342729Y-21554293D01*
X12342729Y-21554293D02*
X12342729Y-21506674D01*
X12342729Y-21506674D02*
X12352253Y-21468579D01*
X12352253Y-21468579D02*
X12361777Y-21449531D01*
X12361777Y-21449531D02*
X12371301Y-21440008D01*
X12371301Y-21440008D02*
X12390348Y-21430484D01*
X12637967Y-21430484D02*
X12542729Y-21430484D01*
X12542729Y-21430484D02*
X12533206Y-21525722D01*
X12533206Y-21525722D02*
X12542729Y-21516198D01*
X12542729Y-21516198D02*
X12561777Y-21506674D01*
X12561777Y-21506674D02*
X12609396Y-21506674D01*
X12609396Y-21506674D02*
X12628444Y-21516198D01*
X12628444Y-21516198D02*
X12637967Y-21525722D01*
X12637967Y-21525722D02*
X12647491Y-21544770D01*
X12647491Y-21544770D02*
X12647491Y-21592389D01*
X12647491Y-21592389D02*
X12637967Y-21611436D01*
X12637967Y-21611436D02*
X12628444Y-21620960D01*
X12628444Y-21620960D02*
X12609396Y-21630484D01*
X12609396Y-21630484D02*
X12561777Y-21630484D01*
X12561777Y-21630484D02*
X12542729Y-21620960D01*
X12542729Y-21620960D02*
X12533206Y-21611436D01*
X12742729Y-21630484D02*
X12780825Y-21630484D01*
X12780825Y-21630484D02*
X12799872Y-21620960D01*
X12799872Y-21620960D02*
X12809396Y-21611436D01*
X12809396Y-21611436D02*
X12828444Y-21582865D01*
X12828444Y-21582865D02*
X12837967Y-21544770D01*
X12837967Y-21544770D02*
X12837967Y-21468579D01*
X12837967Y-21468579D02*
X12828444Y-21449531D01*
X12828444Y-21449531D02*
X12818920Y-21440008D01*
X12818920Y-21440008D02*
X12799872Y-21430484D01*
X12799872Y-21430484D02*
X12761777Y-21430484D01*
X12761777Y-21430484D02*
X12742729Y-21440008D01*
X12742729Y-21440008D02*
X12733206Y-21449531D01*
X12733206Y-21449531D02*
X12723682Y-21468579D01*
X12723682Y-21468579D02*
X12723682Y-21516198D01*
X12723682Y-21516198D02*
X12733206Y-21535246D01*
X12733206Y-21535246D02*
X12742729Y-21544770D01*
X12742729Y-21544770D02*
X12761777Y-21554293D01*
X12761777Y-21554293D02*
X12799872Y-21554293D01*
X12799872Y-21554293D02*
X12818920Y-21544770D01*
X12818920Y-21544770D02*
X12828444Y-21535246D01*
X12828444Y-21535246D02*
X12837967Y-21516198D01*
X12952253Y-21516198D02*
X12933206Y-21506674D01*
X12933206Y-21506674D02*
X12923682Y-21497150D01*
X12923682Y-21497150D02*
X12914158Y-21478103D01*
X12914158Y-21478103D02*
X12914158Y-21468579D01*
X12914158Y-21468579D02*
X12923682Y-21449531D01*
X12923682Y-21449531D02*
X12933206Y-21440008D01*
X12933206Y-21440008D02*
X12952253Y-21430484D01*
X12952253Y-21430484D02*
X12990348Y-21430484D01*
X12990348Y-21430484D02*
X13009396Y-21440008D01*
X13009396Y-21440008D02*
X13018920Y-21449531D01*
X13018920Y-21449531D02*
X13028444Y-21468579D01*
X13028444Y-21468579D02*
X13028444Y-21478103D01*
X13028444Y-21478103D02*
X13018920Y-21497150D01*
X13018920Y-21497150D02*
X13009396Y-21506674D01*
X13009396Y-21506674D02*
X12990348Y-21516198D01*
X12990348Y-21516198D02*
X12952253Y-21516198D01*
X12952253Y-21516198D02*
X12933206Y-21525722D01*
X12933206Y-21525722D02*
X12923682Y-21535246D01*
X12923682Y-21535246D02*
X12914158Y-21554293D01*
X12914158Y-21554293D02*
X12914158Y-21592389D01*
X12914158Y-21592389D02*
X12923682Y-21611436D01*
X12923682Y-21611436D02*
X12933206Y-21620960D01*
X12933206Y-21620960D02*
X12952253Y-21630484D01*
X12952253Y-21630484D02*
X12990348Y-21630484D01*
X12990348Y-21630484D02*
X13009396Y-21620960D01*
X13009396Y-21620960D02*
X13018920Y-21611436D01*
X13018920Y-21611436D02*
X13028444Y-21592389D01*
X13028444Y-21592389D02*
X13028444Y-21554293D01*
X13028444Y-21554293D02*
X13018920Y-21535246D01*
X13018920Y-21535246D02*
X13009396Y-21525722D01*
X13009396Y-21525722D02*
X12990348Y-21516198D01*
X13104634Y-21430484D02*
X13104634Y-21468579D01*
X13180825Y-21430484D02*
X13180825Y-21468579D01*
X13476063Y-21706674D02*
X13466539Y-21697150D01*
X13466539Y-21697150D02*
X13447491Y-21668579D01*
X13447491Y-21668579D02*
X13437968Y-21649531D01*
X13437968Y-21649531D02*
X13428444Y-21620960D01*
X13428444Y-21620960D02*
X13418920Y-21573341D01*
X13418920Y-21573341D02*
X13418920Y-21535246D01*
X13418920Y-21535246D02*
X13428444Y-21487627D01*
X13428444Y-21487627D02*
X13437968Y-21459055D01*
X13437968Y-21459055D02*
X13447491Y-21440008D01*
X13447491Y-21440008D02*
X13466539Y-21411436D01*
X13466539Y-21411436D02*
X13476063Y-21401912D01*
X13542729Y-21449531D02*
X13552253Y-21440008D01*
X13552253Y-21440008D02*
X13571301Y-21430484D01*
X13571301Y-21430484D02*
X13618920Y-21430484D01*
X13618920Y-21430484D02*
X13637968Y-21440008D01*
X13637968Y-21440008D02*
X13647491Y-21449531D01*
X13647491Y-21449531D02*
X13657015Y-21468579D01*
X13657015Y-21468579D02*
X13657015Y-21487627D01*
X13657015Y-21487627D02*
X13647491Y-21516198D01*
X13647491Y-21516198D02*
X13533206Y-21630484D01*
X13533206Y-21630484D02*
X13657015Y-21630484D01*
X13895110Y-21630484D02*
X13895110Y-21430484D01*
X13980825Y-21630484D02*
X13980825Y-21525722D01*
X13980825Y-21525722D02*
X13971301Y-21506674D01*
X13971301Y-21506674D02*
X13952253Y-21497150D01*
X13952253Y-21497150D02*
X13923682Y-21497150D01*
X13923682Y-21497150D02*
X13904634Y-21506674D01*
X13904634Y-21506674D02*
X13895110Y-21516198D01*
X14104634Y-21630484D02*
X14085587Y-21620960D01*
X14085587Y-21620960D02*
X14076063Y-21611436D01*
X14076063Y-21611436D02*
X14066539Y-21592389D01*
X14066539Y-21592389D02*
X14066539Y-21535246D01*
X14066539Y-21535246D02*
X14076063Y-21516198D01*
X14076063Y-21516198D02*
X14085587Y-21506674D01*
X14085587Y-21506674D02*
X14104634Y-21497150D01*
X14104634Y-21497150D02*
X14133206Y-21497150D01*
X14133206Y-21497150D02*
X14152253Y-21506674D01*
X14152253Y-21506674D02*
X14161777Y-21516198D01*
X14161777Y-21516198D02*
X14171301Y-21535246D01*
X14171301Y-21535246D02*
X14171301Y-21592389D01*
X14171301Y-21592389D02*
X14161777Y-21611436D01*
X14161777Y-21611436D02*
X14152253Y-21620960D01*
X14152253Y-21620960D02*
X14133206Y-21630484D01*
X14133206Y-21630484D02*
X14104634Y-21630484D01*
X14285587Y-21630484D02*
X14266539Y-21620960D01*
X14266539Y-21620960D02*
X14257015Y-21601912D01*
X14257015Y-21601912D02*
X14257015Y-21430484D01*
X14437968Y-21620960D02*
X14418920Y-21630484D01*
X14418920Y-21630484D02*
X14380825Y-21630484D01*
X14380825Y-21630484D02*
X14361777Y-21620960D01*
X14361777Y-21620960D02*
X14352253Y-21601912D01*
X14352253Y-21601912D02*
X14352253Y-21525722D01*
X14352253Y-21525722D02*
X14361777Y-21506674D01*
X14361777Y-21506674D02*
X14380825Y-21497150D01*
X14380825Y-21497150D02*
X14418920Y-21497150D01*
X14418920Y-21497150D02*
X14437968Y-21506674D01*
X14437968Y-21506674D02*
X14447491Y-21525722D01*
X14447491Y-21525722D02*
X14447491Y-21544770D01*
X14447491Y-21544770D02*
X14352253Y-21563817D01*
X14523682Y-21620960D02*
X14542730Y-21630484D01*
X14542730Y-21630484D02*
X14580825Y-21630484D01*
X14580825Y-21630484D02*
X14599872Y-21620960D01*
X14599872Y-21620960D02*
X14609396Y-21601912D01*
X14609396Y-21601912D02*
X14609396Y-21592389D01*
X14609396Y-21592389D02*
X14599872Y-21573341D01*
X14599872Y-21573341D02*
X14580825Y-21563817D01*
X14580825Y-21563817D02*
X14552253Y-21563817D01*
X14552253Y-21563817D02*
X14533206Y-21554293D01*
X14533206Y-21554293D02*
X14523682Y-21535246D01*
X14523682Y-21535246D02*
X14523682Y-21525722D01*
X14523682Y-21525722D02*
X14533206Y-21506674D01*
X14533206Y-21506674D02*
X14552253Y-21497150D01*
X14552253Y-21497150D02*
X14580825Y-21497150D01*
X14580825Y-21497150D02*
X14599872Y-21506674D01*
X14676063Y-21706674D02*
X14685587Y-21697150D01*
X14685587Y-21697150D02*
X14704634Y-21668579D01*
X14704634Y-21668579D02*
X14714158Y-21649531D01*
X14714158Y-21649531D02*
X14723682Y-21620960D01*
X14723682Y-21620960D02*
X14733206Y-21573341D01*
X14733206Y-21573341D02*
X14733206Y-21535246D01*
X14733206Y-21535246D02*
X14723682Y-21487627D01*
X14723682Y-21487627D02*
X14714158Y-21459055D01*
X14714158Y-21459055D02*
X14704634Y-21440008D01*
X14704634Y-21440008D02*
X14685587Y-21411436D01*
X14685587Y-21411436D02*
X14676063Y-21401912D01*
D16*
X9731000Y-21726000D02*
X9901000Y-21896000D01*
X9901000Y-21726000D02*
X9731000Y-21896000D01*
X9876105Y-21871105D02*
X9876105Y-21750895D01*
X9755895Y-21750895D01*
X9755895Y-21871105D01*
X9876105Y-21871105D01*
D11*
X10266539Y-21902484D02*
X10152253Y-21902484D01*
X10209396Y-21902484D02*
X10209396Y-21702484D01*
X10209396Y-21702484D02*
X10190348Y-21731055D01*
X10190348Y-21731055D02*
X10171301Y-21750103D01*
X10171301Y-21750103D02*
X10152253Y-21759627D01*
X10352253Y-21883436D02*
X10361777Y-21892960D01*
X10361777Y-21892960D02*
X10352253Y-21902484D01*
X10352253Y-21902484D02*
X10342729Y-21892960D01*
X10342729Y-21892960D02*
X10352253Y-21883436D01*
X10352253Y-21883436D02*
X10352253Y-21902484D01*
X10428444Y-21702484D02*
X10561777Y-21702484D01*
X10561777Y-21702484D02*
X10476063Y-21902484D01*
X10676063Y-21702484D02*
X10695110Y-21702484D01*
X10695110Y-21702484D02*
X10714158Y-21712008D01*
X10714158Y-21712008D02*
X10723682Y-21721531D01*
X10723682Y-21721531D02*
X10733205Y-21740579D01*
X10733205Y-21740579D02*
X10742729Y-21778674D01*
X10742729Y-21778674D02*
X10742729Y-21826293D01*
X10742729Y-21826293D02*
X10733205Y-21864389D01*
X10733205Y-21864389D02*
X10723682Y-21883436D01*
X10723682Y-21883436D02*
X10714158Y-21892960D01*
X10714158Y-21892960D02*
X10695110Y-21902484D01*
X10695110Y-21902484D02*
X10676063Y-21902484D01*
X10676063Y-21902484D02*
X10657015Y-21892960D01*
X10657015Y-21892960D02*
X10647491Y-21883436D01*
X10647491Y-21883436D02*
X10637967Y-21864389D01*
X10637967Y-21864389D02*
X10628444Y-21826293D01*
X10628444Y-21826293D02*
X10628444Y-21778674D01*
X10628444Y-21778674D02*
X10637967Y-21740579D01*
X10637967Y-21740579D02*
X10647491Y-21721531D01*
X10647491Y-21721531D02*
X10657015Y-21712008D01*
X10657015Y-21712008D02*
X10676063Y-21702484D01*
X10866539Y-21702484D02*
X10885586Y-21702484D01*
X10885586Y-21702484D02*
X10904634Y-21712008D01*
X10904634Y-21712008D02*
X10914158Y-21721531D01*
X10914158Y-21721531D02*
X10923682Y-21740579D01*
X10923682Y-21740579D02*
X10933205Y-21778674D01*
X10933205Y-21778674D02*
X10933205Y-21826293D01*
X10933205Y-21826293D02*
X10923682Y-21864389D01*
X10923682Y-21864389D02*
X10914158Y-21883436D01*
X10914158Y-21883436D02*
X10904634Y-21892960D01*
X10904634Y-21892960D02*
X10885586Y-21902484D01*
X10885586Y-21902484D02*
X10866539Y-21902484D01*
X10866539Y-21902484D02*
X10847491Y-21892960D01*
X10847491Y-21892960D02*
X10837967Y-21883436D01*
X10837967Y-21883436D02*
X10828444Y-21864389D01*
X10828444Y-21864389D02*
X10818920Y-21826293D01*
X10818920Y-21826293D02*
X10818920Y-21778674D01*
X10818920Y-21778674D02*
X10828444Y-21740579D01*
X10828444Y-21740579D02*
X10837967Y-21721531D01*
X10837967Y-21721531D02*
X10847491Y-21712008D01*
X10847491Y-21712008D02*
X10866539Y-21702484D01*
X11018920Y-21902484D02*
X11018920Y-21769150D01*
X11018920Y-21788198D02*
X11028444Y-21778674D01*
X11028444Y-21778674D02*
X11047491Y-21769150D01*
X11047491Y-21769150D02*
X11076063Y-21769150D01*
X11076063Y-21769150D02*
X11095110Y-21778674D01*
X11095110Y-21778674D02*
X11104634Y-21797722D01*
X11104634Y-21797722D02*
X11104634Y-21902484D01*
X11104634Y-21797722D02*
X11114158Y-21778674D01*
X11114158Y-21778674D02*
X11133205Y-21769150D01*
X11133205Y-21769150D02*
X11161777Y-21769150D01*
X11161777Y-21769150D02*
X11180825Y-21778674D01*
X11180825Y-21778674D02*
X11190348Y-21797722D01*
X11190348Y-21797722D02*
X11190348Y-21902484D01*
X11285586Y-21902484D02*
X11285586Y-21769150D01*
X11285586Y-21788198D02*
X11295110Y-21778674D01*
X11295110Y-21778674D02*
X11314158Y-21769150D01*
X11314158Y-21769150D02*
X11342729Y-21769150D01*
X11342729Y-21769150D02*
X11361777Y-21778674D01*
X11361777Y-21778674D02*
X11371301Y-21797722D01*
X11371301Y-21797722D02*
X11371301Y-21902484D01*
X11371301Y-21797722D02*
X11380824Y-21778674D01*
X11380824Y-21778674D02*
X11399872Y-21769150D01*
X11399872Y-21769150D02*
X11428443Y-21769150D01*
X11428443Y-21769150D02*
X11447491Y-21778674D01*
X11447491Y-21778674D02*
X11457015Y-21797722D01*
X11457015Y-21797722D02*
X11457015Y-21902484D01*
X11847491Y-21692960D02*
X11676063Y-21950103D01*
X12104634Y-21702484D02*
X12123682Y-21702484D01*
X12123682Y-21702484D02*
X12142729Y-21712008D01*
X12142729Y-21712008D02*
X12152253Y-21721531D01*
X12152253Y-21721531D02*
X12161777Y-21740579D01*
X12161777Y-21740579D02*
X12171301Y-21778674D01*
X12171301Y-21778674D02*
X12171301Y-21826293D01*
X12171301Y-21826293D02*
X12161777Y-21864389D01*
X12161777Y-21864389D02*
X12152253Y-21883436D01*
X12152253Y-21883436D02*
X12142729Y-21892960D01*
X12142729Y-21892960D02*
X12123682Y-21902484D01*
X12123682Y-21902484D02*
X12104634Y-21902484D01*
X12104634Y-21902484D02*
X12085586Y-21892960D01*
X12085586Y-21892960D02*
X12076063Y-21883436D01*
X12076063Y-21883436D02*
X12066539Y-21864389D01*
X12066539Y-21864389D02*
X12057015Y-21826293D01*
X12057015Y-21826293D02*
X12057015Y-21778674D01*
X12057015Y-21778674D02*
X12066539Y-21740579D01*
X12066539Y-21740579D02*
X12076063Y-21721531D01*
X12076063Y-21721531D02*
X12085586Y-21712008D01*
X12085586Y-21712008D02*
X12104634Y-21702484D01*
X12257015Y-21883436D02*
X12266539Y-21892960D01*
X12266539Y-21892960D02*
X12257015Y-21902484D01*
X12257015Y-21902484D02*
X12247491Y-21892960D01*
X12247491Y-21892960D02*
X12257015Y-21883436D01*
X12257015Y-21883436D02*
X12257015Y-21902484D01*
X12390348Y-21702484D02*
X12409396Y-21702484D01*
X12409396Y-21702484D02*
X12428444Y-21712008D01*
X12428444Y-21712008D02*
X12437967Y-21721531D01*
X12437967Y-21721531D02*
X12447491Y-21740579D01*
X12447491Y-21740579D02*
X12457015Y-21778674D01*
X12457015Y-21778674D02*
X12457015Y-21826293D01*
X12457015Y-21826293D02*
X12447491Y-21864389D01*
X12447491Y-21864389D02*
X12437967Y-21883436D01*
X12437967Y-21883436D02*
X12428444Y-21892960D01*
X12428444Y-21892960D02*
X12409396Y-21902484D01*
X12409396Y-21902484D02*
X12390348Y-21902484D01*
X12390348Y-21902484D02*
X12371301Y-21892960D01*
X12371301Y-21892960D02*
X12361777Y-21883436D01*
X12361777Y-21883436D02*
X12352253Y-21864389D01*
X12352253Y-21864389D02*
X12342729Y-21826293D01*
X12342729Y-21826293D02*
X12342729Y-21778674D01*
X12342729Y-21778674D02*
X12352253Y-21740579D01*
X12352253Y-21740579D02*
X12361777Y-21721531D01*
X12361777Y-21721531D02*
X12371301Y-21712008D01*
X12371301Y-21712008D02*
X12390348Y-21702484D01*
X12628444Y-21702484D02*
X12590348Y-21702484D01*
X12590348Y-21702484D02*
X12571301Y-21712008D01*
X12571301Y-21712008D02*
X12561777Y-21721531D01*
X12561777Y-21721531D02*
X12542729Y-21750103D01*
X12542729Y-21750103D02*
X12533206Y-21788198D01*
X12533206Y-21788198D02*
X12533206Y-21864389D01*
X12533206Y-21864389D02*
X12542729Y-21883436D01*
X12542729Y-21883436D02*
X12552253Y-21892960D01*
X12552253Y-21892960D02*
X12571301Y-21902484D01*
X12571301Y-21902484D02*
X12609396Y-21902484D01*
X12609396Y-21902484D02*
X12628444Y-21892960D01*
X12628444Y-21892960D02*
X12637967Y-21883436D01*
X12637967Y-21883436D02*
X12647491Y-21864389D01*
X12647491Y-21864389D02*
X12647491Y-21816770D01*
X12647491Y-21816770D02*
X12637967Y-21797722D01*
X12637967Y-21797722D02*
X12628444Y-21788198D01*
X12628444Y-21788198D02*
X12609396Y-21778674D01*
X12609396Y-21778674D02*
X12571301Y-21778674D01*
X12571301Y-21778674D02*
X12552253Y-21788198D01*
X12552253Y-21788198D02*
X12542729Y-21797722D01*
X12542729Y-21797722D02*
X12533206Y-21816770D01*
X12818920Y-21702484D02*
X12780825Y-21702484D01*
X12780825Y-21702484D02*
X12761777Y-21712008D01*
X12761777Y-21712008D02*
X12752253Y-21721531D01*
X12752253Y-21721531D02*
X12733206Y-21750103D01*
X12733206Y-21750103D02*
X12723682Y-21788198D01*
X12723682Y-21788198D02*
X12723682Y-21864389D01*
X12723682Y-21864389D02*
X12733206Y-21883436D01*
X12733206Y-21883436D02*
X12742729Y-21892960D01*
X12742729Y-21892960D02*
X12761777Y-21902484D01*
X12761777Y-21902484D02*
X12799872Y-21902484D01*
X12799872Y-21902484D02*
X12818920Y-21892960D01*
X12818920Y-21892960D02*
X12828444Y-21883436D01*
X12828444Y-21883436D02*
X12837967Y-21864389D01*
X12837967Y-21864389D02*
X12837967Y-21816770D01*
X12837967Y-21816770D02*
X12828444Y-21797722D01*
X12828444Y-21797722D02*
X12818920Y-21788198D01*
X12818920Y-21788198D02*
X12799872Y-21778674D01*
X12799872Y-21778674D02*
X12761777Y-21778674D01*
X12761777Y-21778674D02*
X12742729Y-21788198D01*
X12742729Y-21788198D02*
X12733206Y-21797722D01*
X12733206Y-21797722D02*
X12723682Y-21816770D01*
X12933206Y-21902484D02*
X12971301Y-21902484D01*
X12971301Y-21902484D02*
X12990348Y-21892960D01*
X12990348Y-21892960D02*
X12999872Y-21883436D01*
X12999872Y-21883436D02*
X13018920Y-21854865D01*
X13018920Y-21854865D02*
X13028444Y-21816770D01*
X13028444Y-21816770D02*
X13028444Y-21740579D01*
X13028444Y-21740579D02*
X13018920Y-21721531D01*
X13018920Y-21721531D02*
X13009396Y-21712008D01*
X13009396Y-21712008D02*
X12990348Y-21702484D01*
X12990348Y-21702484D02*
X12952253Y-21702484D01*
X12952253Y-21702484D02*
X12933206Y-21712008D01*
X12933206Y-21712008D02*
X12923682Y-21721531D01*
X12923682Y-21721531D02*
X12914158Y-21740579D01*
X12914158Y-21740579D02*
X12914158Y-21788198D01*
X12914158Y-21788198D02*
X12923682Y-21807246D01*
X12923682Y-21807246D02*
X12933206Y-21816770D01*
X12933206Y-21816770D02*
X12952253Y-21826293D01*
X12952253Y-21826293D02*
X12990348Y-21826293D01*
X12990348Y-21826293D02*
X13009396Y-21816770D01*
X13009396Y-21816770D02*
X13018920Y-21807246D01*
X13018920Y-21807246D02*
X13028444Y-21788198D01*
X13104634Y-21702484D02*
X13104634Y-21740579D01*
X13180825Y-21702484D02*
X13180825Y-21740579D01*
X13476063Y-21978674D02*
X13466539Y-21969150D01*
X13466539Y-21969150D02*
X13447491Y-21940579D01*
X13447491Y-21940579D02*
X13437968Y-21921531D01*
X13437968Y-21921531D02*
X13428444Y-21892960D01*
X13428444Y-21892960D02*
X13418920Y-21845341D01*
X13418920Y-21845341D02*
X13418920Y-21807246D01*
X13418920Y-21807246D02*
X13428444Y-21759627D01*
X13428444Y-21759627D02*
X13437968Y-21731055D01*
X13437968Y-21731055D02*
X13447491Y-21712008D01*
X13447491Y-21712008D02*
X13466539Y-21683436D01*
X13466539Y-21683436D02*
X13476063Y-21673912D01*
X13637968Y-21769150D02*
X13637968Y-21902484D01*
X13590348Y-21692960D02*
X13542729Y-21835817D01*
X13542729Y-21835817D02*
X13666539Y-21835817D01*
X13895110Y-21902484D02*
X13895110Y-21702484D01*
X13980825Y-21902484D02*
X13980825Y-21797722D01*
X13980825Y-21797722D02*
X13971301Y-21778674D01*
X13971301Y-21778674D02*
X13952253Y-21769150D01*
X13952253Y-21769150D02*
X13923682Y-21769150D01*
X13923682Y-21769150D02*
X13904634Y-21778674D01*
X13904634Y-21778674D02*
X13895110Y-21788198D01*
X14104634Y-21902484D02*
X14085587Y-21892960D01*
X14085587Y-21892960D02*
X14076063Y-21883436D01*
X14076063Y-21883436D02*
X14066539Y-21864389D01*
X14066539Y-21864389D02*
X14066539Y-21807246D01*
X14066539Y-21807246D02*
X14076063Y-21788198D01*
X14076063Y-21788198D02*
X14085587Y-21778674D01*
X14085587Y-21778674D02*
X14104634Y-21769150D01*
X14104634Y-21769150D02*
X14133206Y-21769150D01*
X14133206Y-21769150D02*
X14152253Y-21778674D01*
X14152253Y-21778674D02*
X14161777Y-21788198D01*
X14161777Y-21788198D02*
X14171301Y-21807246D01*
X14171301Y-21807246D02*
X14171301Y-21864389D01*
X14171301Y-21864389D02*
X14161777Y-21883436D01*
X14161777Y-21883436D02*
X14152253Y-21892960D01*
X14152253Y-21892960D02*
X14133206Y-21902484D01*
X14133206Y-21902484D02*
X14104634Y-21902484D01*
X14285587Y-21902484D02*
X14266539Y-21892960D01*
X14266539Y-21892960D02*
X14257015Y-21873912D01*
X14257015Y-21873912D02*
X14257015Y-21702484D01*
X14437968Y-21892960D02*
X14418920Y-21902484D01*
X14418920Y-21902484D02*
X14380825Y-21902484D01*
X14380825Y-21902484D02*
X14361777Y-21892960D01*
X14361777Y-21892960D02*
X14352253Y-21873912D01*
X14352253Y-21873912D02*
X14352253Y-21797722D01*
X14352253Y-21797722D02*
X14361777Y-21778674D01*
X14361777Y-21778674D02*
X14380825Y-21769150D01*
X14380825Y-21769150D02*
X14418920Y-21769150D01*
X14418920Y-21769150D02*
X14437968Y-21778674D01*
X14437968Y-21778674D02*
X14447491Y-21797722D01*
X14447491Y-21797722D02*
X14447491Y-21816770D01*
X14447491Y-21816770D02*
X14352253Y-21835817D01*
X14523682Y-21892960D02*
X14542730Y-21902484D01*
X14542730Y-21902484D02*
X14580825Y-21902484D01*
X14580825Y-21902484D02*
X14599872Y-21892960D01*
X14599872Y-21892960D02*
X14609396Y-21873912D01*
X14609396Y-21873912D02*
X14609396Y-21864389D01*
X14609396Y-21864389D02*
X14599872Y-21845341D01*
X14599872Y-21845341D02*
X14580825Y-21835817D01*
X14580825Y-21835817D02*
X14552253Y-21835817D01*
X14552253Y-21835817D02*
X14533206Y-21826293D01*
X14533206Y-21826293D02*
X14523682Y-21807246D01*
X14523682Y-21807246D02*
X14523682Y-21797722D01*
X14523682Y-21797722D02*
X14533206Y-21778674D01*
X14533206Y-21778674D02*
X14552253Y-21769150D01*
X14552253Y-21769150D02*
X14580825Y-21769150D01*
X14580825Y-21769150D02*
X14599872Y-21778674D01*
X14676063Y-21978674D02*
X14685587Y-21969150D01*
X14685587Y-21969150D02*
X14704634Y-21940579D01*
X14704634Y-21940579D02*
X14714158Y-21921531D01*
X14714158Y-21921531D02*
X14723682Y-21892960D01*
X14723682Y-21892960D02*
X14733206Y-21845341D01*
X14733206Y-21845341D02*
X14733206Y-21807246D01*
X14733206Y-21807246D02*
X14723682Y-21759627D01*
X14723682Y-21759627D02*
X14714158Y-21731055D01*
X14714158Y-21731055D02*
X14704634Y-21712008D01*
X14704634Y-21712008D02*
X14685587Y-21683436D01*
X14685587Y-21683436D02*
X14676063Y-21673912D01*
M02*
