%TF.GenerationSoftware,KiCad,Pcbnew,7.0.9*%
%TF.CreationDate,2024-09-21T10:37:03-07:00*%
%TF.ProjectId,DIY Meshtastic 1W Node,44495920-4d65-4736-9874-617374696320,1.0*%
%TF.SameCoordinates,Original*%
%TF.FileFunction,Legend,Bot*%
%TF.FilePolarity,Positive*%
%FSLAX46Y46*%
G04 Gerber Fmt 4.6, Leading zero omitted, Abs format (unit mm)*
G04 Created by KiCad (PCBNEW 7.0.9) date 2024-09-21 10:37:03*
%MOMM*%
%LPD*%
G01*
G04 APERTURE LIST*
G04 Aperture macros list*
%AMRoundRect*
0 Rectangle with rounded corners*
0 $1 Rounding radius*
0 $2 $3 $4 $5 $6 $7 $8 $9 X,Y pos of 4 corners*
0 Add a 4 corners polygon primitive as box body*
4,1,4,$2,$3,$4,$5,$6,$7,$8,$9,$2,$3,0*
0 Add four circle primitives for the rounded corners*
1,1,$1+$1,$2,$3*
1,1,$1+$1,$4,$5*
1,1,$1+$1,$6,$7*
1,1,$1+$1,$8,$9*
0 Add four rect primitives between the rounded corners*
20,1,$1+$1,$2,$3,$4,$5,0*
20,1,$1+$1,$4,$5,$6,$7,0*
20,1,$1+$1,$6,$7,$8,$9,0*
20,1,$1+$1,$8,$9,$2,$3,0*%
G04 Aperture macros list end*
%ADD10C,2.204000*%
%ADD11RoundRect,0.102000X-1.000000X-1.000000X1.000000X-1.000000X1.000000X1.000000X-1.000000X1.000000X0*%
%ADD12C,3.000000*%
%ADD13C,3.500000*%
%ADD14R,1.700000X1.700000*%
%ADD15O,1.700000X1.700000*%
%ADD16R,1.350000X4.200000*%
%ADD17R,3.000000X3.000000*%
%ADD18C,1.524000*%
%ADD19C,2.000000*%
%ADD20C,2.050000*%
%ADD21C,2.250000*%
G04 APERTURE END LIST*
%LPC*%
D10*
%TO.C,U1*%
X129286000Y-118196000D03*
X129286000Y-120736000D03*
X129286000Y-123276000D03*
X129286000Y-125816000D03*
X129286000Y-128356000D03*
X129286000Y-130896000D03*
X129286000Y-133436000D03*
X129286000Y-135976000D03*
X129286000Y-138516000D03*
X129286000Y-141056000D03*
X129286000Y-143596000D03*
X129286000Y-146136000D03*
X129286000Y-148676000D03*
X129286000Y-151216000D03*
X129286000Y-153756000D03*
X103886000Y-153756000D03*
X103886000Y-151216000D03*
X103886000Y-148676000D03*
X103886000Y-146136000D03*
X103886000Y-143596000D03*
X103886000Y-141056000D03*
X103886000Y-138516000D03*
X103886000Y-135976000D03*
X103886000Y-133436000D03*
X103886000Y-130896000D03*
X103886000Y-128356000D03*
X103886000Y-125816000D03*
X103886000Y-123276000D03*
X103886000Y-120736000D03*
D11*
X103886000Y-118196000D03*
D12*
X128816000Y-157186000D03*
X128816000Y-110236000D03*
X104306000Y-157186000D03*
X104306000Y-110236000D03*
%TD*%
D13*
%TO.C,REF\u002A\u002A*%
X143256000Y-34544000D03*
%TD*%
%TO.C,REF\u002A\u002A*%
X103378000Y-34798000D03*
%TD*%
%TO.C,REF\u002A\u002A*%
X143256000Y-188976000D03*
%TD*%
%TO.C,REF\u002A\u002A*%
X103124000Y-188722000D03*
%TD*%
D14*
%TO.C,J6*%
X143764000Y-159495040D03*
D15*
X141224000Y-159495040D03*
X138684000Y-159495040D03*
X136144000Y-159495040D03*
X133604000Y-159495040D03*
%TD*%
D14*
%TO.C,J5*%
X143764000Y-155702000D03*
D15*
X141224000Y-155702000D03*
X138684000Y-155702000D03*
X136144000Y-155702000D03*
X133604000Y-155702000D03*
%TD*%
D14*
%TO.C,J4*%
X143764000Y-151956960D03*
D15*
X141224000Y-151956960D03*
X138684000Y-151956960D03*
X136144000Y-151956960D03*
X133604000Y-151956960D03*
%TD*%
D14*
%TO.C,J3*%
X143764000Y-148259920D03*
D15*
X141224000Y-148259920D03*
X138684000Y-148259920D03*
X136144000Y-148259920D03*
X133604000Y-148259920D03*
%TD*%
D14*
%TO.C,J2*%
X112014000Y-40132000D03*
D15*
X114554000Y-40132000D03*
X117094000Y-40132000D03*
X119634000Y-40132000D03*
%TD*%
D14*
%TO.C,J1*%
X137668000Y-115316000D03*
D15*
X137668000Y-117856000D03*
X137668000Y-120396000D03*
X137668000Y-122936000D03*
%TD*%
D16*
%TO.C,J8*%
X137730000Y-32602500D03*
X132080000Y-32602500D03*
%TD*%
D17*
%TO.C,J9*%
X121920000Y-188976000D03*
D12*
X127000000Y-188976000D03*
%TD*%
D18*
%TO.C,U3*%
X104013000Y-182046000D03*
X104013000Y-164846000D03*
X143573000Y-182046000D03*
X143573000Y-164846000D03*
%TD*%
D19*
%TO.C,SW1*%
X142240000Y-101600000D03*
X135740000Y-101600000D03*
X142240000Y-97100000D03*
X135740000Y-97100000D03*
%TD*%
D20*
%TO.C,J7*%
X138684000Y-55880000D03*
D21*
X136144000Y-53340000D03*
X136144000Y-58420000D03*
X141224000Y-53340000D03*
X141224000Y-58420000D03*
%TD*%
%LPD*%
M02*
