M48
; DRILL file {KiCad 7.0.9} date Sat Sep 21 10:37:07 2024
; FORMAT={-:-/ absolute / metric / decimal}
; #@! TF.CreationDate,2024-09-21T10:37:07-07:00
; #@! TF.GenerationSoftware,Kicad,Pcbnew,7.0.9
; #@! TF.FileFunction,Plated,1,2,PTH
FMAT,2
METRIC
; #@! TA.AperFunction,Plated,PTH,ViaDrill
T1C0.400
; #@! TA.AperFunction,Plated,PTH,ComponentDrill
T2C0.762
; #@! TA.AperFunction,Plated,PTH,ComponentDrill
T3C1.000
; #@! TA.AperFunction,Plated,PTH,ComponentDrill
T4C1.020
; #@! TA.AperFunction,Plated,PTH,ComponentDrill
T5C1.100
; #@! TA.AperFunction,Plated,PTH,ComponentDrill
T6C1.500
; #@! TA.AperFunction,Plated,PTH,ComponentDrill
T7C1.520
; #@! TA.AperFunction,Plated,PTH,ComponentDrill
T8C1.700
%
G90
G05
T1
X106.934Y-91.44
X106.934Y-93.98
X111.701Y-93.785
X112.738Y-138.176
X115.824Y-128.27
X116.332Y-48.006
X117.856Y-127.762
X123.19Y-115.824
X124.206Y-115.824
X125.222Y-99.06
X125.222Y-101.6
X127.0Y-65.278
X129.54Y-76.2
X129.794Y-105.664
X130.556Y-108.712
X132.08Y-99.314
X132.08Y-115.062
X133.35Y-142.494
X134.112Y-108.712
X138.43Y-143.51
X141.224Y-161.544
X144.165Y-122.936
T2
X104.013Y-164.846
X104.013Y-182.046
X143.573Y-164.846
X143.573Y-182.046
T3
X112.014Y-40.132
X114.554Y-40.132
X117.094Y-40.132
X119.634Y-40.132
X133.604Y-148.26
X133.604Y-151.957
X133.604Y-155.702
X133.604Y-159.495
X136.144Y-148.26
X136.144Y-151.957
X136.144Y-155.702
X136.144Y-159.495
X137.668Y-115.316
X137.668Y-117.856
X137.668Y-120.396
X137.668Y-122.936
X138.684Y-148.26
X138.684Y-151.957
X138.684Y-155.702
X138.684Y-159.495
X141.224Y-148.26
X141.224Y-151.957
X141.224Y-155.702
X141.224Y-159.495
X143.764Y-148.26
X143.764Y-151.957
X143.764Y-155.702
X143.764Y-159.495
T4
X103.886Y-118.196
X103.886Y-120.736
X103.886Y-123.276
X103.886Y-125.816
X103.886Y-128.356
X103.886Y-130.896
X103.886Y-133.436
X103.886Y-135.976
X103.886Y-138.516
X103.886Y-141.056
X103.886Y-143.596
X103.886Y-146.136
X103.886Y-148.676
X103.886Y-151.216
X103.886Y-153.756
X129.286Y-118.196
X129.286Y-120.736
X129.286Y-123.276
X129.286Y-125.816
X129.286Y-128.356
X129.286Y-130.896
X129.286Y-133.436
X129.286Y-135.976
X129.286Y-138.516
X129.286Y-141.056
X129.286Y-143.596
X129.286Y-146.136
X129.286Y-148.676
X129.286Y-151.216
X129.286Y-153.756
T5
X135.74Y-97.1
X135.74Y-101.6
X142.24Y-97.1
X142.24Y-101.6
T6
X138.684Y-55.88
T7
X121.92Y-188.976
X127.0Y-188.976
T8
X136.144Y-53.34
X136.144Y-58.42
X141.224Y-53.34
X141.224Y-58.42
T0
M30
