%TF.GenerationSoftware,KiCad,Pcbnew,7.0.9*%
%TF.CreationDate,2024-10-13T10:47:50-07:00*%
%TF.ProjectId,DIY Meshtastic 1W Node,44495920-4d65-4736-9874-617374696320,1.0*%
%TF.SameCoordinates,Original*%
%TF.FileFunction,Copper,L1,Top*%
%TF.FilePolarity,Positive*%
%FSLAX46Y46*%
G04 Gerber Fmt 4.6, Leading zero omitted, Abs format (unit mm)*
G04 Created by KiCad (PCBNEW 7.0.9) date 2024-10-13 10:47:50*
%MOMM*%
%LPD*%
G01*
G04 APERTURE LIST*
G04 Aperture macros list*
%AMRoundRect*
0 Rectangle with rounded corners*
0 $1 Rounding radius*
0 $2 $3 $4 $5 $6 $7 $8 $9 X,Y pos of 4 corners*
0 Add a 4 corners polygon primitive as box body*
4,1,4,$2,$3,$4,$5,$6,$7,$8,$9,$2,$3,0*
0 Add four circle primitives for the rounded corners*
1,1,$1+$1,$2,$3*
1,1,$1+$1,$4,$5*
1,1,$1+$1,$6,$7*
1,1,$1+$1,$8,$9*
0 Add four rect primitives between the rounded corners*
20,1,$1+$1,$2,$3,$4,$5,0*
20,1,$1+$1,$4,$5,$6,$7,0*
20,1,$1+$1,$6,$7,$8,$9,0*
20,1,$1+$1,$8,$9,$2,$3,0*%
G04 Aperture macros list end*
%TA.AperFunction,SMDPad,CuDef*%
%ADD10R,2.080000X1.510000*%
%TD*%
%TA.AperFunction,SMDPad,CuDef*%
%ADD11RoundRect,0.250000X0.625000X-0.400000X0.625000X0.400000X-0.625000X0.400000X-0.625000X-0.400000X0*%
%TD*%
%TA.AperFunction,SMDPad,CuDef*%
%ADD12RoundRect,0.250000X-0.625000X0.400000X-0.625000X-0.400000X0.625000X-0.400000X0.625000X0.400000X0*%
%TD*%
%TA.AperFunction,SMDPad,CuDef*%
%ADD13R,1.270000X3.600000*%
%TD*%
%TA.AperFunction,SMDPad,CuDef*%
%ADD14R,1.350000X4.200000*%
%TD*%
%TA.AperFunction,SMDPad,CuDef*%
%ADD15RoundRect,0.250000X1.500000X0.550000X-1.500000X0.550000X-1.500000X-0.550000X1.500000X-0.550000X0*%
%TD*%
%TA.AperFunction,ComponentPad*%
%ADD16R,1.700000X1.700000*%
%TD*%
%TA.AperFunction,ComponentPad*%
%ADD17O,1.700000X1.700000*%
%TD*%
%TA.AperFunction,ComponentPad*%
%ADD18R,2.000000X2.000000*%
%TD*%
%TA.AperFunction,ComponentPad*%
%ADD19C,2.000000*%
%TD*%
%TA.AperFunction,ComponentPad*%
%ADD20R,3.000000X3.000000*%
%TD*%
%TA.AperFunction,ComponentPad*%
%ADD21C,3.000000*%
%TD*%
%TA.AperFunction,ComponentPad*%
%ADD22C,1.524000*%
%TD*%
%TA.AperFunction,SMDPad,CuDef*%
%ADD23RoundRect,0.250000X0.550000X-1.500000X0.550000X1.500000X-0.550000X1.500000X-0.550000X-1.500000X0*%
%TD*%
%TA.AperFunction,ComponentPad*%
%ADD24C,2.050000*%
%TD*%
%TA.AperFunction,ComponentPad*%
%ADD25C,2.250000*%
%TD*%
%TA.AperFunction,SMDPad,CuDef*%
%ADD26RoundRect,0.250000X0.400000X0.625000X-0.400000X0.625000X-0.400000X-0.625000X0.400000X-0.625000X0*%
%TD*%
%TA.AperFunction,ViaPad*%
%ADD27C,0.800000*%
%TD*%
%TA.AperFunction,Conductor*%
%ADD28C,0.250000*%
%TD*%
%TA.AperFunction,Conductor*%
%ADD29C,0.500000*%
%TD*%
%TA.AperFunction,Conductor*%
%ADD30C,0.750000*%
%TD*%
G04 APERTURE END LIST*
D10*
%TO.P,U2,1,GND*%
%TO.N,GND*%
X103850000Y-73680000D03*
%TO.P,U2,2,GND*%
X103850000Y-76220000D03*
%TO.P,U2,3,GND*%
X103850000Y-78760000D03*
%TO.P,U2,4,GND*%
X103850000Y-86360000D03*
%TO.P,U2,5,GND*%
X103850000Y-88900000D03*
%TO.P,U2,6,RXEN*%
%TO.N,RXEN*%
X103850000Y-91440000D03*
%TO.P,U2,7,TXEN*%
%TO.N,TXEN*%
X103850000Y-93980000D03*
%TO.P,U2,8,DIO2*%
%TO.N,unconnected-(U2-DIO2-Pad8)*%
X103850000Y-96520000D03*
%TO.P,U2,9,VCC*%
%TO.N,+5V*%
X103850000Y-99060000D03*
%TO.P,U2,10,VCC*%
X103850000Y-101600000D03*
%TO.P,U2,11,GND*%
%TO.N,GND*%
X103850000Y-104140000D03*
%TO.P,U2,12,GND*%
X127000000Y-104140000D03*
%TO.P,U2,13,DIO1*%
%TO.N,IRQ*%
X127000000Y-101600000D03*
%TO.P,U2,14,BUSY*%
%TO.N,BUSY*%
X127000000Y-99060000D03*
%TO.P,U2,15,~{RST}*%
%TO.N,RST*%
X127000000Y-96520000D03*
%TO.P,U2,16,MISO*%
%TO.N,MISO*%
X127000000Y-93980000D03*
%TO.P,U2,17,MOSI*%
%TO.N,MOSI*%
X127000000Y-91440000D03*
%TO.P,U2,18,SCK*%
%TO.N,SCK*%
X127000000Y-88900000D03*
%TO.P,U2,19,NSS*%
%TO.N,NSS*%
X127000000Y-86360000D03*
%TO.P,U2,20,GND*%
%TO.N,GND*%
X127000000Y-78760000D03*
%TO.P,U2,21,ANT*%
%TO.N,Net-(J7-In)*%
X127000000Y-76220000D03*
%TO.P,U2,22,GND*%
%TO.N,GND*%
X127000000Y-73680000D03*
%TD*%
D11*
%TO.P,C8,1*%
%TO.N,+5V*%
X141224000Y-142038000D03*
%TO.P,C8,2*%
%TO.N,GND*%
X141224000Y-138938000D03*
%TD*%
D12*
%TO.P,C7,1*%
%TO.N,GND*%
X138508000Y-138912000D03*
%TO.P,C7,2*%
%TO.N,VCC3*%
X138508000Y-142012000D03*
%TD*%
D13*
%TO.P,J8,1,In*%
%TO.N,Net-(J7-In)*%
X134905000Y-32402500D03*
D14*
%TO.P,J8,2,Ext*%
%TO.N,GND*%
X137730000Y-32602500D03*
X132080000Y-32602500D03*
%TD*%
D15*
%TO.P,C6,1*%
%TO.N,+5V*%
X124968000Y-34544000D03*
%TO.P,C6,2*%
%TO.N,GND*%
X119568000Y-34544000D03*
%TD*%
D12*
%TO.P,C2,1*%
%TO.N,GND*%
X142494000Y-83566000D03*
%TO.P,C2,2*%
%TO.N,+5V*%
X142494000Y-86666000D03*
%TD*%
D16*
%TO.P,J1,1,Pin_1*%
%TO.N,GPS TX*%
X137668000Y-115316000D03*
D17*
%TO.P,J1,2,Pin_2*%
%TO.N,unconnected-(J1-Pin_2-Pad2)*%
X137668000Y-117856000D03*
%TO.P,J1,3,Pin_3*%
%TO.N,GND*%
X137668000Y-120396000D03*
%TO.P,J1,4,Pin_4*%
%TO.N,+5V*%
X137668000Y-122936000D03*
%TD*%
D16*
%TO.P,J3,1,Pin_1*%
%TO.N,SDA*%
X143764000Y-148259920D03*
D17*
%TO.P,J3,2,Pin_2*%
%TO.N,SCL*%
X141224000Y-148259920D03*
%TO.P,J3,3,Pin_3*%
%TO.N,GND*%
X138684000Y-148259920D03*
%TO.P,J3,4,Pin_4*%
%TO.N,+5V*%
X136144000Y-148259920D03*
%TO.P,J3,5,Pin_5*%
%TO.N,VCC3*%
X133604000Y-148259920D03*
%TD*%
D18*
%TO.P,U1,1,3V3*%
%TO.N,VCC3*%
X103886000Y-118196000D03*
D19*
%TO.P,U1,2,GND*%
%TO.N,GND*%
X103886000Y-120736000D03*
%TO.P,U1,3,D15*%
%TO.N,unconnected-(U1-D15-Pad3)*%
X103886000Y-123276000D03*
%TO.P,U1,4,D2*%
%TO.N,unconnected-(U1-D2-Pad4)*%
X103886000Y-125816000D03*
%TO.P,U1,5,D4*%
%TO.N,unconnected-(U1-D4-Pad5)*%
X103886000Y-128356000D03*
%TO.P,U1,6,RX2*%
%TO.N,GPS TX*%
X103886000Y-130896000D03*
%TO.P,U1,7,TX2*%
%TO.N,unconnected-(U1-TX2-Pad7)*%
X103886000Y-133436000D03*
%TO.P,U1,8,D5*%
%TO.N,SCK*%
X103886000Y-135976000D03*
%TO.P,U1,9,D18*%
%TO.N,NSS*%
X103886000Y-138516000D03*
%TO.P,U1,10,D19*%
%TO.N,MISO*%
X103886000Y-141056000D03*
%TO.P,U1,11,D21*%
%TO.N,SDA*%
X103886000Y-143596000D03*
%TO.P,U1,12,RX0*%
%TO.N,unconnected-(U1-RX0-Pad12)*%
X103886000Y-146136000D03*
%TO.P,U1,13,TX0*%
%TO.N,unconnected-(U1-TX0-Pad13)*%
X103886000Y-148676000D03*
%TO.P,U1,14,D22*%
%TO.N,SCL*%
X103886000Y-151216000D03*
%TO.P,U1,15,D23*%
%TO.N,RST*%
X103886000Y-153756000D03*
%TO.P,U1,16,EN*%
%TO.N,unconnected-(U1-EN-Pad16)*%
X129286000Y-153756000D03*
%TO.P,U1,17,VP*%
%TO.N,unconnected-(U1-VP-Pad17)*%
X129286000Y-151216000D03*
%TO.P,U1,18,VN*%
%TO.N,BTN*%
X129286000Y-148676000D03*
%TO.P,U1,19,D34*%
%TO.N,unconnected-(U1-D34-Pad19)*%
X129286000Y-146136000D03*
%TO.P,U1,20,D35*%
%TO.N,unconnected-(U1-D35-Pad20)*%
X129286000Y-143596000D03*
%TO.P,U1,21,D32*%
%TO.N,BUSY*%
X129286000Y-141056000D03*
%TO.P,U1,22,D33*%
%TO.N,IRQ*%
X129286000Y-138516000D03*
%TO.P,U1,23,D25*%
%TO.N,unconnected-(U1-D25-Pad23)*%
X129286000Y-135976000D03*
%TO.P,U1,24,D26*%
%TO.N,DIO0*%
X129286000Y-133436000D03*
%TO.P,U1,25,D27*%
%TO.N,MOSI*%
X129286000Y-130896000D03*
%TO.P,U1,26,D14*%
%TO.N,RXEN*%
X129286000Y-128356000D03*
%TO.P,U1,27,D12*%
%TO.N,unconnected-(U1-D12-Pad27)*%
X129286000Y-125816000D03*
%TO.P,U1,28,D13*%
%TO.N,TXEN*%
X129286000Y-123276000D03*
%TO.P,U1,29,GND*%
%TO.N,GND*%
X129286000Y-120736000D03*
%TO.P,U1,30,VIN*%
%TO.N,+5V*%
X129286000Y-118196000D03*
%TD*%
D16*
%TO.P,J2,1,Pin_1*%
%TO.N,GND*%
X112014000Y-40132000D03*
D17*
%TO.P,J2,2,Pin_2*%
%TO.N,+5V*%
X114554000Y-40132000D03*
%TO.P,J2,3,Pin_3*%
%TO.N,SCL*%
X117094000Y-40132000D03*
%TO.P,J2,4,Pin_4*%
%TO.N,SDA*%
X119634000Y-40132000D03*
%TD*%
D20*
%TO.P,J9,1,Pin_1*%
%TO.N,Vin*%
X121920000Y-188976000D03*
D21*
%TO.P,J9,2,Pin_2*%
%TO.N,GND*%
X127000000Y-188976000D03*
%TD*%
D12*
%TO.P,C3,1*%
%TO.N,GND*%
X130048000Y-83032000D03*
%TO.P,C3,2*%
%TO.N,+5V*%
X130048000Y-86132000D03*
%TD*%
%TO.P,C4,1*%
%TO.N,+5V*%
X125984000Y-119608000D03*
%TO.P,C4,2*%
%TO.N,GND*%
X125984000Y-122708000D03*
%TD*%
D22*
%TO.P,U3,1,Vin-*%
%TO.N,GND*%
X104013000Y-182046000D03*
%TO.P,U3,2,Vin+*%
%TO.N,Vin*%
X104013000Y-164846000D03*
%TO.P,U3,3,Vout-*%
%TO.N,GND*%
X143573000Y-182046000D03*
%TO.P,U3,4,Vout+*%
%TO.N,+5V*%
X143573000Y-164846000D03*
%TD*%
D23*
%TO.P,C1,1*%
%TO.N,+5V*%
X135382000Y-87188000D03*
%TO.P,C1,2*%
%TO.N,GND*%
X135382000Y-81788000D03*
%TD*%
D19*
%TO.P,SW1,1,1*%
%TO.N,BTN*%
X142240000Y-101600000D03*
X135740000Y-101600000D03*
%TO.P,SW1,2,2*%
%TO.N,GND*%
X142240000Y-97100000D03*
X135740000Y-97100000D03*
%TD*%
D16*
%TO.P,J4,1,Pin_1*%
%TO.N,SDA*%
X143764000Y-151956960D03*
D17*
%TO.P,J4,2,Pin_2*%
%TO.N,SCL*%
X141224000Y-151956960D03*
%TO.P,J4,3,Pin_3*%
%TO.N,GND*%
X138684000Y-151956960D03*
%TO.P,J4,4,Pin_4*%
%TO.N,+5V*%
X136144000Y-151956960D03*
%TO.P,J4,5,Pin_5*%
%TO.N,VCC3*%
X133604000Y-151956960D03*
%TD*%
D24*
%TO.P,J7,1,In*%
%TO.N,Net-(J7-In)*%
X138684000Y-55880000D03*
D25*
%TO.P,J7,2,Ext*%
%TO.N,GND*%
X136144000Y-53340000D03*
X136144000Y-58420000D03*
X141224000Y-53340000D03*
X141224000Y-58420000D03*
%TD*%
D26*
%TO.P,C5,1*%
%TO.N,+5V*%
X114352000Y-35814000D03*
%TO.P,C5,2*%
%TO.N,GND*%
X111252000Y-35814000D03*
%TD*%
D12*
%TO.P,C10,1*%
%TO.N,+5V*%
X135890000Y-170636000D03*
%TO.P,C10,2*%
%TO.N,GND*%
X135890000Y-173736000D03*
%TD*%
D26*
%TO.P,R1,1*%
%TO.N,BTN*%
X138710000Y-106680000D03*
%TO.P,R1,2*%
%TO.N,VCC3*%
X135610000Y-106680000D03*
%TD*%
D16*
%TO.P,J6,1,Pin_1*%
%TO.N,SDA*%
X143764000Y-159495040D03*
D17*
%TO.P,J6,2,Pin_2*%
%TO.N,SCL*%
X141224000Y-159495040D03*
%TO.P,J6,3,Pin_3*%
%TO.N,GND*%
X138684000Y-159495040D03*
%TO.P,J6,4,Pin_4*%
%TO.N,+5V*%
X136144000Y-159495040D03*
%TO.P,J6,5,Pin_5*%
%TO.N,VCC3*%
X133604000Y-159495040D03*
%TD*%
D12*
%TO.P,C9,1*%
%TO.N,VCC3*%
X133174000Y-170636000D03*
%TO.P,C9,2*%
%TO.N,GND*%
X133174000Y-173736000D03*
%TD*%
D16*
%TO.P,J5,1,Pin_1*%
%TO.N,SDA*%
X143764000Y-155702000D03*
D17*
%TO.P,J5,2,Pin_2*%
%TO.N,SCL*%
X141224000Y-155702000D03*
%TO.P,J5,3,Pin_3*%
%TO.N,GND*%
X138684000Y-155702000D03*
%TO.P,J5,4,Pin_4*%
%TO.N,+5V*%
X136144000Y-155702000D03*
%TO.P,J5,5,Pin_5*%
%TO.N,VCC3*%
X133604000Y-155702000D03*
%TD*%
D27*
%TO.N,VCC3*%
X115824000Y-128270000D03*
X130556000Y-108712000D03*
X138430000Y-143510000D03*
X134112000Y-108712000D03*
%TO.N,GND*%
X129794000Y-105664000D03*
X127000000Y-65278000D03*
X116332000Y-48006000D03*
X132080000Y-99314000D03*
%TO.N,GPS TX*%
X132080000Y-115062000D03*
X117856000Y-127762000D03*
%TO.N,SCK*%
X112738080Y-138176000D03*
%TO.N,+5V*%
X144164500Y-122936000D03*
X111701497Y-93784503D03*
X133350000Y-142494000D03*
%TO.N,TXEN*%
X106934000Y-93980000D03*
%TO.N,RXEN*%
X106934000Y-91440000D03*
%TO.N,IRQ*%
X124206000Y-115824000D03*
X125222000Y-101600000D03*
%TO.N,BUSY*%
X125222000Y-99060000D03*
X123190000Y-115824000D03*
%TO.N,Net-(J7-In)*%
X129540000Y-76200000D03*
%TO.N,SCL*%
X141224000Y-161544000D03*
%TD*%
D28*
%TO.N,VCC3*%
X115824000Y-128270000D02*
X115824000Y-142494000D01*
X129592650Y-108361000D02*
X127859000Y-108361000D01*
X115824000Y-120396000D02*
X115824000Y-128270000D01*
X125984000Y-159184650D02*
X128089350Y-161290000D01*
X128089350Y-161290000D02*
X131809040Y-161290000D01*
X130556000Y-108712000D02*
X129943650Y-108712000D01*
X135610000Y-106680000D02*
X135610000Y-107214000D01*
X133604000Y-159495040D02*
X133604000Y-155702000D01*
X133604000Y-155702000D02*
X133604000Y-151956960D01*
X133174000Y-159925040D02*
X133604000Y-159495040D01*
X135610000Y-107214000D02*
X134112000Y-108712000D01*
X125984000Y-152654000D02*
X125984000Y-159184650D01*
X138430000Y-142090000D02*
X138508000Y-142012000D01*
X127859000Y-108361000D02*
X115824000Y-120396000D01*
X138430000Y-143510000D02*
X138430000Y-142090000D01*
X131809040Y-161290000D02*
X133604000Y-159495040D01*
X115824000Y-142494000D02*
X125984000Y-152654000D01*
X133604000Y-151956960D02*
X133604000Y-148259920D01*
X133174000Y-170636000D02*
X133174000Y-159925040D01*
X129943650Y-108712000D02*
X129592650Y-108361000D01*
%TO.N,GND*%
X103850000Y-86360000D02*
X103850000Y-88900000D01*
X142494000Y-83566000D02*
X137160000Y-83566000D01*
X128270000Y-104140000D02*
X127000000Y-104140000D01*
X106181000Y-106471000D02*
X106181000Y-120620000D01*
X125635000Y-75946000D02*
X125635000Y-75045000D01*
X138684000Y-155702000D02*
X138684000Y-159495040D01*
X127000000Y-79984000D02*
X130048000Y-83032000D01*
X103850000Y-78760000D02*
X103850000Y-86360000D01*
X102485000Y-90265000D02*
X103850000Y-88900000D01*
X121666000Y-53340000D02*
X116332000Y-48006000D01*
X132080000Y-49276000D02*
X136144000Y-53340000D01*
X137668000Y-35052000D02*
X139446000Y-36830000D01*
X125635000Y-77395000D02*
X125635000Y-75946000D01*
X129794000Y-105664000D02*
X128270000Y-104140000D01*
X131826000Y-99314000D02*
X132080000Y-99314000D01*
X125984000Y-122708000D02*
X127314000Y-122708000D01*
X139446000Y-36830000D02*
X139446000Y-50038000D01*
X138684000Y-148259920D02*
X138684000Y-151956960D01*
X138684000Y-148259920D02*
X142424000Y-144519920D01*
X137160000Y-83566000D02*
X135382000Y-81788000D01*
X130048000Y-83032000D02*
X134138000Y-83032000D01*
X134138000Y-83032000D02*
X135382000Y-81788000D01*
X127000000Y-73680000D02*
X127000000Y-65278000D01*
X139446000Y-50038000D02*
X141224000Y-51816000D01*
X137668000Y-32664500D02*
X137668000Y-35052000D01*
X106065000Y-120736000D02*
X103886000Y-120736000D01*
X135890000Y-173736000D02*
X135890000Y-174363000D01*
X138684000Y-151956960D02*
X138684000Y-155702000D01*
X127000000Y-78760000D02*
X127000000Y-79984000D01*
X103850000Y-104140000D02*
X106181000Y-106471000D01*
X102485000Y-102775000D02*
X102485000Y-90265000D01*
X116405000Y-34544000D02*
X114463500Y-32602500D01*
X125361000Y-76220000D02*
X125635000Y-75946000D01*
X136144000Y-53340000D02*
X121666000Y-53340000D01*
X133174000Y-173736000D02*
X135890000Y-173736000D01*
X138534000Y-138938000D02*
X138508000Y-138912000D01*
X141224000Y-138938000D02*
X138534000Y-138938000D01*
X119568000Y-34544000D02*
X116405000Y-34544000D01*
X142424000Y-144519920D02*
X142424000Y-140138000D01*
X142424000Y-140138000D02*
X141224000Y-138938000D01*
X127000000Y-78760000D02*
X125635000Y-77395000D01*
X141224000Y-51816000D02*
X141224000Y-53340000D01*
X103850000Y-76220000D02*
X103850000Y-78760000D01*
X103850000Y-73680000D02*
X103850000Y-76220000D01*
X111252000Y-35814000D02*
X111252000Y-39370000D01*
X114463500Y-32602500D02*
X132080000Y-32602500D01*
X103850000Y-76220000D02*
X125361000Y-76220000D01*
X106181000Y-120620000D02*
X106065000Y-120736000D01*
X125635000Y-75045000D02*
X127000000Y-73680000D01*
X111252000Y-39370000D02*
X112014000Y-40132000D01*
X111252000Y-35814000D02*
X114463500Y-32602500D01*
X127314000Y-122708000D02*
X129286000Y-120736000D01*
X127000000Y-104140000D02*
X131826000Y-99314000D01*
X137730000Y-32602500D02*
X137668000Y-32664500D01*
X135890000Y-174363000D02*
X143573000Y-182046000D01*
X103850000Y-104140000D02*
X102485000Y-102775000D01*
X132080000Y-32602500D02*
X132080000Y-49276000D01*
%TO.N,GPS TX*%
X117856000Y-127762000D02*
X117856000Y-120132695D01*
X117856000Y-120132695D02*
X122889695Y-115099000D01*
X122889695Y-115099000D02*
X132043000Y-115099000D01*
X132043000Y-115099000D02*
X132080000Y-115062000D01*
%TO.N,SCK*%
X112464000Y-137879793D02*
X112464000Y-95944396D01*
X112464000Y-95944396D02*
X119508396Y-88900000D01*
X119508396Y-88900000D02*
X127000000Y-88900000D01*
X112738080Y-138153873D02*
X112464000Y-137879793D01*
%TO.N,NSS*%
X112014000Y-137160000D02*
X110658000Y-138516000D01*
X121412000Y-86360000D02*
X112014000Y-95758000D01*
X110658000Y-138516000D02*
X103886000Y-138516000D01*
X127000000Y-86360000D02*
X121412000Y-86360000D01*
X112014000Y-95758000D02*
X112014000Y-137160000D01*
%TO.N,MISO*%
X112914000Y-137305195D02*
X113517000Y-137908195D01*
X112914000Y-97398000D02*
X112914000Y-137305195D01*
X127000000Y-93980000D02*
X116332000Y-93980000D01*
X104054000Y-141224000D02*
X103886000Y-141056000D01*
X113517000Y-141224000D02*
X104054000Y-141224000D01*
X113517000Y-137908195D02*
X113517000Y-141224000D01*
X116332000Y-93980000D02*
X112914000Y-97398000D01*
%TO.N,SDA*%
X143764000Y-155702000D02*
X143764000Y-159495040D01*
X143764000Y-151956960D02*
X143764000Y-155702000D01*
X143764000Y-148259920D02*
X143764000Y-151956960D01*
%TO.N,RST*%
X113967000Y-145854000D02*
X106065000Y-153756000D01*
X114428396Y-96520000D02*
X113364000Y-97584396D01*
X127000000Y-96520000D02*
X114428396Y-96520000D01*
X113967000Y-137721799D02*
X113967000Y-145854000D01*
X113364000Y-97584396D02*
X113364000Y-137118799D01*
X106065000Y-153756000D02*
X103886000Y-153756000D01*
X113364000Y-137118799D02*
X113967000Y-137721799D01*
%TO.N,+5V*%
X143694000Y-79686000D02*
X135382000Y-71374000D01*
D29*
X136144000Y-151956960D02*
X136144000Y-155702000D01*
D28*
X123698000Y-35814000D02*
X114352000Y-35814000D01*
D29*
X133350000Y-145465920D02*
X136144000Y-148259920D01*
D28*
X141224000Y-143179920D02*
X136144000Y-148259920D01*
D29*
X125984000Y-119608000D02*
X127874000Y-119608000D01*
D28*
X141972000Y-87188000D02*
X142494000Y-86666000D01*
X124968000Y-34544000D02*
X123698000Y-35814000D01*
D29*
X141494960Y-164846000D02*
X136144000Y-159495040D01*
X133350000Y-144982000D02*
X133350000Y-145465920D01*
D28*
X135890000Y-159749040D02*
X136144000Y-159495040D01*
X135382000Y-87188000D02*
X141972000Y-87188000D01*
X143694000Y-85466000D02*
X143694000Y-79686000D01*
X135382000Y-71374000D02*
X114554000Y-50546000D01*
D29*
X111701497Y-93784503D02*
X106426000Y-99060000D01*
D28*
X135890000Y-170636000D02*
X135890000Y-159749040D01*
D29*
X133350000Y-142494000D02*
X133350000Y-141986000D01*
X136144000Y-155702000D02*
X136144000Y-159495040D01*
D28*
X134326000Y-86132000D02*
X135382000Y-87188000D01*
X130048000Y-86132000D02*
X134326000Y-86132000D01*
X114352000Y-39930000D02*
X114554000Y-40132000D01*
X114352000Y-35814000D02*
X114352000Y-39930000D01*
D29*
X133350000Y-144982000D02*
X133350000Y-142494000D01*
D28*
X141224000Y-142038000D02*
X141224000Y-143179920D01*
D29*
X103850000Y-99060000D02*
X103850000Y-101600000D01*
D28*
X136144000Y-159527040D02*
X136112000Y-159495040D01*
X114554000Y-50546000D02*
X114554000Y-40132000D01*
D29*
X143573000Y-164846000D02*
X141494960Y-164846000D01*
X136144000Y-148259920D02*
X136144000Y-151956960D01*
X133350000Y-141986000D02*
X143890000Y-131446000D01*
X127874000Y-119608000D02*
X129286000Y-118196000D01*
X143890000Y-131446000D02*
X143890000Y-88062000D01*
X106426000Y-99060000D02*
X103850000Y-99060000D01*
D28*
X142494000Y-86666000D02*
X143694000Y-85466000D01*
D29*
X143890000Y-88062000D02*
X142494000Y-86666000D01*
D28*
%TO.N,TXEN*%
X103850000Y-93980000D02*
X106934000Y-93980000D01*
%TO.N,RXEN*%
X103850000Y-91440000D02*
X106934000Y-91440000D01*
%TO.N,MOSI*%
X131465000Y-130896000D02*
X129286000Y-130896000D01*
X133096000Y-91694000D02*
X133096000Y-129265000D01*
X132842000Y-91440000D02*
X133096000Y-91694000D01*
X133096000Y-129265000D02*
X131465000Y-130896000D01*
X127000000Y-91440000D02*
X132842000Y-91440000D01*
%TO.N,IRQ*%
X125222000Y-101600000D02*
X127000000Y-101600000D01*
X124206000Y-115824000D02*
X124206000Y-135615000D01*
X127107000Y-138516000D02*
X129286000Y-138516000D01*
X124206000Y-135615000D02*
X127107000Y-138516000D01*
%TO.N,BUSY*%
X129286000Y-141056000D02*
X128864000Y-141056000D01*
X122936000Y-116078000D02*
X123190000Y-115824000D01*
X126238000Y-99822000D02*
X127000000Y-99060000D01*
X128864000Y-141056000D02*
X122936000Y-135128000D01*
X122936000Y-135128000D02*
X122936000Y-116078000D01*
X125222000Y-99060000D02*
X126238000Y-99060000D01*
%TO.N,Net-(J7-In)*%
X127000000Y-76220000D02*
X129520000Y-76220000D01*
X138684000Y-50292000D02*
X134905000Y-46513000D01*
X138684000Y-55880000D02*
X138684000Y-50292000D01*
X129520000Y-76220000D02*
X129540000Y-76200000D01*
X134905000Y-46513000D02*
X134905000Y-32402500D01*
%TO.N,BTN*%
X142240000Y-105130000D02*
X142240000Y-101600000D01*
X140716000Y-106680000D02*
X142253000Y-105143000D01*
X142240000Y-105130000D02*
X142253000Y-105143000D01*
X143002000Y-105892000D02*
X143002000Y-131318000D01*
X131465000Y-148676000D02*
X129286000Y-148676000D01*
X142240000Y-101600000D02*
X135740000Y-101600000D01*
X132080000Y-148061000D02*
X131465000Y-148676000D01*
X132080000Y-142240000D02*
X132080000Y-148061000D01*
X138710000Y-106680000D02*
X140716000Y-106680000D01*
X143002000Y-131318000D02*
X132080000Y-142240000D01*
X142253000Y-105143000D02*
X143002000Y-105892000D01*
%TO.N,SCL*%
X141224000Y-155702000D02*
X141224000Y-151956960D01*
X141224000Y-161536480D02*
X141224000Y-159519520D01*
X141224000Y-148259920D02*
X141224000Y-151956960D01*
X141224000Y-159495040D02*
X141224000Y-155702000D01*
D30*
%TO.N,Vin*%
X104013000Y-173073000D02*
X104013000Y-164846000D01*
D28*
X121920000Y-189230000D02*
X120170000Y-189230000D01*
D30*
X120170000Y-189230000D02*
X104013000Y-173073000D01*
%TD*%
M02*
