%TF.GenerationSoftware,KiCad,Pcbnew,7.0.9*%
%TF.CreationDate,2024-09-21T10:37:03-07:00*%
%TF.ProjectId,DIY Meshtastic 1W Node,44495920-4d65-4736-9874-617374696320,1.0*%
%TF.SameCoordinates,Original*%
%TF.FileFunction,Copper,L2,Bot*%
%TF.FilePolarity,Positive*%
%FSLAX46Y46*%
G04 Gerber Fmt 4.6, Leading zero omitted, Abs format (unit mm)*
G04 Created by KiCad (PCBNEW 7.0.9) date 2024-09-21 10:37:03*
%MOMM*%
%LPD*%
G01*
G04 APERTURE LIST*
%TA.AperFunction,ComponentPad*%
%ADD10C,2.000000*%
%TD*%
%TA.AperFunction,ComponentPad*%
%ADD11R,2.000000X2.000000*%
%TD*%
%TA.AperFunction,ComponentPad*%
%ADD12R,1.700000X1.700000*%
%TD*%
%TA.AperFunction,ComponentPad*%
%ADD13O,1.700000X1.700000*%
%TD*%
%TA.AperFunction,SMDPad,CuDef*%
%ADD14R,1.350000X4.200000*%
%TD*%
%TA.AperFunction,ComponentPad*%
%ADD15R,3.000000X3.000000*%
%TD*%
%TA.AperFunction,ComponentPad*%
%ADD16C,3.000000*%
%TD*%
%TA.AperFunction,ComponentPad*%
%ADD17C,1.524000*%
%TD*%
%TA.AperFunction,ComponentPad*%
%ADD18C,2.050000*%
%TD*%
%TA.AperFunction,ComponentPad*%
%ADD19C,2.250000*%
%TD*%
%TA.AperFunction,ViaPad*%
%ADD20C,0.800000*%
%TD*%
%TA.AperFunction,Conductor*%
%ADD21C,0.500000*%
%TD*%
%TA.AperFunction,Conductor*%
%ADD22C,0.250000*%
%TD*%
G04 APERTURE END LIST*
D10*
%TO.P,U1,30,VIN*%
%TO.N,+5V*%
X129286000Y-118196000D03*
%TO.P,U1,29,GND*%
%TO.N,GND*%
X129286000Y-120736000D03*
%TO.P,U1,28,D13*%
%TO.N,TXEN*%
X129286000Y-123276000D03*
%TO.P,U1,27,D12*%
%TO.N,unconnected-(U1-D12-Pad27)*%
X129286000Y-125816000D03*
%TO.P,U1,26,D14*%
%TO.N,RXEN*%
X129286000Y-128356000D03*
%TO.P,U1,25,D27*%
%TO.N,MOSI*%
X129286000Y-130896000D03*
%TO.P,U1,24,D26*%
%TO.N,DIO0*%
X129286000Y-133436000D03*
%TO.P,U1,23,D25*%
%TO.N,unconnected-(U1-D25-Pad23)*%
X129286000Y-135976000D03*
%TO.P,U1,22,D33*%
%TO.N,IRQ*%
X129286000Y-138516000D03*
%TO.P,U1,21,D32*%
%TO.N,BUSY*%
X129286000Y-141056000D03*
%TO.P,U1,20,D35*%
%TO.N,unconnected-(U1-D35-Pad20)*%
X129286000Y-143596000D03*
%TO.P,U1,19,D34*%
%TO.N,unconnected-(U1-D34-Pad19)*%
X129286000Y-146136000D03*
%TO.P,U1,18,VN*%
%TO.N,BTN*%
X129286000Y-148676000D03*
%TO.P,U1,17,VP*%
%TO.N,unconnected-(U1-VP-Pad17)*%
X129286000Y-151216000D03*
%TO.P,U1,16,EN*%
%TO.N,unconnected-(U1-EN-Pad16)*%
X129286000Y-153756000D03*
%TO.P,U1,15,D23*%
%TO.N,RST*%
X103886000Y-153756000D03*
%TO.P,U1,14,D22*%
%TO.N,SCL*%
X103886000Y-151216000D03*
%TO.P,U1,13,TX0*%
%TO.N,unconnected-(U1-TX0-Pad13)*%
X103886000Y-148676000D03*
%TO.P,U1,12,RX0*%
%TO.N,unconnected-(U1-RX0-Pad12)*%
X103886000Y-146136000D03*
%TO.P,U1,11,D21*%
%TO.N,SDA*%
X103886000Y-143596000D03*
%TO.P,U1,10,D19*%
%TO.N,MISO*%
X103886000Y-141056000D03*
%TO.P,U1,9,D18*%
%TO.N,NSS*%
X103886000Y-138516000D03*
%TO.P,U1,8,D5*%
%TO.N,SCK*%
X103886000Y-135976000D03*
%TO.P,U1,7,TX2*%
%TO.N,unconnected-(U1-TX2-Pad7)*%
X103886000Y-133436000D03*
%TO.P,U1,6,RX2*%
%TO.N,GPS TX*%
X103886000Y-130896000D03*
%TO.P,U1,5,D4*%
%TO.N,unconnected-(U1-D4-Pad5)*%
X103886000Y-128356000D03*
%TO.P,U1,4,D2*%
%TO.N,unconnected-(U1-D2-Pad4)*%
X103886000Y-125816000D03*
%TO.P,U1,3,D15*%
%TO.N,unconnected-(U1-D15-Pad3)*%
X103886000Y-123276000D03*
%TO.P,U1,2,GND*%
%TO.N,GND*%
X103886000Y-120736000D03*
D11*
%TO.P,U1,1,3V3*%
%TO.N,VCC3*%
X103886000Y-118196000D03*
%TD*%
D12*
%TO.P,J6,1,Pin_1*%
%TO.N,SDA*%
X143764000Y-159495040D03*
D13*
%TO.P,J6,2,Pin_2*%
%TO.N,SCL*%
X141224000Y-159495040D03*
%TO.P,J6,3,Pin_3*%
%TO.N,GND*%
X138684000Y-159495040D03*
%TO.P,J6,4,Pin_4*%
%TO.N,+5V*%
X136144000Y-159495040D03*
%TO.P,J6,5,Pin_5*%
%TO.N,VCC3*%
X133604000Y-159495040D03*
%TD*%
D12*
%TO.P,J5,1,Pin_1*%
%TO.N,SDA*%
X143764000Y-155702000D03*
D13*
%TO.P,J5,2,Pin_2*%
%TO.N,SCL*%
X141224000Y-155702000D03*
%TO.P,J5,3,Pin_3*%
%TO.N,GND*%
X138684000Y-155702000D03*
%TO.P,J5,4,Pin_4*%
%TO.N,+5V*%
X136144000Y-155702000D03*
%TO.P,J5,5,Pin_5*%
%TO.N,VCC3*%
X133604000Y-155702000D03*
%TD*%
D12*
%TO.P,J4,1,Pin_1*%
%TO.N,SDA*%
X143764000Y-151956960D03*
D13*
%TO.P,J4,2,Pin_2*%
%TO.N,SCL*%
X141224000Y-151956960D03*
%TO.P,J4,3,Pin_3*%
%TO.N,GND*%
X138684000Y-151956960D03*
%TO.P,J4,4,Pin_4*%
%TO.N,+5V*%
X136144000Y-151956960D03*
%TO.P,J4,5,Pin_5*%
%TO.N,VCC3*%
X133604000Y-151956960D03*
%TD*%
D12*
%TO.P,J3,1,Pin_1*%
%TO.N,SDA*%
X143764000Y-148259920D03*
D13*
%TO.P,J3,2,Pin_2*%
%TO.N,SCL*%
X141224000Y-148259920D03*
%TO.P,J3,3,Pin_3*%
%TO.N,GND*%
X138684000Y-148259920D03*
%TO.P,J3,4,Pin_4*%
%TO.N,+5V*%
X136144000Y-148259920D03*
%TO.P,J3,5,Pin_5*%
%TO.N,VCC3*%
X133604000Y-148259920D03*
%TD*%
D12*
%TO.P,J2,1,Pin_1*%
%TO.N,GND*%
X112014000Y-40132000D03*
D13*
%TO.P,J2,2,Pin_2*%
%TO.N,+5V*%
X114554000Y-40132000D03*
%TO.P,J2,3,Pin_3*%
%TO.N,SCL*%
X117094000Y-40132000D03*
%TO.P,J2,4,Pin_4*%
%TO.N,SDA*%
X119634000Y-40132000D03*
%TD*%
D12*
%TO.P,J1,1,Pin_1*%
%TO.N,GPS TX*%
X137668000Y-115316000D03*
D13*
%TO.P,J1,2,Pin_2*%
%TO.N,unconnected-(J1-Pin_2-Pad2)*%
X137668000Y-117856000D03*
%TO.P,J1,3,Pin_3*%
%TO.N,GND*%
X137668000Y-120396000D03*
%TO.P,J1,4,Pin_4*%
%TO.N,+5V*%
X137668000Y-122936000D03*
%TD*%
D14*
%TO.P,J8,2,Ext*%
%TO.N,GND*%
X137730000Y-32602500D03*
X132080000Y-32602500D03*
%TD*%
D15*
%TO.P,J9,1,Pin_1*%
%TO.N,Vin*%
X121920000Y-188976000D03*
D16*
%TO.P,J9,2,Pin_2*%
%TO.N,GND*%
X127000000Y-188976000D03*
%TD*%
D17*
%TO.P,U3,1,Vin-*%
%TO.N,GND*%
X104013000Y-182046000D03*
%TO.P,U3,2,Vin+*%
%TO.N,Vin*%
X104013000Y-164846000D03*
%TO.P,U3,3,Vout-*%
%TO.N,GND*%
X143573000Y-182046000D03*
%TO.P,U3,4,Vout+*%
%TO.N,+5V*%
X143573000Y-164846000D03*
%TD*%
D10*
%TO.P,SW1,1,1*%
%TO.N,BTN*%
X142240000Y-101600000D03*
X135740000Y-101600000D03*
%TO.P,SW1,2,2*%
%TO.N,GND*%
X142240000Y-97100000D03*
X135740000Y-97100000D03*
%TD*%
D18*
%TO.P,J7,1,In*%
%TO.N,Net-(J7-In)*%
X138684000Y-55880000D03*
D19*
%TO.P,J7,2,Ext*%
%TO.N,GND*%
X136144000Y-53340000D03*
X136144000Y-58420000D03*
X141224000Y-53340000D03*
X141224000Y-58420000D03*
%TD*%
D20*
%TO.N,+5V*%
X111701497Y-93784503D03*
X133350000Y-142494000D03*
%TO.N,GND*%
X116332000Y-48006000D03*
%TO.N,VCC3*%
X130556000Y-108712000D03*
X134112000Y-108712000D03*
X138430000Y-143510000D03*
%TO.N,GND*%
X129794000Y-105664000D03*
X132080000Y-99314000D03*
%TO.N,VCC3*%
X115824000Y-128270000D03*
%TO.N,+5V*%
X144164500Y-122936000D03*
%TO.N,GPS TX*%
X132080000Y-115062000D03*
X117856000Y-127762000D03*
%TO.N,GND*%
X127000000Y-65278000D03*
%TO.N,SCK*%
X112738080Y-138176000D03*
%TO.N,TXEN*%
X106934000Y-93980000D03*
%TO.N,RXEN*%
X106934000Y-91440000D03*
%TO.N,IRQ*%
X124206000Y-115824000D03*
X125222000Y-101600000D03*
%TO.N,BUSY*%
X125222000Y-99060000D03*
X123190000Y-115824000D03*
%TO.N,Net-(J7-In)*%
X129540000Y-76200000D03*
%TO.N,SCL*%
X141224000Y-161544000D03*
%TD*%
D21*
%TO.N,+5V*%
X115148000Y-118196000D02*
X114808000Y-117856000D01*
X114808000Y-96891006D02*
X111701497Y-93784503D01*
X114808000Y-117856000D02*
X114808000Y-96891006D01*
X129286000Y-118196000D02*
X115148000Y-118196000D01*
X133350000Y-142494000D02*
X133350000Y-122428000D01*
X133350000Y-122428000D02*
X128757000Y-117835000D01*
D22*
%TO.N,GND*%
X133858000Y-58420000D02*
X136144000Y-58420000D01*
X127000000Y-65278000D02*
X133858000Y-58420000D01*
%TO.N,Net-(J7-In)*%
X129540000Y-76200000D02*
X138684000Y-67056000D01*
X138684000Y-67056000D02*
X138684000Y-55880000D01*
%TO.N,GPS TX*%
X137414000Y-115062000D02*
X137668000Y-115316000D01*
X132080000Y-115062000D02*
X137414000Y-115062000D01*
%TO.N,GND*%
X126746000Y-108712000D02*
X129794000Y-105664000D01*
X126746000Y-111506000D02*
X126746000Y-108712000D01*
X135636000Y-120396000D02*
X126746000Y-111506000D01*
X137668000Y-120396000D02*
X135636000Y-120396000D01*
%TO.N,+5V*%
X137668000Y-122936000D02*
X144164500Y-122936000D01*
%TO.N,SDA*%
X142589000Y-157320040D02*
X143764000Y-156145040D01*
X131601690Y-157320040D02*
X142589000Y-157320040D01*
X129592650Y-155311000D02*
X131601690Y-157320040D01*
X124992778Y-152146000D02*
X128157778Y-155311000D01*
X112436000Y-152146000D02*
X124992778Y-152146000D01*
X102431000Y-142141000D02*
X112436000Y-152146000D01*
X128157778Y-155311000D02*
X129592650Y-155311000D01*
X119634000Y-50292000D02*
X102431000Y-67495000D01*
X102431000Y-67495000D02*
X102431000Y-142141000D01*
X119634000Y-40132000D02*
X119634000Y-50292000D01*
%TO.N,SCL*%
X106934000Y-154264000D02*
X106934000Y-160799778D01*
X106934000Y-160799778D02*
X107678222Y-161544000D01*
X107678222Y-161544000D02*
X141224000Y-161544000D01*
X103886000Y-151216000D02*
X106934000Y-154264000D01*
X101707000Y-151216000D02*
X103886000Y-151216000D01*
X99822000Y-149331000D02*
X101707000Y-151216000D01*
X99822000Y-57404000D02*
X99822000Y-149331000D01*
X117094000Y-40132000D02*
X99822000Y-57404000D01*
%TO.N,RXEN*%
X125586000Y-124656000D02*
X129286000Y-128356000D01*
X119955604Y-124656000D02*
X125586000Y-124656000D01*
X113538000Y-118238396D02*
X119955604Y-124656000D01*
X113538000Y-97282000D02*
X113538000Y-118238396D01*
X106934000Y-91440000D02*
X107696000Y-91440000D01*
X107696000Y-91440000D02*
X113538000Y-97282000D01*
%TO.N,TXEN*%
X113988000Y-97095604D02*
X113988000Y-118052000D01*
X113988000Y-118052000D02*
X120142000Y-124206000D01*
X107316396Y-90424000D02*
X113988000Y-97095604D01*
X120142000Y-124206000D02*
X128356000Y-124206000D01*
X106924695Y-90424000D02*
X107316396Y-90424000D01*
X106934000Y-93980000D02*
X106209000Y-93255000D01*
X106209000Y-93255000D02*
X106209000Y-91139695D01*
X106209000Y-91139695D02*
X106924695Y-90424000D01*
X128356000Y-124206000D02*
X129286000Y-123276000D01*
%TO.N,VCC3*%
X105664000Y-118110000D02*
X115824000Y-128270000D01*
X103972000Y-118110000D02*
X105664000Y-118110000D01*
X103886000Y-118196000D02*
X103972000Y-118110000D01*
%TO.N,GPS TX*%
X114554000Y-131064000D02*
X117856000Y-127762000D01*
X103886000Y-130896000D02*
X104054000Y-131064000D01*
X104054000Y-131064000D02*
X114554000Y-131064000D01*
%TO.N,SCK*%
X104054000Y-136144000D02*
X103886000Y-135976000D01*
X110728207Y-136144000D02*
X104054000Y-136144000D01*
X112738080Y-138153873D02*
X110728207Y-136144000D01*
%TO.N,VCC3*%
X134112000Y-108712000D02*
X130556000Y-108712000D01*
X138176000Y-143764000D02*
X138430000Y-143510000D01*
X138099920Y-143764000D02*
X138176000Y-143764000D01*
X133604000Y-148259920D02*
X138099920Y-143764000D01*
%TO.N,GND*%
X132080000Y-99314000D02*
X133526000Y-99314000D01*
X133526000Y-99314000D02*
X135740000Y-97100000D01*
X132080000Y-32602500D02*
X137730000Y-32602500D01*
%TO.N,IRQ*%
X124206000Y-102616000D02*
X125222000Y-101600000D01*
X124206000Y-115824000D02*
X124206000Y-102616000D01*
%TO.N,BUSY*%
X123190000Y-115824000D02*
X123190000Y-101092000D01*
X123190000Y-101092000D02*
X125222000Y-99060000D01*
%TD*%
%TA.AperFunction,Conductor*%
%TO.N,GND*%
G36*
X130848039Y-30753685D02*
G01*
X130893794Y-30806489D01*
X130905000Y-30858000D01*
X130905000Y-32352500D01*
X133255000Y-32352500D01*
X133255000Y-30858000D01*
X133274685Y-30790961D01*
X133327489Y-30745206D01*
X133379000Y-30734000D01*
X136431000Y-30734000D01*
X136498039Y-30753685D01*
X136543794Y-30806489D01*
X136555000Y-30858000D01*
X136555000Y-32352500D01*
X138905000Y-32352500D01*
X138905000Y-30858000D01*
X138924685Y-30790961D01*
X138977489Y-30745206D01*
X139029000Y-30734000D01*
X146942000Y-30734000D01*
X147009039Y-30753685D01*
X147054794Y-30806489D01*
X147066000Y-30858000D01*
X147066000Y-192661338D01*
X147046315Y-192728377D01*
X146993511Y-192774132D01*
X146941340Y-192785336D01*
X99437340Y-192532656D01*
X99370407Y-192512615D01*
X99324933Y-192459569D01*
X99314000Y-192408658D01*
X99314000Y-188722001D01*
X101118390Y-188722001D01*
X101138804Y-189007433D01*
X101199628Y-189287037D01*
X101199630Y-189287043D01*
X101199631Y-189287046D01*
X101299633Y-189555161D01*
X101299635Y-189555166D01*
X101436770Y-189806309D01*
X101436775Y-189806317D01*
X101608254Y-190035387D01*
X101608270Y-190035405D01*
X101810594Y-190237729D01*
X101810612Y-190237745D01*
X102039682Y-190409224D01*
X102039690Y-190409229D01*
X102290833Y-190546364D01*
X102290832Y-190546364D01*
X102290836Y-190546365D01*
X102290839Y-190546367D01*
X102558954Y-190646369D01*
X102558960Y-190646370D01*
X102558962Y-190646371D01*
X102838566Y-190707195D01*
X102838568Y-190707195D01*
X102838572Y-190707196D01*
X103052552Y-190722500D01*
X103195448Y-190722500D01*
X103409428Y-190707196D01*
X103611556Y-190663226D01*
X103689037Y-190646371D01*
X103689037Y-190646370D01*
X103689046Y-190646369D01*
X103957161Y-190546367D01*
X103998361Y-190523870D01*
X119919500Y-190523870D01*
X119919501Y-190523876D01*
X119925908Y-190583483D01*
X119976202Y-190718328D01*
X119976206Y-190718335D01*
X120062452Y-190833544D01*
X120062455Y-190833547D01*
X120177664Y-190919793D01*
X120177671Y-190919797D01*
X120312517Y-190970091D01*
X120312516Y-190970091D01*
X120319444Y-190970835D01*
X120372127Y-190976500D01*
X123467872Y-190976499D01*
X123527483Y-190970091D01*
X123662331Y-190919796D01*
X123777546Y-190833546D01*
X123863796Y-190718331D01*
X123914091Y-190583483D01*
X123920500Y-190523873D01*
X123920500Y-188976001D01*
X124994891Y-188976001D01*
X125015300Y-189261362D01*
X125076109Y-189540895D01*
X125176091Y-189808958D01*
X125313191Y-190060038D01*
X125313196Y-190060046D01*
X125419882Y-190202561D01*
X125419883Y-190202562D01*
X126315195Y-189307250D01*
X126337340Y-189358587D01*
X126443433Y-189501094D01*
X126579530Y-189615294D01*
X126669216Y-189660335D01*
X125773436Y-190556115D01*
X125915960Y-190662807D01*
X125915961Y-190662808D01*
X126167042Y-190799908D01*
X126167041Y-190799908D01*
X126435104Y-190899890D01*
X126714637Y-190960699D01*
X126999999Y-190981109D01*
X127000001Y-190981109D01*
X127285362Y-190960699D01*
X127564895Y-190899890D01*
X127832958Y-190799908D01*
X128084047Y-190662803D01*
X128226561Y-190556116D01*
X128226562Y-190556115D01*
X127333748Y-189663300D01*
X127343409Y-189659784D01*
X127491844Y-189562157D01*
X127613764Y-189432930D01*
X127685768Y-189308215D01*
X128580115Y-190202562D01*
X128580116Y-190202561D01*
X128686803Y-190060047D01*
X128823908Y-189808958D01*
X128923890Y-189540895D01*
X128984699Y-189261362D01*
X129005109Y-188976001D01*
X141250390Y-188976001D01*
X141270804Y-189261433D01*
X141331628Y-189541037D01*
X141331630Y-189541043D01*
X141331631Y-189541046D01*
X141430572Y-189806317D01*
X141431635Y-189809166D01*
X141568770Y-190060309D01*
X141568775Y-190060317D01*
X141740254Y-190289387D01*
X141740270Y-190289405D01*
X141942594Y-190491729D01*
X141942612Y-190491745D01*
X142171682Y-190663224D01*
X142171690Y-190663229D01*
X142422833Y-190800364D01*
X142422832Y-190800364D01*
X142422836Y-190800365D01*
X142422839Y-190800367D01*
X142690954Y-190900369D01*
X142690960Y-190900370D01*
X142690962Y-190900371D01*
X142970566Y-190961195D01*
X142970568Y-190961195D01*
X142970572Y-190961196D01*
X143184552Y-190976500D01*
X143327448Y-190976500D01*
X143541428Y-190961196D01*
X143731742Y-190919796D01*
X143821037Y-190900371D01*
X143821037Y-190900370D01*
X143821046Y-190900369D01*
X144089161Y-190800367D01*
X144340315Y-190663226D01*
X144569395Y-190491739D01*
X144771739Y-190289395D01*
X144943226Y-190060315D01*
X145080367Y-189809161D01*
X145180369Y-189541046D01*
X145241196Y-189261428D01*
X145261610Y-188976000D01*
X145241196Y-188690572D01*
X145237358Y-188672930D01*
X145180371Y-188410962D01*
X145180370Y-188410960D01*
X145180369Y-188410954D01*
X145080367Y-188142839D01*
X144943372Y-187891953D01*
X144943229Y-187891690D01*
X144943224Y-187891682D01*
X144771745Y-187662612D01*
X144771729Y-187662594D01*
X144569405Y-187460270D01*
X144569387Y-187460254D01*
X144340317Y-187288775D01*
X144340309Y-187288770D01*
X144089166Y-187151635D01*
X144089167Y-187151635D01*
X143981915Y-187111632D01*
X143821046Y-187051631D01*
X143821043Y-187051630D01*
X143821037Y-187051628D01*
X143541433Y-186990804D01*
X143327448Y-186975500D01*
X143184552Y-186975500D01*
X142970566Y-186990804D01*
X142690962Y-187051628D01*
X142422833Y-187151635D01*
X142171690Y-187288770D01*
X142171682Y-187288775D01*
X141942612Y-187460254D01*
X141942594Y-187460270D01*
X141740270Y-187662594D01*
X141740254Y-187662612D01*
X141568775Y-187891682D01*
X141568770Y-187891690D01*
X141431635Y-188142833D01*
X141331628Y-188410962D01*
X141270804Y-188690566D01*
X141250390Y-188975998D01*
X141250390Y-188976001D01*
X129005109Y-188976001D01*
X129005109Y-188975998D01*
X128984699Y-188690637D01*
X128923890Y-188411104D01*
X128823908Y-188143041D01*
X128686808Y-187891961D01*
X128686807Y-187891960D01*
X128580115Y-187749436D01*
X127684803Y-188644747D01*
X127662660Y-188593413D01*
X127556567Y-188450906D01*
X127420470Y-188336706D01*
X127330782Y-188291663D01*
X128226562Y-187395883D01*
X128226561Y-187395882D01*
X128084046Y-187289196D01*
X128084038Y-187289191D01*
X127832957Y-187152091D01*
X127832958Y-187152091D01*
X127564895Y-187052109D01*
X127285362Y-186991300D01*
X127000001Y-186970891D01*
X126999999Y-186970891D01*
X126714637Y-186991300D01*
X126435104Y-187052109D01*
X126167041Y-187152091D01*
X125915961Y-187289191D01*
X125915953Y-187289196D01*
X125773437Y-187395882D01*
X125773436Y-187395883D01*
X126666252Y-188288699D01*
X126656591Y-188292216D01*
X126508156Y-188389843D01*
X126386236Y-188519070D01*
X126314231Y-188643784D01*
X125419883Y-187749436D01*
X125419882Y-187749437D01*
X125313196Y-187891953D01*
X125313191Y-187891961D01*
X125176091Y-188143041D01*
X125076109Y-188411104D01*
X125015300Y-188690637D01*
X124994891Y-188975998D01*
X124994891Y-188976001D01*
X123920500Y-188976001D01*
X123920499Y-187428128D01*
X123914091Y-187368517D01*
X123884506Y-187289196D01*
X123863797Y-187233671D01*
X123863793Y-187233664D01*
X123777547Y-187118455D01*
X123777544Y-187118452D01*
X123662335Y-187032206D01*
X123662328Y-187032202D01*
X123527482Y-186981908D01*
X123527483Y-186981908D01*
X123467883Y-186975501D01*
X123467881Y-186975500D01*
X123467873Y-186975500D01*
X123467864Y-186975500D01*
X120372129Y-186975500D01*
X120372123Y-186975501D01*
X120312516Y-186981908D01*
X120177671Y-187032202D01*
X120177664Y-187032206D01*
X120062455Y-187118452D01*
X120062452Y-187118455D01*
X119976206Y-187233664D01*
X119976202Y-187233671D01*
X119925908Y-187368517D01*
X119921598Y-187408612D01*
X119919501Y-187428123D01*
X119919500Y-187428135D01*
X119919500Y-190523870D01*
X103998361Y-190523870D01*
X104208315Y-190409226D01*
X104437395Y-190237739D01*
X104639739Y-190035395D01*
X104811226Y-189806315D01*
X104948367Y-189555161D01*
X105048369Y-189287046D01*
X105068294Y-189195454D01*
X105109195Y-189007433D01*
X105109195Y-189007432D01*
X105109196Y-189007428D01*
X105129610Y-188722000D01*
X105126100Y-188672930D01*
X105110221Y-188450906D01*
X105109196Y-188436572D01*
X105077793Y-188292216D01*
X105048371Y-188156962D01*
X105048370Y-188156960D01*
X105048369Y-188156954D01*
X104948367Y-187888839D01*
X104872247Y-187749437D01*
X104811229Y-187637690D01*
X104811224Y-187637682D01*
X104639745Y-187408612D01*
X104639729Y-187408594D01*
X104437405Y-187206270D01*
X104437387Y-187206254D01*
X104208317Y-187034775D01*
X104208309Y-187034770D01*
X103957166Y-186897635D01*
X103957167Y-186897635D01*
X103849915Y-186857632D01*
X103689046Y-186797631D01*
X103689043Y-186797630D01*
X103689037Y-186797628D01*
X103409433Y-186736804D01*
X103195448Y-186721500D01*
X103052552Y-186721500D01*
X102838566Y-186736804D01*
X102558962Y-186797628D01*
X102290833Y-186897635D01*
X102039690Y-187034770D01*
X102039682Y-187034775D01*
X101810612Y-187206254D01*
X101810594Y-187206270D01*
X101608270Y-187408594D01*
X101608254Y-187408612D01*
X101436775Y-187637682D01*
X101436770Y-187637690D01*
X101299635Y-187888833D01*
X101199628Y-188156962D01*
X101138804Y-188436566D01*
X101118390Y-188721998D01*
X101118390Y-188722001D01*
X99314000Y-188722001D01*
X99314000Y-182046000D01*
X102746179Y-182046000D01*
X102765424Y-182265976D01*
X102765426Y-182265986D01*
X102822575Y-182479270D01*
X102822580Y-182479284D01*
X102915899Y-182679407D01*
X102915900Y-182679409D01*
X102961258Y-182744187D01*
X103628096Y-182077349D01*
X103628051Y-182077898D01*
X103659266Y-182201162D01*
X103728813Y-182307612D01*
X103829157Y-182385713D01*
X103949422Y-182427000D01*
X103985553Y-182427000D01*
X103314811Y-183097741D01*
X103379582Y-183143094D01*
X103379592Y-183143100D01*
X103579715Y-183236419D01*
X103579729Y-183236424D01*
X103793013Y-183293573D01*
X103793023Y-183293575D01*
X104012999Y-183312821D01*
X104013001Y-183312821D01*
X104232976Y-183293575D01*
X104232986Y-183293573D01*
X104446270Y-183236424D01*
X104446284Y-183236419D01*
X104646408Y-183143100D01*
X104646420Y-183143093D01*
X104711186Y-183097742D01*
X104711187Y-183097740D01*
X104040448Y-182427000D01*
X104044569Y-182427000D01*
X104138421Y-182411339D01*
X104250251Y-182350820D01*
X104336371Y-182257269D01*
X104387448Y-182140823D01*
X104393105Y-182072552D01*
X105064740Y-182744187D01*
X105064742Y-182744186D01*
X105110093Y-182679420D01*
X105110100Y-182679408D01*
X105203419Y-182479284D01*
X105203424Y-182479270D01*
X105260573Y-182265986D01*
X105260575Y-182265976D01*
X105279821Y-182046000D01*
X142306179Y-182046000D01*
X142325424Y-182265976D01*
X142325426Y-182265986D01*
X142382575Y-182479270D01*
X142382580Y-182479284D01*
X142475899Y-182679407D01*
X142475900Y-182679409D01*
X142521258Y-182744187D01*
X143188096Y-182077349D01*
X143188051Y-182077898D01*
X143219266Y-182201162D01*
X143288813Y-182307612D01*
X143389157Y-182385713D01*
X143509422Y-182427000D01*
X143545553Y-182427000D01*
X142874811Y-183097741D01*
X142939582Y-183143094D01*
X142939592Y-183143100D01*
X143139715Y-183236419D01*
X143139729Y-183236424D01*
X143353013Y-183293573D01*
X143353023Y-183293575D01*
X143572999Y-183312821D01*
X143573001Y-183312821D01*
X143792976Y-183293575D01*
X143792986Y-183293573D01*
X144006270Y-183236424D01*
X144006284Y-183236419D01*
X144206408Y-183143100D01*
X144206420Y-183143093D01*
X144271186Y-183097742D01*
X144271187Y-183097740D01*
X143600448Y-182427000D01*
X143604569Y-182427000D01*
X143698421Y-182411339D01*
X143810251Y-182350820D01*
X143896371Y-182257269D01*
X143947448Y-182140823D01*
X143953105Y-182072552D01*
X144624740Y-182744187D01*
X144624742Y-182744186D01*
X144670093Y-182679420D01*
X144670100Y-182679408D01*
X144763419Y-182479284D01*
X144763424Y-182479270D01*
X144820573Y-182265986D01*
X144820575Y-182265976D01*
X144839821Y-182046000D01*
X144839821Y-182045999D01*
X144820575Y-181826023D01*
X144820573Y-181826013D01*
X144763424Y-181612729D01*
X144763420Y-181612720D01*
X144670098Y-181412590D01*
X144624740Y-181347811D01*
X143957903Y-182014648D01*
X143957949Y-182014102D01*
X143926734Y-181890838D01*
X143857187Y-181784388D01*
X143756843Y-181706287D01*
X143636578Y-181665000D01*
X143600447Y-181665000D01*
X144271187Y-180994258D01*
X144206409Y-180948900D01*
X144206407Y-180948899D01*
X144006284Y-180855580D01*
X144006270Y-180855575D01*
X143792986Y-180798426D01*
X143792976Y-180798424D01*
X143573001Y-180779179D01*
X143572999Y-180779179D01*
X143353023Y-180798424D01*
X143353013Y-180798426D01*
X143139729Y-180855575D01*
X143139720Y-180855579D01*
X142939586Y-180948903D01*
X142874812Y-180994257D01*
X142874811Y-180994258D01*
X143545554Y-181665000D01*
X143541431Y-181665000D01*
X143447579Y-181680661D01*
X143335749Y-181741180D01*
X143249629Y-181834731D01*
X143198552Y-181951177D01*
X143192894Y-182019447D01*
X142521258Y-181347811D01*
X142521257Y-181347812D01*
X142475903Y-181412586D01*
X142382579Y-181612720D01*
X142382575Y-181612729D01*
X142325426Y-181826013D01*
X142325424Y-181826023D01*
X142306179Y-182045999D01*
X142306179Y-182046000D01*
X105279821Y-182046000D01*
X105279821Y-182045999D01*
X105260575Y-181826023D01*
X105260573Y-181826013D01*
X105203424Y-181612729D01*
X105203420Y-181612720D01*
X105110098Y-181412590D01*
X105064740Y-181347811D01*
X104397903Y-182014648D01*
X104397949Y-182014102D01*
X104366734Y-181890838D01*
X104297187Y-181784388D01*
X104196843Y-181706287D01*
X104076578Y-181665000D01*
X104040447Y-181665000D01*
X104711187Y-180994258D01*
X104646409Y-180948900D01*
X104646407Y-180948899D01*
X104446284Y-180855580D01*
X104446270Y-180855575D01*
X104232986Y-180798426D01*
X104232976Y-180798424D01*
X104013001Y-180779179D01*
X104012999Y-180779179D01*
X103793023Y-180798424D01*
X103793013Y-180798426D01*
X103579729Y-180855575D01*
X103579720Y-180855579D01*
X103379586Y-180948903D01*
X103314812Y-180994257D01*
X103314811Y-180994258D01*
X103985554Y-181665000D01*
X103981431Y-181665000D01*
X103887579Y-181680661D01*
X103775749Y-181741180D01*
X103689629Y-181834731D01*
X103638552Y-181951177D01*
X103632894Y-182019447D01*
X102961258Y-181347811D01*
X102961257Y-181347812D01*
X102915903Y-181412586D01*
X102822579Y-181612720D01*
X102822575Y-181612729D01*
X102765426Y-181826013D01*
X102765424Y-181826023D01*
X102746179Y-182045999D01*
X102746179Y-182046000D01*
X99314000Y-182046000D01*
X99314000Y-164846002D01*
X102745677Y-164846002D01*
X102764929Y-165066062D01*
X102764930Y-165066070D01*
X102822104Y-165279445D01*
X102822105Y-165279447D01*
X102822106Y-165279450D01*
X102915466Y-165479662D01*
X102915468Y-165479666D01*
X103042170Y-165660615D01*
X103042175Y-165660621D01*
X103198378Y-165816824D01*
X103198384Y-165816829D01*
X103379333Y-165943531D01*
X103379335Y-165943532D01*
X103379338Y-165943534D01*
X103579550Y-166036894D01*
X103792932Y-166094070D01*
X103950123Y-166107822D01*
X104012998Y-166113323D01*
X104013000Y-166113323D01*
X104013002Y-166113323D01*
X104068017Y-166108509D01*
X104233068Y-166094070D01*
X104446450Y-166036894D01*
X104646662Y-165943534D01*
X104827620Y-165816826D01*
X104983826Y-165660620D01*
X105110534Y-165479662D01*
X105203894Y-165279450D01*
X105261070Y-165066068D01*
X105280323Y-164846002D01*
X142305677Y-164846002D01*
X142324929Y-165066062D01*
X142324930Y-165066070D01*
X142382104Y-165279445D01*
X142382105Y-165279447D01*
X142382106Y-165279450D01*
X142475466Y-165479662D01*
X142475468Y-165479666D01*
X142602170Y-165660615D01*
X142602175Y-165660621D01*
X142758378Y-165816824D01*
X142758384Y-165816829D01*
X142939333Y-165943531D01*
X142939335Y-165943532D01*
X142939338Y-165943534D01*
X143139550Y-166036894D01*
X143352932Y-166094070D01*
X143510123Y-166107822D01*
X143572998Y-166113323D01*
X143573000Y-166113323D01*
X143573002Y-166113323D01*
X143628017Y-166108509D01*
X143793068Y-166094070D01*
X144006450Y-166036894D01*
X144206662Y-165943534D01*
X144387620Y-165816826D01*
X144543826Y-165660620D01*
X144670534Y-165479662D01*
X144763894Y-165279450D01*
X144821070Y-165066068D01*
X144840323Y-164846000D01*
X144821070Y-164625932D01*
X144763894Y-164412550D01*
X144670534Y-164212339D01*
X144543826Y-164031380D01*
X144387620Y-163875174D01*
X144387616Y-163875171D01*
X144387615Y-163875170D01*
X144206666Y-163748468D01*
X144206662Y-163748466D01*
X144206660Y-163748465D01*
X144006450Y-163655106D01*
X144006447Y-163655105D01*
X144006445Y-163655104D01*
X143793070Y-163597930D01*
X143793062Y-163597929D01*
X143573002Y-163578677D01*
X143572998Y-163578677D01*
X143352937Y-163597929D01*
X143352929Y-163597930D01*
X143139554Y-163655104D01*
X143139548Y-163655107D01*
X142939340Y-163748465D01*
X142939338Y-163748466D01*
X142758377Y-163875175D01*
X142602175Y-164031377D01*
X142475466Y-164212338D01*
X142475465Y-164212340D01*
X142382107Y-164412548D01*
X142382104Y-164412554D01*
X142324930Y-164625929D01*
X142324929Y-164625937D01*
X142305677Y-164845997D01*
X142305677Y-164846002D01*
X105280323Y-164846002D01*
X105280323Y-164846000D01*
X105261070Y-164625932D01*
X105203894Y-164412550D01*
X105110534Y-164212339D01*
X104983826Y-164031380D01*
X104827620Y-163875174D01*
X104827616Y-163875171D01*
X104827615Y-163875170D01*
X104646666Y-163748468D01*
X104646662Y-163748466D01*
X104646660Y-163748465D01*
X104446450Y-163655106D01*
X104446447Y-163655105D01*
X104446445Y-163655104D01*
X104233070Y-163597930D01*
X104233062Y-163597929D01*
X104013002Y-163578677D01*
X104012998Y-163578677D01*
X103792937Y-163597929D01*
X103792929Y-163597930D01*
X103579554Y-163655104D01*
X103579548Y-163655107D01*
X103379340Y-163748465D01*
X103379338Y-163748466D01*
X103198377Y-163875175D01*
X103042175Y-164031377D01*
X102915466Y-164212338D01*
X102915465Y-164212340D01*
X102822107Y-164412548D01*
X102822104Y-164412554D01*
X102764930Y-164625929D01*
X102764929Y-164625937D01*
X102745677Y-164845997D01*
X102745677Y-164846002D01*
X99314000Y-164846002D01*
X99314000Y-150006952D01*
X99333685Y-149939913D01*
X99386489Y-149894158D01*
X99455647Y-149884214D01*
X99519203Y-149913239D01*
X99525681Y-149919271D01*
X101206194Y-151599784D01*
X101216019Y-151612048D01*
X101216240Y-151611866D01*
X101221210Y-151617873D01*
X101221213Y-151617876D01*
X101221214Y-151617877D01*
X101271651Y-151665241D01*
X101292530Y-151686120D01*
X101298004Y-151690366D01*
X101302442Y-151694156D01*
X101336418Y-151726062D01*
X101336422Y-151726064D01*
X101353973Y-151735713D01*
X101370231Y-151746392D01*
X101386064Y-151758674D01*
X101408015Y-151768172D01*
X101428837Y-151777183D01*
X101434081Y-151779752D01*
X101474908Y-151802197D01*
X101494312Y-151807179D01*
X101512710Y-151813478D01*
X101531105Y-151821438D01*
X101577129Y-151828726D01*
X101582832Y-151829907D01*
X101627981Y-151841500D01*
X101648016Y-151841500D01*
X101667413Y-151843026D01*
X101687196Y-151846160D01*
X101733584Y-151841775D01*
X101739422Y-151841500D01*
X102440850Y-151841500D01*
X102507889Y-151861185D01*
X102553644Y-151913989D01*
X102554405Y-151915689D01*
X102561824Y-151932603D01*
X102697833Y-152140782D01*
X102697836Y-152140785D01*
X102866256Y-152323738D01*
X102949008Y-152388147D01*
X102989821Y-152444857D01*
X102993496Y-152514630D01*
X102958864Y-152575313D01*
X102949014Y-152583848D01*
X102890400Y-152629469D01*
X102866257Y-152648261D01*
X102697833Y-152831217D01*
X102561826Y-153039393D01*
X102461936Y-153267118D01*
X102400892Y-153508175D01*
X102400890Y-153508187D01*
X102380357Y-153755994D01*
X102380357Y-153756005D01*
X102400890Y-154003812D01*
X102400892Y-154003824D01*
X102461936Y-154244881D01*
X102561826Y-154472606D01*
X102697833Y-154680782D01*
X102697836Y-154680785D01*
X102866256Y-154863738D01*
X103062491Y-155016474D01*
X103281190Y-155134828D01*
X103516386Y-155215571D01*
X103761665Y-155256500D01*
X103792487Y-155256500D01*
X103859526Y-155276185D01*
X103905281Y-155328989D01*
X103915225Y-155398147D01*
X103886200Y-155461703D01*
X103827422Y-155499477D01*
X103820079Y-155501391D01*
X103788597Y-155508576D01*
X103788578Y-155508582D01*
X103544356Y-155604432D01*
X103317143Y-155735614D01*
X103112014Y-155899198D01*
X102933567Y-156091520D01*
X102785768Y-156308302D01*
X102785767Y-156308303D01*
X102671938Y-156544673D01*
X102594606Y-156795376D01*
X102594605Y-156795381D01*
X102594604Y-156795385D01*
X102579853Y-156893247D01*
X102555500Y-157054812D01*
X102555500Y-157317187D01*
X102572758Y-157431677D01*
X102594604Y-157576615D01*
X102594605Y-157576617D01*
X102594606Y-157576623D01*
X102671938Y-157827326D01*
X102785767Y-158063696D01*
X102785768Y-158063697D01*
X102785770Y-158063700D01*
X102785772Y-158063704D01*
X102879547Y-158201246D01*
X102933567Y-158280479D01*
X103112014Y-158472801D01*
X103112018Y-158472804D01*
X103112019Y-158472805D01*
X103317143Y-158636386D01*
X103544357Y-158767568D01*
X103788584Y-158863420D01*
X104044370Y-158921802D01*
X104044376Y-158921802D01*
X104044379Y-158921803D01*
X104240500Y-158936500D01*
X104240506Y-158936500D01*
X104371500Y-158936500D01*
X104567620Y-158921803D01*
X104567622Y-158921802D01*
X104567630Y-158921802D01*
X104823416Y-158863420D01*
X105067643Y-158767568D01*
X105294857Y-158636386D01*
X105499981Y-158472805D01*
X105678433Y-158280479D01*
X105826228Y-158063704D01*
X105940063Y-157827323D01*
X106017396Y-157576615D01*
X106056500Y-157317182D01*
X106056500Y-157054818D01*
X106017396Y-156795385D01*
X105940063Y-156544677D01*
X105918267Y-156499417D01*
X105826232Y-156308303D01*
X105826231Y-156308302D01*
X105826230Y-156308301D01*
X105826228Y-156308296D01*
X105678433Y-156091521D01*
X105623946Y-156032798D01*
X105499985Y-155899198D01*
X105359497Y-155787163D01*
X105294857Y-155735614D01*
X105067643Y-155604432D01*
X104823416Y-155508580D01*
X104823411Y-155508578D01*
X104823402Y-155508576D01*
X104605818Y-155458914D01*
X104567630Y-155450198D01*
X104567629Y-155450197D01*
X104567625Y-155450197D01*
X104567620Y-155450196D01*
X104371500Y-155435500D01*
X104371494Y-155435500D01*
X104358075Y-155435500D01*
X104291036Y-155415815D01*
X104245281Y-155363011D01*
X104235337Y-155293853D01*
X104264362Y-155230297D01*
X104317812Y-155194219D01*
X104396976Y-155167040D01*
X104490810Y-155134828D01*
X104709509Y-155016474D01*
X104905744Y-154863738D01*
X105074164Y-154680785D01*
X105210173Y-154472607D01*
X105310063Y-154244881D01*
X105371108Y-154003821D01*
X105381011Y-153884297D01*
X105406165Y-153819115D01*
X105462567Y-153777877D01*
X105532310Y-153773679D01*
X105592267Y-153806858D01*
X105846572Y-154061162D01*
X106272181Y-154486771D01*
X106305666Y-154548094D01*
X106308500Y-154574452D01*
X106308500Y-160717033D01*
X106306775Y-160732650D01*
X106307061Y-160732677D01*
X106306326Y-160740443D01*
X106308500Y-160809592D01*
X106308500Y-160839128D01*
X106308500Y-160839134D01*
X106308501Y-160839138D01*
X106309368Y-160846009D01*
X106309826Y-160851828D01*
X106311290Y-160898402D01*
X106311291Y-160898405D01*
X106316880Y-160917645D01*
X106320824Y-160936689D01*
X106323336Y-160956569D01*
X106340490Y-160999897D01*
X106342382Y-161005425D01*
X106355381Y-161050166D01*
X106365580Y-161067412D01*
X106374138Y-161084881D01*
X106381514Y-161103510D01*
X106408898Y-161141201D01*
X106412106Y-161146085D01*
X106435827Y-161186194D01*
X106435833Y-161186202D01*
X106449990Y-161200358D01*
X106462628Y-161215154D01*
X106474405Y-161231364D01*
X106474406Y-161231365D01*
X106510309Y-161261066D01*
X106514620Y-161264988D01*
X107161908Y-161912277D01*
X107177419Y-161927788D01*
X107187244Y-161940051D01*
X107187465Y-161939869D01*
X107192436Y-161945878D01*
X107218439Y-161970295D01*
X107242857Y-161993226D01*
X107263751Y-162014120D01*
X107269233Y-162018373D01*
X107273665Y-162022157D01*
X107307640Y-162054062D01*
X107325198Y-162063714D01*
X107341455Y-162074393D01*
X107357286Y-162086673D01*
X107376959Y-162095186D01*
X107400055Y-162105182D01*
X107405299Y-162107750D01*
X107446130Y-162130197D01*
X107458745Y-162133435D01*
X107465527Y-162135177D01*
X107483941Y-162141481D01*
X107502326Y-162149438D01*
X107548379Y-162156732D01*
X107554048Y-162157906D01*
X107599203Y-162169500D01*
X107619238Y-162169500D01*
X107638635Y-162171026D01*
X107658418Y-162174160D01*
X107704806Y-162169775D01*
X107710644Y-162169500D01*
X140520252Y-162169500D01*
X140587291Y-162189185D01*
X140612400Y-162210526D01*
X140618126Y-162216885D01*
X140618130Y-162216889D01*
X140771265Y-162328148D01*
X140771270Y-162328151D01*
X140944192Y-162405142D01*
X140944197Y-162405144D01*
X141129354Y-162444500D01*
X141129355Y-162444500D01*
X141318644Y-162444500D01*
X141318646Y-162444500D01*
X141503803Y-162405144D01*
X141676730Y-162328151D01*
X141829871Y-162216888D01*
X141956533Y-162076216D01*
X142051179Y-161912284D01*
X142109674Y-161732256D01*
X142129460Y-161544000D01*
X142109674Y-161355744D01*
X142051179Y-161175716D01*
X141956533Y-161011784D01*
X141835157Y-160876983D01*
X141804928Y-160813993D01*
X141813553Y-160744658D01*
X141858294Y-160690992D01*
X141874897Y-160681633D01*
X141901830Y-160669075D01*
X142095401Y-160533535D01*
X142217329Y-160411606D01*
X142278648Y-160378124D01*
X142348340Y-160383108D01*
X142404274Y-160424979D01*
X142421189Y-160455957D01*
X142470202Y-160587368D01*
X142470206Y-160587375D01*
X142556452Y-160702584D01*
X142556455Y-160702587D01*
X142671664Y-160788833D01*
X142671671Y-160788837D01*
X142806517Y-160839131D01*
X142806516Y-160839131D01*
X142813444Y-160839875D01*
X142866127Y-160845540D01*
X144661872Y-160845539D01*
X144721483Y-160839131D01*
X144856331Y-160788836D01*
X144971546Y-160702586D01*
X145057796Y-160587371D01*
X145108091Y-160452523D01*
X145114500Y-160392913D01*
X145114499Y-158597168D01*
X145108091Y-158537557D01*
X145106810Y-158534123D01*
X145057797Y-158402711D01*
X145057793Y-158402704D01*
X144971547Y-158287495D01*
X144971544Y-158287492D01*
X144856335Y-158201246D01*
X144856328Y-158201242D01*
X144721482Y-158150948D01*
X144721483Y-158150948D01*
X144661883Y-158144541D01*
X144661881Y-158144540D01*
X144661873Y-158144540D01*
X144661865Y-158144540D01*
X142864324Y-158144540D01*
X142797285Y-158124855D01*
X142786405Y-158112299D01*
X142772534Y-158145384D01*
X142719652Y-158183346D01*
X142671673Y-158201241D01*
X142671664Y-158201246D01*
X142556455Y-158287492D01*
X142556452Y-158287495D01*
X142470206Y-158402704D01*
X142470203Y-158402709D01*
X142421189Y-158534123D01*
X142379317Y-158590056D01*
X142313853Y-158614473D01*
X142245580Y-158599621D01*
X142217326Y-158578470D01*
X142095402Y-158456546D01*
X142095395Y-158456541D01*
X141901834Y-158321007D01*
X141901830Y-158321005D01*
X141901828Y-158321004D01*
X141687663Y-158221137D01*
X141687659Y-158221136D01*
X141687655Y-158221134D01*
X141568901Y-158189315D01*
X141509240Y-158152950D01*
X141478711Y-158090103D01*
X141487006Y-158020728D01*
X141531491Y-157966850D01*
X141598043Y-157945575D01*
X141600994Y-157945540D01*
X142506257Y-157945540D01*
X142521877Y-157947264D01*
X142521904Y-157946979D01*
X142529660Y-157947711D01*
X142529667Y-157947713D01*
X142598814Y-157945540D01*
X142628350Y-157945540D01*
X142635230Y-157944670D01*
X142641037Y-157944212D01*
X142672425Y-157943226D01*
X142740047Y-157960796D01*
X142753938Y-157975844D01*
X142770611Y-157939337D01*
X142829387Y-157901563D01*
X142839390Y-157898658D01*
X142856629Y-157888462D01*
X142874103Y-157879902D01*
X142892727Y-157872528D01*
X142892727Y-157872527D01*
X142892732Y-157872526D01*
X142930449Y-157845122D01*
X142935305Y-157841932D01*
X142975420Y-157818210D01*
X142989589Y-157804039D01*
X143004379Y-157791408D01*
X143020587Y-157779634D01*
X143050299Y-157743716D01*
X143054212Y-157739416D01*
X143704812Y-157088818D01*
X143766135Y-157055333D01*
X143792493Y-157052499D01*
X144661871Y-157052499D01*
X144661872Y-157052499D01*
X144721483Y-157046091D01*
X144856331Y-156995796D01*
X144971546Y-156909546D01*
X145057796Y-156794331D01*
X145108091Y-156659483D01*
X145114500Y-156599873D01*
X145114499Y-154804128D01*
X145108091Y-154744517D01*
X145106810Y-154741083D01*
X145057797Y-154609671D01*
X145057793Y-154609664D01*
X144971547Y-154494455D01*
X144971544Y-154494452D01*
X144856335Y-154408206D01*
X144856328Y-154408202D01*
X144721482Y-154357908D01*
X144721483Y-154357908D01*
X144661883Y-154351501D01*
X144661881Y-154351500D01*
X144661873Y-154351500D01*
X144661864Y-154351500D01*
X142866129Y-154351500D01*
X142866123Y-154351501D01*
X142806516Y-154357908D01*
X142671671Y-154408202D01*
X142671664Y-154408206D01*
X142556455Y-154494452D01*
X142556452Y-154494455D01*
X142470206Y-154609664D01*
X142470203Y-154609669D01*
X142421189Y-154741083D01*
X142379317Y-154797016D01*
X142313853Y-154821433D01*
X142245580Y-154806581D01*
X142217326Y-154785430D01*
X142095402Y-154663506D01*
X142095395Y-154663501D01*
X141901834Y-154527967D01*
X141901830Y-154527965D01*
X141891376Y-154523090D01*
X141687663Y-154428097D01*
X141687659Y-154428096D01*
X141687655Y-154428094D01*
X141459413Y-154366938D01*
X141459403Y-154366936D01*
X141224001Y-154346341D01*
X141223999Y-154346341D01*
X140988596Y-154366936D01*
X140988586Y-154366938D01*
X140760344Y-154428094D01*
X140760335Y-154428098D01*
X140546171Y-154527964D01*
X140546169Y-154527965D01*
X140352597Y-154663505D01*
X140185508Y-154830594D01*
X140055269Y-155016595D01*
X140000692Y-155060219D01*
X139931193Y-155067412D01*
X139868839Y-155035890D01*
X139852119Y-155016594D01*
X139722113Y-154830926D01*
X139722108Y-154830920D01*
X139555082Y-154663894D01*
X139361578Y-154528399D01*
X139147492Y-154428570D01*
X139147486Y-154428567D01*
X138934000Y-154371364D01*
X138934000Y-155266498D01*
X138826315Y-155217320D01*
X138719763Y-155202000D01*
X138648237Y-155202000D01*
X138541685Y-155217320D01*
X138434000Y-155266498D01*
X138434000Y-154371364D01*
X138433999Y-154371364D01*
X138220513Y-154428567D01*
X138220507Y-154428570D01*
X138006422Y-154528399D01*
X138006420Y-154528400D01*
X137812926Y-154663886D01*
X137812920Y-154663891D01*
X137645891Y-154830920D01*
X137645890Y-154830922D01*
X137515880Y-155016595D01*
X137461303Y-155060219D01*
X137391804Y-155067412D01*
X137329450Y-155035890D01*
X137312730Y-155016594D01*
X137182494Y-154830597D01*
X137015402Y-154663506D01*
X137015395Y-154663501D01*
X136821834Y-154527967D01*
X136821830Y-154527965D01*
X136811376Y-154523090D01*
X136607663Y-154428097D01*
X136607659Y-154428096D01*
X136607655Y-154428094D01*
X136379413Y-154366938D01*
X136379403Y-154366936D01*
X136144001Y-154346341D01*
X136143999Y-154346341D01*
X135908596Y-154366936D01*
X135908586Y-154366938D01*
X135680344Y-154428094D01*
X135680335Y-154428098D01*
X135466171Y-154527964D01*
X135466169Y-154527965D01*
X135272597Y-154663505D01*
X135105505Y-154830597D01*
X134975575Y-155016158D01*
X134920998Y-155059783D01*
X134851500Y-155066977D01*
X134789145Y-155035454D01*
X134772425Y-155016158D01*
X134642494Y-154830597D01*
X134475402Y-154663506D01*
X134475395Y-154663501D01*
X134281834Y-154527967D01*
X134281830Y-154527965D01*
X134271376Y-154523090D01*
X134067663Y-154428097D01*
X134067659Y-154428096D01*
X134067655Y-154428094D01*
X133839413Y-154366938D01*
X133839403Y-154366936D01*
X133604001Y-154346341D01*
X133603999Y-154346341D01*
X133368596Y-154366936D01*
X133368586Y-154366938D01*
X133140344Y-154428094D01*
X133140335Y-154428098D01*
X132926171Y-154527964D01*
X132926169Y-154527965D01*
X132732597Y-154663505D01*
X132565505Y-154830597D01*
X132429965Y-155024169D01*
X132429964Y-155024171D01*
X132330098Y-155238335D01*
X132330094Y-155238344D01*
X132268938Y-155466586D01*
X132268936Y-155466596D01*
X132248341Y-155701999D01*
X132248341Y-155702000D01*
X132268936Y-155937403D01*
X132268938Y-155937413D01*
X132330094Y-156165655D01*
X132330096Y-156165659D01*
X132330097Y-156165663D01*
X132409801Y-156336588D01*
X132429965Y-156379830D01*
X132429967Y-156379834D01*
X132513700Y-156499417D01*
X132536027Y-156565623D01*
X132519017Y-156633390D01*
X132468069Y-156681203D01*
X132412125Y-156694540D01*
X131912142Y-156694540D01*
X131845103Y-156674855D01*
X131824461Y-156658221D01*
X130249963Y-155083722D01*
X130216478Y-155022399D01*
X130221462Y-154952707D01*
X130261480Y-154898189D01*
X130305744Y-154863738D01*
X130474164Y-154680785D01*
X130610173Y-154472607D01*
X130710063Y-154244881D01*
X130771108Y-154003821D01*
X130774717Y-153960268D01*
X130791643Y-153756005D01*
X130791643Y-153755994D01*
X130771109Y-153508187D01*
X130771107Y-153508175D01*
X130710063Y-153267118D01*
X130610173Y-153039393D01*
X130474166Y-152831217D01*
X130452557Y-152807744D01*
X130305744Y-152648262D01*
X130222991Y-152583852D01*
X130182179Y-152527143D01*
X130178504Y-152457370D01*
X130213136Y-152396687D01*
X130222985Y-152388151D01*
X130305744Y-152323738D01*
X130474164Y-152140785D01*
X130594262Y-151956960D01*
X132248341Y-151956960D01*
X132268936Y-152192363D01*
X132268938Y-152192373D01*
X132330094Y-152420615D01*
X132330096Y-152420619D01*
X132330097Y-152420623D01*
X132421259Y-152616120D01*
X132429965Y-152634790D01*
X132429967Y-152634794D01*
X132538281Y-152789481D01*
X132565505Y-152828361D01*
X132732599Y-152995455D01*
X132829384Y-153063225D01*
X132926165Y-153130992D01*
X132926167Y-153130993D01*
X132926170Y-153130995D01*
X133140337Y-153230863D01*
X133368592Y-153292023D01*
X133545034Y-153307460D01*
X133603999Y-153312619D01*
X133604000Y-153312619D01*
X133604001Y-153312619D01*
X133662966Y-153307460D01*
X133839408Y-153292023D01*
X134067663Y-153230863D01*
X134281830Y-153130995D01*
X134475401Y-152995455D01*
X134642495Y-152828361D01*
X134768602Y-152648262D01*
X134772425Y-152642802D01*
X134827002Y-152599177D01*
X134896500Y-152591983D01*
X134958855Y-152623506D01*
X134975575Y-152642802D01*
X135105500Y-152828355D01*
X135105505Y-152828361D01*
X135272599Y-152995455D01*
X135369384Y-153063225D01*
X135466165Y-153130992D01*
X135466167Y-153130993D01*
X135466170Y-153130995D01*
X135680337Y-153230863D01*
X135908592Y-153292023D01*
X136085034Y-153307460D01*
X136143999Y-153312619D01*
X136144000Y-153312619D01*
X136144001Y-153312619D01*
X136202966Y-153307460D01*
X136379408Y-153292023D01*
X136607663Y-153230863D01*
X136821830Y-153130995D01*
X137015401Y-152995455D01*
X137182495Y-152828361D01*
X137312730Y-152642365D01*
X137367307Y-152598741D01*
X137436805Y-152591547D01*
X137499160Y-152623070D01*
X137515879Y-152642365D01*
X137645890Y-152828038D01*
X137812917Y-152995065D01*
X138006421Y-153130560D01*
X138220507Y-153230389D01*
X138220516Y-153230393D01*
X138434000Y-153287594D01*
X138434000Y-152392461D01*
X138541685Y-152441640D01*
X138648237Y-152456960D01*
X138719763Y-152456960D01*
X138826315Y-152441640D01*
X138934000Y-152392461D01*
X138934000Y-153287593D01*
X139147483Y-153230393D01*
X139147492Y-153230389D01*
X139361578Y-153130560D01*
X139555082Y-152995065D01*
X139722105Y-152828042D01*
X139852119Y-152642365D01*
X139906696Y-152598741D01*
X139976195Y-152591548D01*
X140038549Y-152623070D01*
X140055269Y-152642365D01*
X140059398Y-152648262D01*
X140185505Y-152828361D01*
X140352599Y-152995455D01*
X140449384Y-153063225D01*
X140546165Y-153130992D01*
X140546167Y-153130993D01*
X140546170Y-153130995D01*
X140760337Y-153230863D01*
X140988592Y-153292023D01*
X141165034Y-153307460D01*
X141223999Y-153312619D01*
X141224000Y-153312619D01*
X141224001Y-153312619D01*
X141282966Y-153307460D01*
X141459408Y-153292023D01*
X141687663Y-153230863D01*
X141901830Y-153130995D01*
X142095401Y-152995455D01*
X142217329Y-152873526D01*
X142278648Y-152840044D01*
X142348340Y-152845028D01*
X142404274Y-152886899D01*
X142421189Y-152917877D01*
X142470202Y-153049288D01*
X142470206Y-153049295D01*
X142556452Y-153164504D01*
X142556455Y-153164507D01*
X142671664Y-153250753D01*
X142671671Y-153250757D01*
X142806517Y-153301051D01*
X142806516Y-153301051D01*
X142813444Y-153301795D01*
X142866127Y-153307460D01*
X144661872Y-153307459D01*
X144721483Y-153301051D01*
X144856331Y-153250756D01*
X144971546Y-153164506D01*
X145057796Y-153049291D01*
X145108091Y-152914443D01*
X145114500Y-152854833D01*
X145114499Y-151059088D01*
X145108091Y-150999477D01*
X145106810Y-150996043D01*
X145057797Y-150864631D01*
X145057793Y-150864624D01*
X144971547Y-150749415D01*
X144971544Y-150749412D01*
X144856335Y-150663166D01*
X144856328Y-150663162D01*
X144721482Y-150612868D01*
X144721483Y-150612868D01*
X144661883Y-150606461D01*
X144661881Y-150606460D01*
X144661873Y-150606460D01*
X144661864Y-150606460D01*
X142866129Y-150606460D01*
X142866123Y-150606461D01*
X142806516Y-150612868D01*
X142671671Y-150663162D01*
X142671664Y-150663166D01*
X142556455Y-150749412D01*
X142556452Y-150749415D01*
X142470206Y-150864624D01*
X142470203Y-150864629D01*
X142421189Y-150996043D01*
X142379317Y-151051976D01*
X142313853Y-151076393D01*
X142245580Y-151061541D01*
X142217326Y-151040390D01*
X142095402Y-150918466D01*
X142095395Y-150918461D01*
X141901834Y-150782927D01*
X141901830Y-150782925D01*
X141901828Y-150782924D01*
X141687663Y-150683057D01*
X141687659Y-150683056D01*
X141687655Y-150683054D01*
X141459413Y-150621898D01*
X141459403Y-150621896D01*
X141224001Y-150601301D01*
X141223999Y-150601301D01*
X140988596Y-150621896D01*
X140988586Y-150621898D01*
X140760344Y-150683054D01*
X140760335Y-150683058D01*
X140546171Y-150782924D01*
X140546169Y-150782925D01*
X140352597Y-150918465D01*
X140185508Y-151085554D01*
X140055269Y-151271555D01*
X140000692Y-151315179D01*
X139931193Y-151322372D01*
X139868839Y-151290850D01*
X139852119Y-151271554D01*
X139722113Y-151085886D01*
X139722108Y-151085880D01*
X139555082Y-150918854D01*
X139361578Y-150783359D01*
X139147492Y-150683530D01*
X139147486Y-150683527D01*
X138934000Y-150626324D01*
X138934000Y-151521458D01*
X138826315Y-151472280D01*
X138719763Y-151456960D01*
X138648237Y-151456960D01*
X138541685Y-151472280D01*
X138434000Y-151521458D01*
X138434000Y-150626324D01*
X138433999Y-150626324D01*
X138220513Y-150683527D01*
X138220507Y-150683530D01*
X138006422Y-150783359D01*
X138006420Y-150783360D01*
X137812926Y-150918846D01*
X137812920Y-150918851D01*
X137645891Y-151085880D01*
X137645890Y-151085882D01*
X137515880Y-151271555D01*
X137461303Y-151315179D01*
X137391804Y-151322372D01*
X137329450Y-151290850D01*
X137312730Y-151271554D01*
X137182494Y-151085557D01*
X137015402Y-150918466D01*
X137015395Y-150918461D01*
X136821834Y-150782927D01*
X136821830Y-150782925D01*
X136821828Y-150782924D01*
X136607663Y-150683057D01*
X136607659Y-150683056D01*
X136607655Y-150683054D01*
X136379413Y-150621898D01*
X136379403Y-150621896D01*
X136144001Y-150601301D01*
X136143999Y-150601301D01*
X135908596Y-150621896D01*
X135908586Y-150621898D01*
X135680344Y-150683054D01*
X135680335Y-150683058D01*
X135466171Y-150782924D01*
X135466169Y-150782925D01*
X135272597Y-150918465D01*
X135105505Y-151085557D01*
X134975575Y-151271118D01*
X134920998Y-151314743D01*
X134851500Y-151321937D01*
X134789145Y-151290414D01*
X134772425Y-151271118D01*
X134642494Y-151085557D01*
X134475402Y-150918466D01*
X134475395Y-150918461D01*
X134281834Y-150782927D01*
X134281830Y-150782925D01*
X134281828Y-150782924D01*
X134067663Y-150683057D01*
X134067659Y-150683056D01*
X134067655Y-150683054D01*
X133839413Y-150621898D01*
X133839403Y-150621896D01*
X133604001Y-150601301D01*
X133603999Y-150601301D01*
X133368596Y-150621896D01*
X133368586Y-150621898D01*
X133140344Y-150683054D01*
X133140335Y-150683058D01*
X132926171Y-150782924D01*
X132926169Y-150782925D01*
X132732597Y-150918465D01*
X132565505Y-151085557D01*
X132429965Y-151279129D01*
X132429964Y-151279131D01*
X132330098Y-151493295D01*
X132330094Y-151493304D01*
X132268938Y-151721546D01*
X132268936Y-151721556D01*
X132248341Y-151956959D01*
X132248341Y-151956960D01*
X130594262Y-151956960D01*
X130610173Y-151932607D01*
X130710063Y-151704881D01*
X130771108Y-151463821D01*
X130791643Y-151216000D01*
X130780861Y-151085886D01*
X130771109Y-150968187D01*
X130771107Y-150968175D01*
X130710063Y-150727118D01*
X130610173Y-150499393D01*
X130474166Y-150291217D01*
X130452557Y-150267744D01*
X130305744Y-150108262D01*
X130222991Y-150043852D01*
X130182179Y-149987143D01*
X130178504Y-149917370D01*
X130213136Y-149856687D01*
X130222985Y-149848151D01*
X130305744Y-149783738D01*
X130474164Y-149600785D01*
X130610173Y-149392607D01*
X130710063Y-149164881D01*
X130771108Y-148923821D01*
X130773537Y-148894507D01*
X130791643Y-148676005D01*
X130791643Y-148675994D01*
X130771109Y-148428187D01*
X130771107Y-148428175D01*
X130728499Y-148259920D01*
X132248341Y-148259920D01*
X132268936Y-148495323D01*
X132268938Y-148495333D01*
X132330094Y-148723575D01*
X132330096Y-148723579D01*
X132330097Y-148723583D01*
X132409801Y-148894508D01*
X132429965Y-148937750D01*
X132429967Y-148937754D01*
X132487940Y-149020547D01*
X132565505Y-149131321D01*
X132732599Y-149298415D01*
X132829384Y-149366185D01*
X132926165Y-149433952D01*
X132926167Y-149433953D01*
X132926170Y-149433955D01*
X133140337Y-149533823D01*
X133368592Y-149594983D01*
X133545034Y-149610420D01*
X133603999Y-149615579D01*
X133604000Y-149615579D01*
X133604001Y-149615579D01*
X133662966Y-149610420D01*
X133839408Y-149594983D01*
X134067663Y-149533823D01*
X134281830Y-149433955D01*
X134475401Y-149298415D01*
X134642495Y-149131321D01*
X134772425Y-148945762D01*
X134827002Y-148902137D01*
X134896500Y-148894943D01*
X134958855Y-148926466D01*
X134975575Y-148945762D01*
X135105500Y-149131315D01*
X135105505Y-149131321D01*
X135272599Y-149298415D01*
X135369384Y-149366185D01*
X135466165Y-149433952D01*
X135466167Y-149433953D01*
X135466170Y-149433955D01*
X135680337Y-149533823D01*
X135908592Y-149594983D01*
X136085034Y-149610420D01*
X136143999Y-149615579D01*
X136144000Y-149615579D01*
X136144001Y-149615579D01*
X136202966Y-149610420D01*
X136379408Y-149594983D01*
X136607663Y-149533823D01*
X136821830Y-149433955D01*
X137015401Y-149298415D01*
X137182495Y-149131321D01*
X137312730Y-148945325D01*
X137367307Y-148901701D01*
X137436805Y-148894507D01*
X137499160Y-148926030D01*
X137515879Y-148945325D01*
X137645890Y-149130998D01*
X137812917Y-149298025D01*
X138006421Y-149433520D01*
X138220507Y-149533349D01*
X138220516Y-149533353D01*
X138434000Y-149590554D01*
X138434000Y-148695421D01*
X138541685Y-148744600D01*
X138648237Y-148759920D01*
X138719763Y-148759920D01*
X138826315Y-148744600D01*
X138934000Y-148695421D01*
X138934000Y-149590553D01*
X139147483Y-149533353D01*
X139147492Y-149533349D01*
X139361578Y-149433520D01*
X139555082Y-149298025D01*
X139722105Y-149131002D01*
X139852119Y-148945325D01*
X139906696Y-148901701D01*
X139976195Y-148894508D01*
X140038549Y-148926030D01*
X140055269Y-148945325D01*
X140185505Y-149131321D01*
X140352599Y-149298415D01*
X140449384Y-149366185D01*
X140546165Y-149433952D01*
X140546167Y-149433953D01*
X140546170Y-149433955D01*
X140760337Y-149533823D01*
X140988592Y-149594983D01*
X141165034Y-149610420D01*
X141223999Y-149615579D01*
X141224000Y-149615579D01*
X141224001Y-149615579D01*
X141282966Y-149610420D01*
X141459408Y-149594983D01*
X141687663Y-149533823D01*
X141901830Y-149433955D01*
X142095401Y-149298415D01*
X142217329Y-149176486D01*
X142278648Y-149143004D01*
X142348340Y-149147988D01*
X142404274Y-149189859D01*
X142421189Y-149220837D01*
X142470202Y-149352248D01*
X142470206Y-149352255D01*
X142556452Y-149467464D01*
X142556455Y-149467467D01*
X142671664Y-149553713D01*
X142671671Y-149553717D01*
X142806517Y-149604011D01*
X142806516Y-149604011D01*
X142813444Y-149604755D01*
X142866127Y-149610420D01*
X144661872Y-149610419D01*
X144721483Y-149604011D01*
X144856331Y-149553716D01*
X144971546Y-149467466D01*
X145057796Y-149352251D01*
X145108091Y-149217403D01*
X145114500Y-149157793D01*
X145114499Y-147362048D01*
X145108091Y-147302437D01*
X145106810Y-147299003D01*
X145057797Y-147167591D01*
X145057793Y-147167584D01*
X144971547Y-147052375D01*
X144971544Y-147052372D01*
X144856335Y-146966126D01*
X144856328Y-146966122D01*
X144721482Y-146915828D01*
X144721483Y-146915828D01*
X144661883Y-146909421D01*
X144661881Y-146909420D01*
X144661873Y-146909420D01*
X144661864Y-146909420D01*
X142866129Y-146909420D01*
X142866123Y-146909421D01*
X142806516Y-146915828D01*
X142671671Y-146966122D01*
X142671664Y-146966126D01*
X142556455Y-147052372D01*
X142556452Y-147052375D01*
X142470206Y-147167584D01*
X142470203Y-147167589D01*
X142421189Y-147299003D01*
X142379317Y-147354936D01*
X142313853Y-147379353D01*
X142245580Y-147364501D01*
X142217326Y-147343350D01*
X142095402Y-147221426D01*
X142095395Y-147221421D01*
X141901834Y-147085887D01*
X141901830Y-147085885D01*
X141848003Y-147060785D01*
X141687663Y-146986017D01*
X141687659Y-146986016D01*
X141687655Y-146986014D01*
X141459413Y-146924858D01*
X141459403Y-146924856D01*
X141224001Y-146904261D01*
X141223999Y-146904261D01*
X140988596Y-146924856D01*
X140988586Y-146924858D01*
X140760344Y-146986014D01*
X140760335Y-146986018D01*
X140546171Y-147085884D01*
X140546169Y-147085885D01*
X140352597Y-147221425D01*
X140185508Y-147388514D01*
X140055269Y-147574515D01*
X140000692Y-147618139D01*
X139931193Y-147625332D01*
X139868839Y-147593810D01*
X139852119Y-147574514D01*
X139722113Y-147388846D01*
X139722108Y-147388840D01*
X139555082Y-147221814D01*
X139361578Y-147086319D01*
X139147492Y-146986490D01*
X139147486Y-146986487D01*
X138934000Y-146929284D01*
X138934000Y-147824418D01*
X138826315Y-147775240D01*
X138719763Y-147759920D01*
X138648237Y-147759920D01*
X138541685Y-147775240D01*
X138434000Y-147824418D01*
X138434000Y-146929284D01*
X138433999Y-146929284D01*
X138220513Y-146986487D01*
X138220507Y-146986490D01*
X138006422Y-147086319D01*
X138006420Y-147086320D01*
X137812926Y-147221806D01*
X137812920Y-147221811D01*
X137645891Y-147388840D01*
X137645890Y-147388842D01*
X137515880Y-147574515D01*
X137461303Y-147618139D01*
X137391804Y-147625332D01*
X137329450Y-147593810D01*
X137312730Y-147574514D01*
X137182494Y-147388517D01*
X137015402Y-147221426D01*
X137015395Y-147221421D01*
X136821834Y-147085887D01*
X136821830Y-147085885D01*
X136768003Y-147060785D01*
X136607663Y-146986017D01*
X136607659Y-146986016D01*
X136607655Y-146986014D01*
X136379413Y-146924858D01*
X136379403Y-146924856D01*
X136144001Y-146904261D01*
X136143611Y-146904261D01*
X136143445Y-146904212D01*
X136138606Y-146903789D01*
X136138691Y-146902816D01*
X136076572Y-146884576D01*
X136030817Y-146831772D01*
X136020873Y-146762614D01*
X136049898Y-146699058D01*
X136055930Y-146692580D01*
X137101392Y-145647119D01*
X138301692Y-144446819D01*
X138363015Y-144413334D01*
X138389373Y-144410500D01*
X138524644Y-144410500D01*
X138524646Y-144410500D01*
X138709803Y-144371144D01*
X138882730Y-144294151D01*
X139035871Y-144182888D01*
X139162533Y-144042216D01*
X139257179Y-143878284D01*
X139315674Y-143698256D01*
X139335460Y-143510000D01*
X139315674Y-143321744D01*
X139257179Y-143141716D01*
X139162533Y-142977784D01*
X139035871Y-142837112D01*
X139035870Y-142837111D01*
X138882734Y-142725851D01*
X138882729Y-142725848D01*
X138709807Y-142648857D01*
X138709802Y-142648855D01*
X138564001Y-142617865D01*
X138524646Y-142609500D01*
X138335354Y-142609500D01*
X138302897Y-142616398D01*
X138150197Y-142648855D01*
X138150192Y-142648857D01*
X137977270Y-142725848D01*
X137977265Y-142725851D01*
X137824129Y-142837111D01*
X137697466Y-142977785D01*
X137602821Y-143141715D01*
X137602818Y-143141722D01*
X137558491Y-143278148D01*
X137544326Y-143321744D01*
X137541548Y-143348175D01*
X137535614Y-143404635D01*
X137509029Y-143469250D01*
X137499974Y-143479354D01*
X134059646Y-146919681D01*
X133998323Y-146953166D01*
X133939873Y-146951775D01*
X133839408Y-146924857D01*
X133604001Y-146904261D01*
X133603999Y-146904261D01*
X133368596Y-146924856D01*
X133368586Y-146924858D01*
X133140344Y-146986014D01*
X133140335Y-146986018D01*
X132926171Y-147085884D01*
X132926169Y-147085885D01*
X132732597Y-147221425D01*
X132565505Y-147388517D01*
X132429965Y-147582089D01*
X132429964Y-147582091D01*
X132330098Y-147796255D01*
X132330094Y-147796264D01*
X132268938Y-148024506D01*
X132268936Y-148024516D01*
X132248341Y-148259919D01*
X132248341Y-148259920D01*
X130728499Y-148259920D01*
X130710063Y-148187118D01*
X130610173Y-147959393D01*
X130474166Y-147751217D01*
X130452557Y-147727744D01*
X130305744Y-147568262D01*
X130222991Y-147503852D01*
X130182179Y-147447143D01*
X130178504Y-147377370D01*
X130213136Y-147316687D01*
X130222985Y-147308151D01*
X130305744Y-147243738D01*
X130474164Y-147060785D01*
X130610173Y-146852607D01*
X130710063Y-146624881D01*
X130771108Y-146383821D01*
X130781012Y-146264300D01*
X130791643Y-146136005D01*
X130791643Y-146135994D01*
X130771109Y-145888187D01*
X130771107Y-145888175D01*
X130710063Y-145647118D01*
X130610173Y-145419393D01*
X130474166Y-145211217D01*
X130452557Y-145187744D01*
X130305744Y-145028262D01*
X130222991Y-144963852D01*
X130182179Y-144907143D01*
X130178504Y-144837370D01*
X130213136Y-144776687D01*
X130222985Y-144768151D01*
X130305744Y-144703738D01*
X130474164Y-144520785D01*
X130610173Y-144312607D01*
X130710063Y-144084881D01*
X130771108Y-143843821D01*
X130791643Y-143596000D01*
X130781977Y-143479354D01*
X130771109Y-143348187D01*
X130771107Y-143348175D01*
X130710063Y-143107118D01*
X130610173Y-142879393D01*
X130474166Y-142671217D01*
X130410712Y-142602288D01*
X130305744Y-142488262D01*
X130222991Y-142423852D01*
X130182179Y-142367143D01*
X130178504Y-142297370D01*
X130213136Y-142236687D01*
X130222985Y-142228151D01*
X130305744Y-142163738D01*
X130474164Y-141980785D01*
X130610173Y-141772607D01*
X130710063Y-141544881D01*
X130771108Y-141303821D01*
X130791643Y-141056000D01*
X130771108Y-140808179D01*
X130710063Y-140567119D01*
X130610173Y-140339393D01*
X130474166Y-140131217D01*
X130452557Y-140107744D01*
X130305744Y-139948262D01*
X130222991Y-139883852D01*
X130182179Y-139827143D01*
X130178504Y-139757370D01*
X130213136Y-139696687D01*
X130222985Y-139688151D01*
X130305744Y-139623738D01*
X130474164Y-139440785D01*
X130610173Y-139232607D01*
X130710063Y-139004881D01*
X130771108Y-138763821D01*
X130775716Y-138708214D01*
X130791643Y-138516005D01*
X130791643Y-138515994D01*
X130771109Y-138268187D01*
X130771107Y-138268175D01*
X130710063Y-138027118D01*
X130610173Y-137799393D01*
X130474166Y-137591217D01*
X130452557Y-137567744D01*
X130305744Y-137408262D01*
X130222991Y-137343852D01*
X130182179Y-137287143D01*
X130178504Y-137217370D01*
X130213136Y-137156687D01*
X130222985Y-137148151D01*
X130305744Y-137083738D01*
X130474164Y-136900785D01*
X130610173Y-136692607D01*
X130710063Y-136464881D01*
X130771108Y-136223821D01*
X130791643Y-135976000D01*
X130773762Y-135760212D01*
X130771109Y-135728187D01*
X130771107Y-135728175D01*
X130710063Y-135487118D01*
X130610173Y-135259393D01*
X130474166Y-135051217D01*
X130452557Y-135027744D01*
X130305744Y-134868262D01*
X130222991Y-134803852D01*
X130182179Y-134747143D01*
X130178504Y-134677370D01*
X130213136Y-134616687D01*
X130222985Y-134608151D01*
X130305744Y-134543738D01*
X130474164Y-134360785D01*
X130610173Y-134152607D01*
X130710063Y-133924881D01*
X130771108Y-133683821D01*
X130791643Y-133436000D01*
X130771108Y-133188179D01*
X130710063Y-132947119D01*
X130610173Y-132719393D01*
X130474166Y-132511217D01*
X130452557Y-132487744D01*
X130305744Y-132328262D01*
X130222991Y-132263852D01*
X130182179Y-132207143D01*
X130178504Y-132137370D01*
X130213136Y-132076687D01*
X130222985Y-132068151D01*
X130305744Y-132003738D01*
X130474164Y-131820785D01*
X130610173Y-131612607D01*
X130710063Y-131384881D01*
X130771108Y-131143821D01*
X130791643Y-130896000D01*
X130771108Y-130648179D01*
X130710063Y-130407119D01*
X130692031Y-130366011D01*
X130610173Y-130179393D01*
X130474166Y-129971217D01*
X130452557Y-129947744D01*
X130305744Y-129788262D01*
X130222991Y-129723852D01*
X130182179Y-129667143D01*
X130178504Y-129597370D01*
X130213136Y-129536687D01*
X130222985Y-129528151D01*
X130305744Y-129463738D01*
X130474164Y-129280785D01*
X130610173Y-129072607D01*
X130710063Y-128844881D01*
X130771108Y-128603821D01*
X130783170Y-128458256D01*
X130791643Y-128356005D01*
X130791643Y-128355994D01*
X130771109Y-128108187D01*
X130771107Y-128108175D01*
X130710063Y-127867118D01*
X130610173Y-127639393D01*
X130474166Y-127431217D01*
X130383917Y-127333181D01*
X130305744Y-127248262D01*
X130222991Y-127183852D01*
X130182179Y-127127143D01*
X130178504Y-127057370D01*
X130213136Y-126996687D01*
X130222985Y-126988151D01*
X130305744Y-126923738D01*
X130474164Y-126740785D01*
X130610173Y-126532607D01*
X130710063Y-126304881D01*
X130771108Y-126063821D01*
X130791643Y-125816000D01*
X130789830Y-125794121D01*
X130771109Y-125568187D01*
X130771107Y-125568175D01*
X130710063Y-125327118D01*
X130610173Y-125099393D01*
X130474166Y-124891217D01*
X130419483Y-124831816D01*
X130305744Y-124708262D01*
X130222991Y-124643852D01*
X130182179Y-124587143D01*
X130178504Y-124517370D01*
X130213136Y-124456687D01*
X130222985Y-124448151D01*
X130305744Y-124383738D01*
X130474164Y-124200785D01*
X130610173Y-123992607D01*
X130710063Y-123764881D01*
X130771108Y-123523821D01*
X130781397Y-123399655D01*
X130791643Y-123276005D01*
X130791643Y-123275994D01*
X130771109Y-123028187D01*
X130771107Y-123028175D01*
X130710063Y-122787118D01*
X130610173Y-122559393D01*
X130474166Y-122351217D01*
X130393061Y-122263114D01*
X130305744Y-122168262D01*
X130202253Y-122087712D01*
X130161442Y-122031003D01*
X130154655Y-121982176D01*
X130156056Y-121959609D01*
X129427365Y-121230918D01*
X129431161Y-121230373D01*
X129564562Y-121169451D01*
X129675395Y-121073413D01*
X129754682Y-120950040D01*
X129777133Y-120873580D01*
X130509434Y-121605882D01*
X130609731Y-121452369D01*
X130709588Y-121224716D01*
X130731943Y-121136439D01*
X130767482Y-121076283D01*
X130829903Y-121044891D01*
X130899386Y-121052229D01*
X130939830Y-121079198D01*
X132563181Y-122702549D01*
X132596666Y-122763872D01*
X132599500Y-122790230D01*
X132599500Y-141959677D01*
X132582887Y-142021677D01*
X132522821Y-142125714D01*
X132464327Y-142305740D01*
X132464326Y-142305744D01*
X132444540Y-142494000D01*
X132464326Y-142682256D01*
X132464327Y-142682259D01*
X132522818Y-142862277D01*
X132522821Y-142862284D01*
X132617467Y-143026216D01*
X132744129Y-143166888D01*
X132897265Y-143278148D01*
X132897270Y-143278151D01*
X133070192Y-143355142D01*
X133070197Y-143355144D01*
X133255354Y-143394500D01*
X133255355Y-143394500D01*
X133444644Y-143394500D01*
X133444646Y-143394500D01*
X133629803Y-143355144D01*
X133802730Y-143278151D01*
X133955871Y-143166888D01*
X134082533Y-143026216D01*
X134177179Y-142862284D01*
X134235674Y-142682256D01*
X134255460Y-142494000D01*
X134235674Y-142305744D01*
X134177179Y-142125716D01*
X134151748Y-142081667D01*
X134117113Y-142021677D01*
X134100500Y-141959677D01*
X134100500Y-122491705D01*
X134101809Y-122473735D01*
X134102129Y-122471547D01*
X134105289Y-122449977D01*
X134100735Y-122397931D01*
X134100500Y-122392528D01*
X134100500Y-122384297D01*
X134100500Y-122384291D01*
X134096693Y-122351724D01*
X134089999Y-122275203D01*
X134089999Y-122275201D01*
X134088539Y-122268129D01*
X134088597Y-122268116D01*
X134086965Y-122260757D01*
X134086906Y-122260772D01*
X134085242Y-122253753D01*
X134085241Y-122253745D01*
X134058974Y-122181576D01*
X134034814Y-122108666D01*
X134034809Y-122108659D01*
X134031760Y-122102118D01*
X134031815Y-122102091D01*
X134028533Y-122095313D01*
X134028480Y-122095340D01*
X134025235Y-122088880D01*
X133983028Y-122024708D01*
X133942710Y-121959342D01*
X133938234Y-121953682D01*
X133938281Y-121953644D01*
X133933519Y-121947799D01*
X133933474Y-121947838D01*
X133928834Y-121942308D01*
X133872964Y-121889596D01*
X130751434Y-118768067D01*
X130717949Y-118706744D01*
X130718910Y-118649945D01*
X130771105Y-118443833D01*
X130771105Y-118443832D01*
X130771108Y-118443821D01*
X130771109Y-118443812D01*
X130791643Y-118196005D01*
X130791643Y-118195994D01*
X130771109Y-117948187D01*
X130771107Y-117948175D01*
X130710063Y-117707118D01*
X130610173Y-117479393D01*
X130474166Y-117271217D01*
X130360855Y-117148129D01*
X130305744Y-117088262D01*
X130109509Y-116935526D01*
X130109507Y-116935525D01*
X130109506Y-116935524D01*
X129890811Y-116817172D01*
X129890802Y-116817169D01*
X129655616Y-116736429D01*
X129410335Y-116695500D01*
X129161665Y-116695500D01*
X128916383Y-116736429D01*
X128681197Y-116817169D01*
X128681188Y-116817172D01*
X128462493Y-116935524D01*
X128266257Y-117088261D01*
X128266256Y-117088262D01*
X128211145Y-117148129D01*
X128097836Y-117271215D01*
X128020673Y-117389322D01*
X127967526Y-117434678D01*
X127916864Y-117445500D01*
X115682500Y-117445500D01*
X115615461Y-117425815D01*
X115569706Y-117373011D01*
X115558500Y-117321500D01*
X115558500Y-115824000D01*
X122284540Y-115824000D01*
X122304326Y-116012256D01*
X122304327Y-116012259D01*
X122362818Y-116192277D01*
X122362821Y-116192284D01*
X122457467Y-116356216D01*
X122584129Y-116496888D01*
X122737265Y-116608148D01*
X122737270Y-116608151D01*
X122910192Y-116685142D01*
X122910197Y-116685144D01*
X123095354Y-116724500D01*
X123095355Y-116724500D01*
X123284644Y-116724500D01*
X123284646Y-116724500D01*
X123469803Y-116685144D01*
X123642730Y-116608151D01*
X123642734Y-116608148D01*
X123647563Y-116605998D01*
X123716813Y-116596712D01*
X123748437Y-116605998D01*
X123753265Y-116608148D01*
X123753270Y-116608151D01*
X123926197Y-116685144D01*
X124111354Y-116724500D01*
X124111355Y-116724500D01*
X124300644Y-116724500D01*
X124300646Y-116724500D01*
X124485803Y-116685144D01*
X124658730Y-116608151D01*
X124811871Y-116496888D01*
X124938533Y-116356216D01*
X125033179Y-116192284D01*
X125091674Y-116012256D01*
X125111460Y-115824000D01*
X125091674Y-115635744D01*
X125033179Y-115455716D01*
X124938533Y-115291784D01*
X124901141Y-115250256D01*
X124863350Y-115208284D01*
X124833120Y-115145292D01*
X124831500Y-115125312D01*
X124831500Y-115062000D01*
X131174540Y-115062000D01*
X131194326Y-115250256D01*
X131194327Y-115250259D01*
X131252818Y-115430277D01*
X131252821Y-115430284D01*
X131347467Y-115594216D01*
X131449185Y-115707185D01*
X131474129Y-115734888D01*
X131627265Y-115846148D01*
X131627270Y-115846151D01*
X131800192Y-115923142D01*
X131800197Y-115923144D01*
X131985354Y-115962500D01*
X131985355Y-115962500D01*
X132174644Y-115962500D01*
X132174646Y-115962500D01*
X132359803Y-115923144D01*
X132532730Y-115846151D01*
X132685871Y-115734888D01*
X132688788Y-115731647D01*
X132691600Y-115728526D01*
X132751087Y-115691879D01*
X132783748Y-115687500D01*
X136193501Y-115687500D01*
X136260540Y-115707185D01*
X136306295Y-115759989D01*
X136317501Y-115811500D01*
X136317501Y-116213876D01*
X136323908Y-116273483D01*
X136374202Y-116408328D01*
X136374206Y-116408335D01*
X136460452Y-116523544D01*
X136460455Y-116523547D01*
X136575664Y-116609793D01*
X136575671Y-116609797D01*
X136707081Y-116658810D01*
X136763015Y-116700681D01*
X136787432Y-116766145D01*
X136772580Y-116834418D01*
X136751430Y-116862673D01*
X136629503Y-116984600D01*
X136493965Y-117178169D01*
X136493964Y-117178171D01*
X136394098Y-117392335D01*
X136394094Y-117392344D01*
X136332938Y-117620586D01*
X136332936Y-117620596D01*
X136312341Y-117855999D01*
X136312341Y-117856000D01*
X136332936Y-118091403D01*
X136332938Y-118091413D01*
X136394094Y-118319655D01*
X136394096Y-118319659D01*
X136394097Y-118319663D01*
X136420048Y-118375314D01*
X136493965Y-118533830D01*
X136493967Y-118533834D01*
X136629501Y-118727395D01*
X136629506Y-118727402D01*
X136796597Y-118894493D01*
X136796603Y-118894498D01*
X136845550Y-118928771D01*
X136970771Y-119016452D01*
X136982594Y-119024730D01*
X137026219Y-119079307D01*
X137033413Y-119148805D01*
X137001890Y-119211160D01*
X136982595Y-119227880D01*
X136796922Y-119357890D01*
X136796920Y-119357891D01*
X136629891Y-119524920D01*
X136629886Y-119524926D01*
X136494400Y-119718420D01*
X136494399Y-119718422D01*
X136394570Y-119932507D01*
X136394567Y-119932513D01*
X136337364Y-120145999D01*
X136337364Y-120146000D01*
X137234314Y-120146000D01*
X137208507Y-120186156D01*
X137168000Y-120324111D01*
X137168000Y-120467889D01*
X137208507Y-120605844D01*
X137234314Y-120646000D01*
X136337364Y-120646000D01*
X136394567Y-120859486D01*
X136394570Y-120859492D01*
X136494399Y-121073578D01*
X136629894Y-121267082D01*
X136796917Y-121434105D01*
X136982595Y-121564119D01*
X137026219Y-121618696D01*
X137033412Y-121688195D01*
X137001890Y-121750549D01*
X136982595Y-121767269D01*
X136796594Y-121897508D01*
X136629505Y-122064597D01*
X136493965Y-122258169D01*
X136493964Y-122258171D01*
X136394098Y-122472335D01*
X136394094Y-122472344D01*
X136332938Y-122700586D01*
X136332936Y-122700596D01*
X136312341Y-122935999D01*
X136312341Y-122936000D01*
X136332936Y-123171403D01*
X136332938Y-123171413D01*
X136394094Y-123399655D01*
X136394096Y-123399659D01*
X136394097Y-123399663D01*
X136461487Y-123544181D01*
X136493965Y-123613830D01*
X136493967Y-123613834D01*
X136568412Y-123720151D01*
X136629505Y-123807401D01*
X136796599Y-123974495D01*
X136822466Y-123992607D01*
X136990165Y-124110032D01*
X136990167Y-124110033D01*
X136990170Y-124110035D01*
X137204337Y-124209903D01*
X137432592Y-124271063D01*
X137620918Y-124287539D01*
X137667999Y-124291659D01*
X137668000Y-124291659D01*
X137668001Y-124291659D01*
X137707234Y-124288226D01*
X137903408Y-124271063D01*
X138131663Y-124209903D01*
X138345830Y-124110035D01*
X138539401Y-123974495D01*
X138706495Y-123807401D01*
X138841652Y-123614377D01*
X138896229Y-123570752D01*
X138943227Y-123561500D01*
X143460752Y-123561500D01*
X143527791Y-123581185D01*
X143552900Y-123602526D01*
X143558626Y-123608885D01*
X143558630Y-123608889D01*
X143711765Y-123720148D01*
X143711770Y-123720151D01*
X143884692Y-123797142D01*
X143884697Y-123797144D01*
X144069854Y-123836500D01*
X144069855Y-123836500D01*
X144259144Y-123836500D01*
X144259146Y-123836500D01*
X144444303Y-123797144D01*
X144617230Y-123720151D01*
X144770371Y-123608888D01*
X144897033Y-123468216D01*
X144991679Y-123304284D01*
X145050174Y-123124256D01*
X145069960Y-122936000D01*
X145050174Y-122747744D01*
X144991679Y-122567716D01*
X144897033Y-122403784D01*
X144770371Y-122263112D01*
X144770370Y-122263111D01*
X144617234Y-122151851D01*
X144617229Y-122151848D01*
X144444307Y-122074857D01*
X144444302Y-122074855D01*
X144298501Y-122043865D01*
X144259146Y-122035500D01*
X144069854Y-122035500D01*
X144037397Y-122042398D01*
X143884697Y-122074855D01*
X143884692Y-122074857D01*
X143711770Y-122151848D01*
X143711765Y-122151851D01*
X143558630Y-122263110D01*
X143558626Y-122263114D01*
X143552900Y-122269474D01*
X143493413Y-122306121D01*
X143460752Y-122310500D01*
X138943227Y-122310500D01*
X138876188Y-122290815D01*
X138841652Y-122257623D01*
X138706494Y-122064597D01*
X138539402Y-121897506D01*
X138539401Y-121897505D01*
X138353405Y-121767269D01*
X138309781Y-121712692D01*
X138302588Y-121643193D01*
X138334110Y-121580839D01*
X138353405Y-121564119D01*
X138539082Y-121434105D01*
X138706105Y-121267082D01*
X138841600Y-121073578D01*
X138941429Y-120859492D01*
X138941432Y-120859486D01*
X138998636Y-120646000D01*
X138101686Y-120646000D01*
X138127493Y-120605844D01*
X138168000Y-120467889D01*
X138168000Y-120324111D01*
X138127493Y-120186156D01*
X138101686Y-120146000D01*
X138998636Y-120146000D01*
X138998635Y-120145999D01*
X138941432Y-119932513D01*
X138941429Y-119932507D01*
X138841600Y-119718422D01*
X138841599Y-119718420D01*
X138706113Y-119524926D01*
X138706108Y-119524920D01*
X138539078Y-119357890D01*
X138353405Y-119227879D01*
X138309780Y-119173302D01*
X138302588Y-119103804D01*
X138334110Y-119041449D01*
X138353406Y-119024730D01*
X138539401Y-118894495D01*
X138706495Y-118727401D01*
X138842035Y-118533830D01*
X138941903Y-118319663D01*
X139003063Y-118091408D01*
X139023659Y-117856000D01*
X139003063Y-117620592D01*
X138941903Y-117392337D01*
X138842035Y-117178171D01*
X138820999Y-117148129D01*
X138706496Y-116984600D01*
X138657420Y-116935524D01*
X138584567Y-116862671D01*
X138551084Y-116801351D01*
X138556068Y-116731659D01*
X138597939Y-116675725D01*
X138628915Y-116658810D01*
X138760331Y-116609796D01*
X138875546Y-116523546D01*
X138961796Y-116408331D01*
X139012091Y-116273483D01*
X139018500Y-116213873D01*
X139018499Y-114418128D01*
X139012091Y-114358517D01*
X138982003Y-114277848D01*
X138961797Y-114223671D01*
X138961793Y-114223664D01*
X138875547Y-114108455D01*
X138875544Y-114108452D01*
X138760335Y-114022206D01*
X138760328Y-114022202D01*
X138625482Y-113971908D01*
X138625483Y-113971908D01*
X138565883Y-113965501D01*
X138565881Y-113965500D01*
X138565873Y-113965500D01*
X138565864Y-113965500D01*
X136770129Y-113965500D01*
X136770123Y-113965501D01*
X136710516Y-113971908D01*
X136575671Y-114022202D01*
X136575664Y-114022206D01*
X136460455Y-114108452D01*
X136460452Y-114108455D01*
X136374206Y-114223664D01*
X136374202Y-114223671D01*
X136324910Y-114355833D01*
X136283039Y-114411767D01*
X136217575Y-114436184D01*
X136208728Y-114436500D01*
X132783748Y-114436500D01*
X132716709Y-114416815D01*
X132691600Y-114395474D01*
X132685873Y-114389114D01*
X132685869Y-114389110D01*
X132532734Y-114277851D01*
X132532729Y-114277848D01*
X132359807Y-114200857D01*
X132359802Y-114200855D01*
X132214001Y-114169865D01*
X132174646Y-114161500D01*
X131985354Y-114161500D01*
X131952897Y-114168398D01*
X131800197Y-114200855D01*
X131800192Y-114200857D01*
X131627270Y-114277848D01*
X131627265Y-114277851D01*
X131474129Y-114389111D01*
X131347466Y-114529785D01*
X131252821Y-114693715D01*
X131252818Y-114693722D01*
X131194327Y-114873740D01*
X131194326Y-114873744D01*
X131174540Y-115062000D01*
X124831500Y-115062000D01*
X124831500Y-110367187D01*
X127065500Y-110367187D01*
X127085794Y-110501823D01*
X127104604Y-110626615D01*
X127104605Y-110626617D01*
X127104606Y-110626623D01*
X127181938Y-110877326D01*
X127295767Y-111113696D01*
X127295768Y-111113697D01*
X127295770Y-111113700D01*
X127295772Y-111113704D01*
X127443567Y-111330479D01*
X127622014Y-111522801D01*
X127622018Y-111522804D01*
X127622019Y-111522805D01*
X127827143Y-111686386D01*
X128054357Y-111817568D01*
X128298584Y-111913420D01*
X128554370Y-111971802D01*
X128554376Y-111971802D01*
X128554379Y-111971803D01*
X128750500Y-111986500D01*
X128750506Y-111986500D01*
X128881500Y-111986500D01*
X129077620Y-111971803D01*
X129077622Y-111971802D01*
X129077630Y-111971802D01*
X129333416Y-111913420D01*
X129577643Y-111817568D01*
X129804857Y-111686386D01*
X130009981Y-111522805D01*
X130188433Y-111330479D01*
X130336228Y-111113704D01*
X130450063Y-110877323D01*
X130527396Y-110626615D01*
X130566500Y-110367182D01*
X130566500Y-110104818D01*
X130527396Y-109845385D01*
X130505084Y-109773050D01*
X130504134Y-109703186D01*
X130541105Y-109643900D01*
X130604261Y-109614013D01*
X130623575Y-109612500D01*
X130650644Y-109612500D01*
X130650646Y-109612500D01*
X130835803Y-109573144D01*
X131008730Y-109496151D01*
X131161871Y-109384888D01*
X131164788Y-109381647D01*
X131167600Y-109378526D01*
X131227087Y-109341879D01*
X131259748Y-109337500D01*
X133408252Y-109337500D01*
X133475291Y-109357185D01*
X133500400Y-109378526D01*
X133506126Y-109384885D01*
X133506130Y-109384889D01*
X133659265Y-109496148D01*
X133659270Y-109496151D01*
X133832192Y-109573142D01*
X133832197Y-109573144D01*
X134017354Y-109612500D01*
X134017355Y-109612500D01*
X134206644Y-109612500D01*
X134206646Y-109612500D01*
X134391803Y-109573144D01*
X134564730Y-109496151D01*
X134717871Y-109384888D01*
X134844533Y-109244216D01*
X134939179Y-109080284D01*
X134997674Y-108900256D01*
X135017460Y-108712000D01*
X134997674Y-108523744D01*
X134939179Y-108343716D01*
X134844533Y-108179784D01*
X134717871Y-108039112D01*
X134717870Y-108039111D01*
X134564734Y-107927851D01*
X134564729Y-107927848D01*
X134391807Y-107850857D01*
X134391802Y-107850855D01*
X134246001Y-107819865D01*
X134206646Y-107811500D01*
X134017354Y-107811500D01*
X133984897Y-107818398D01*
X133832197Y-107850855D01*
X133832192Y-107850857D01*
X133659270Y-107927848D01*
X133659265Y-107927851D01*
X133506130Y-108039110D01*
X133506126Y-108039114D01*
X133500400Y-108045474D01*
X133440913Y-108082121D01*
X133408252Y-108086500D01*
X131259748Y-108086500D01*
X131192709Y-108066815D01*
X131167600Y-108045474D01*
X131161873Y-108039114D01*
X131161869Y-108039110D01*
X131008734Y-107927851D01*
X131008729Y-107927848D01*
X130835807Y-107850857D01*
X130835802Y-107850855D01*
X130690001Y-107819865D01*
X130650646Y-107811500D01*
X130461354Y-107811500D01*
X130428897Y-107818398D01*
X130276197Y-107850855D01*
X130276192Y-107850857D01*
X130103270Y-107927848D01*
X130103265Y-107927851D01*
X129950129Y-108039111D01*
X129823466Y-108179785D01*
X129728821Y-108343715D01*
X129728818Y-108343722D01*
X129670327Y-108523739D01*
X129668976Y-108530098D01*
X129667387Y-108529760D01*
X129643894Y-108586847D01*
X129586593Y-108626827D01*
X129516774Y-108629480D01*
X129501863Y-108624690D01*
X129333421Y-108558582D01*
X129333416Y-108558580D01*
X129333411Y-108558578D01*
X129333402Y-108558576D01*
X129115818Y-108508914D01*
X129077630Y-108500198D01*
X129077629Y-108500197D01*
X129077625Y-108500197D01*
X129077620Y-108500196D01*
X128881500Y-108485500D01*
X128881494Y-108485500D01*
X128750506Y-108485500D01*
X128750500Y-108485500D01*
X128554379Y-108500196D01*
X128554374Y-108500197D01*
X128298597Y-108558576D01*
X128298578Y-108558582D01*
X128054356Y-108654432D01*
X127827143Y-108785614D01*
X127622014Y-108949198D01*
X127443567Y-109141520D01*
X127313128Y-109332839D01*
X127296530Y-109357185D01*
X127295768Y-109358302D01*
X127295767Y-109358303D01*
X127181938Y-109594673D01*
X127104606Y-109845376D01*
X127104605Y-109845381D01*
X127104604Y-109845385D01*
X127089853Y-109943247D01*
X127065500Y-110104812D01*
X127065500Y-110367187D01*
X124831500Y-110367187D01*
X124831500Y-102926452D01*
X124851185Y-102859413D01*
X124867819Y-102838771D01*
X125169772Y-102536819D01*
X125231095Y-102503334D01*
X125257453Y-102500500D01*
X125316644Y-102500500D01*
X125316646Y-102500500D01*
X125501803Y-102461144D01*
X125674730Y-102384151D01*
X125827871Y-102272888D01*
X125954533Y-102132216D01*
X126049179Y-101968284D01*
X126107674Y-101788256D01*
X126127459Y-101600005D01*
X134234357Y-101600005D01*
X134254890Y-101847812D01*
X134254892Y-101847824D01*
X134315936Y-102088881D01*
X134415826Y-102316606D01*
X134551833Y-102524782D01*
X134551836Y-102524785D01*
X134720256Y-102707738D01*
X134916491Y-102860474D01*
X135135190Y-102978828D01*
X135370386Y-103059571D01*
X135615665Y-103100500D01*
X135864335Y-103100500D01*
X136109614Y-103059571D01*
X136344810Y-102978828D01*
X136563509Y-102860474D01*
X136759744Y-102707738D01*
X136928164Y-102524785D01*
X137064173Y-102316607D01*
X137164063Y-102088881D01*
X137225108Y-101847821D01*
X137225109Y-101847812D01*
X137245643Y-101600005D01*
X140734357Y-101600005D01*
X140754890Y-101847812D01*
X140754892Y-101847824D01*
X140815936Y-102088881D01*
X140915826Y-102316606D01*
X141051833Y-102524782D01*
X141051836Y-102524785D01*
X141220256Y-102707738D01*
X141416491Y-102860474D01*
X141635190Y-102978828D01*
X141870386Y-103059571D01*
X142115665Y-103100500D01*
X142364335Y-103100500D01*
X142609614Y-103059571D01*
X142844810Y-102978828D01*
X143063509Y-102860474D01*
X143259744Y-102707738D01*
X143428164Y-102524785D01*
X143564173Y-102316607D01*
X143664063Y-102088881D01*
X143725108Y-101847821D01*
X143725109Y-101847812D01*
X143745643Y-101600005D01*
X143745643Y-101599994D01*
X143725109Y-101352187D01*
X143725107Y-101352175D01*
X143664063Y-101111118D01*
X143564173Y-100883393D01*
X143428166Y-100675217D01*
X143360066Y-100601241D01*
X143259744Y-100492262D01*
X143063509Y-100339526D01*
X143063507Y-100339525D01*
X143063506Y-100339524D01*
X142844811Y-100221172D01*
X142844802Y-100221169D01*
X142609616Y-100140429D01*
X142364335Y-100099500D01*
X142115665Y-100099500D01*
X141870383Y-100140429D01*
X141635197Y-100221169D01*
X141635188Y-100221172D01*
X141416493Y-100339524D01*
X141220257Y-100492261D01*
X141051833Y-100675217D01*
X140915826Y-100883393D01*
X140815936Y-101111118D01*
X140754892Y-101352175D01*
X140754890Y-101352187D01*
X140734357Y-101599994D01*
X140734357Y-101600005D01*
X137245643Y-101600005D01*
X137245643Y-101599994D01*
X137225109Y-101352187D01*
X137225107Y-101352175D01*
X137164063Y-101111118D01*
X137064173Y-100883393D01*
X136928166Y-100675217D01*
X136860066Y-100601241D01*
X136759744Y-100492262D01*
X136563509Y-100339526D01*
X136563507Y-100339525D01*
X136563506Y-100339524D01*
X136344811Y-100221172D01*
X136344802Y-100221169D01*
X136109616Y-100140429D01*
X135864335Y-100099500D01*
X135615665Y-100099500D01*
X135370383Y-100140429D01*
X135135197Y-100221169D01*
X135135188Y-100221172D01*
X134916493Y-100339524D01*
X134720257Y-100492261D01*
X134551833Y-100675217D01*
X134415826Y-100883393D01*
X134315936Y-101111118D01*
X134254892Y-101352175D01*
X134254890Y-101352187D01*
X134234357Y-101599994D01*
X134234357Y-101600005D01*
X126127459Y-101600005D01*
X126127460Y-101600000D01*
X126107674Y-101411744D01*
X126049179Y-101231716D01*
X125954533Y-101067784D01*
X125827871Y-100927112D01*
X125827870Y-100927111D01*
X125674734Y-100815851D01*
X125674729Y-100815848D01*
X125501807Y-100738857D01*
X125501802Y-100738855D01*
X125356001Y-100707865D01*
X125316646Y-100699500D01*
X125127354Y-100699500D01*
X125094897Y-100706398D01*
X124942197Y-100738855D01*
X124942192Y-100738857D01*
X124769270Y-100815848D01*
X124769265Y-100815851D01*
X124616129Y-100927111D01*
X124489466Y-101067785D01*
X124394821Y-101231715D01*
X124394818Y-101231722D01*
X124355677Y-101352187D01*
X124336326Y-101411744D01*
X124318679Y-101579649D01*
X124292094Y-101644263D01*
X124283039Y-101654368D01*
X124027181Y-101910227D01*
X123965858Y-101943712D01*
X123896167Y-101938728D01*
X123840233Y-101896857D01*
X123815816Y-101831392D01*
X123815500Y-101822546D01*
X123815500Y-101402452D01*
X123835185Y-101335413D01*
X123851819Y-101314771D01*
X125169772Y-99996819D01*
X125231095Y-99963334D01*
X125257453Y-99960500D01*
X125316644Y-99960500D01*
X125316646Y-99960500D01*
X125501803Y-99921144D01*
X125674730Y-99844151D01*
X125827871Y-99732888D01*
X125954533Y-99592216D01*
X126049179Y-99428284D01*
X126107674Y-99248256D01*
X126127460Y-99060000D01*
X126107674Y-98871744D01*
X126049179Y-98691716D01*
X125954533Y-98527784D01*
X125827871Y-98387112D01*
X125790633Y-98360057D01*
X125674734Y-98275851D01*
X125674729Y-98275848D01*
X125501807Y-98198857D01*
X125501802Y-98198855D01*
X125356001Y-98167865D01*
X125316646Y-98159500D01*
X125127354Y-98159500D01*
X125094897Y-98166398D01*
X124942197Y-98198855D01*
X124942192Y-98198857D01*
X124769270Y-98275848D01*
X124769265Y-98275851D01*
X124616129Y-98387111D01*
X124489466Y-98527785D01*
X124394821Y-98691715D01*
X124394818Y-98691722D01*
X124336327Y-98871740D01*
X124336326Y-98871744D01*
X124318679Y-99039649D01*
X124292094Y-99104263D01*
X124283039Y-99114368D01*
X122806208Y-100591199D01*
X122793951Y-100601020D01*
X122794134Y-100601241D01*
X122788123Y-100606213D01*
X122740772Y-100656636D01*
X122719889Y-100677519D01*
X122719877Y-100677532D01*
X122715621Y-100683017D01*
X122711837Y-100687447D01*
X122679937Y-100721418D01*
X122679936Y-100721420D01*
X122670284Y-100738976D01*
X122659610Y-100755226D01*
X122647329Y-100771061D01*
X122647324Y-100771068D01*
X122628815Y-100813838D01*
X122626245Y-100819084D01*
X122603803Y-100859906D01*
X122598822Y-100879307D01*
X122592521Y-100897710D01*
X122584562Y-100916102D01*
X122584561Y-100916105D01*
X122577271Y-100962127D01*
X122576087Y-100967846D01*
X122564501Y-101012972D01*
X122564500Y-101012982D01*
X122564500Y-101033016D01*
X122562973Y-101052415D01*
X122559840Y-101072194D01*
X122559840Y-101072195D01*
X122564225Y-101118583D01*
X122564500Y-101124421D01*
X122564500Y-115125312D01*
X122544815Y-115192351D01*
X122532650Y-115208284D01*
X122457466Y-115291784D01*
X122362821Y-115455715D01*
X122362818Y-115455722D01*
X122317820Y-115594214D01*
X122304326Y-115635744D01*
X122284540Y-115824000D01*
X115558500Y-115824000D01*
X115558500Y-97100005D01*
X134234859Y-97100005D01*
X134255385Y-97347729D01*
X134255387Y-97347738D01*
X134316412Y-97588717D01*
X134416266Y-97816364D01*
X134516564Y-97969882D01*
X135214070Y-97272376D01*
X135216884Y-97285915D01*
X135286442Y-97420156D01*
X135389638Y-97530652D01*
X135518819Y-97609209D01*
X135570002Y-97623549D01*
X134869942Y-98323609D01*
X134916768Y-98360055D01*
X134916770Y-98360056D01*
X135135385Y-98478364D01*
X135135396Y-98478369D01*
X135370506Y-98559083D01*
X135615707Y-98600000D01*
X135864293Y-98600000D01*
X136109493Y-98559083D01*
X136344603Y-98478369D01*
X136344614Y-98478364D01*
X136563228Y-98360057D01*
X136563231Y-98360055D01*
X136610056Y-98323609D01*
X135911568Y-97625121D01*
X136028458Y-97574349D01*
X136145739Y-97478934D01*
X136232928Y-97355415D01*
X136263354Y-97269802D01*
X136963434Y-97969882D01*
X137063731Y-97816369D01*
X137163587Y-97588717D01*
X137224612Y-97347738D01*
X137224614Y-97347729D01*
X137245141Y-97100005D01*
X140734859Y-97100005D01*
X140755385Y-97347729D01*
X140755387Y-97347738D01*
X140816412Y-97588717D01*
X140916266Y-97816364D01*
X141016564Y-97969882D01*
X141714070Y-97272376D01*
X141716884Y-97285915D01*
X141786442Y-97420156D01*
X141889638Y-97530652D01*
X142018819Y-97609209D01*
X142070002Y-97623549D01*
X141369942Y-98323609D01*
X141416768Y-98360055D01*
X141416770Y-98360056D01*
X141635385Y-98478364D01*
X141635396Y-98478369D01*
X141870506Y-98559083D01*
X142115707Y-98600000D01*
X142364293Y-98600000D01*
X142609493Y-98559083D01*
X142844603Y-98478369D01*
X142844614Y-98478364D01*
X143063228Y-98360057D01*
X143063231Y-98360055D01*
X143110056Y-98323609D01*
X142411568Y-97625121D01*
X142528458Y-97574349D01*
X142645739Y-97478934D01*
X142732928Y-97355415D01*
X142763354Y-97269802D01*
X143463434Y-97969882D01*
X143563731Y-97816369D01*
X143663587Y-97588717D01*
X143724612Y-97347738D01*
X143724614Y-97347729D01*
X143745141Y-97100005D01*
X143745141Y-97099994D01*
X143724614Y-96852270D01*
X143724612Y-96852261D01*
X143663587Y-96611282D01*
X143563731Y-96383630D01*
X143463434Y-96230116D01*
X142765929Y-96927622D01*
X142763116Y-96914085D01*
X142693558Y-96779844D01*
X142590362Y-96669348D01*
X142461181Y-96590791D01*
X142409997Y-96576450D01*
X143110057Y-95876390D01*
X143110056Y-95876389D01*
X143063229Y-95839943D01*
X142844614Y-95721635D01*
X142844603Y-95721630D01*
X142609493Y-95640916D01*
X142364293Y-95600000D01*
X142115707Y-95600000D01*
X141870506Y-95640916D01*
X141635396Y-95721630D01*
X141635390Y-95721632D01*
X141416761Y-95839949D01*
X141369942Y-95876388D01*
X141369942Y-95876390D01*
X142068431Y-96574878D01*
X141951542Y-96625651D01*
X141834261Y-96721066D01*
X141747072Y-96844585D01*
X141716645Y-96930197D01*
X141016564Y-96230116D01*
X140916267Y-96383632D01*
X140816412Y-96611282D01*
X140755387Y-96852261D01*
X140755385Y-96852270D01*
X140734859Y-97099994D01*
X140734859Y-97100005D01*
X137245141Y-97100005D01*
X137245141Y-97099994D01*
X137224614Y-96852270D01*
X137224612Y-96852261D01*
X137163587Y-96611282D01*
X137063731Y-96383630D01*
X136963434Y-96230116D01*
X136265929Y-96927622D01*
X136263116Y-96914085D01*
X136193558Y-96779844D01*
X136090362Y-96669348D01*
X135961181Y-96590791D01*
X135909997Y-96576450D01*
X136610057Y-95876390D01*
X136610056Y-95876389D01*
X136563229Y-95839943D01*
X136344614Y-95721635D01*
X136344603Y-95721630D01*
X136109493Y-95640916D01*
X135864293Y-95600000D01*
X135615707Y-95600000D01*
X135370506Y-95640916D01*
X135135396Y-95721630D01*
X135135390Y-95721632D01*
X134916761Y-95839949D01*
X134869942Y-95876388D01*
X134869942Y-95876390D01*
X135568431Y-96574878D01*
X135451542Y-96625651D01*
X135334261Y-96721066D01*
X135247072Y-96844585D01*
X135216645Y-96930197D01*
X134516564Y-96230116D01*
X134416267Y-96383632D01*
X134316412Y-96611282D01*
X134255387Y-96852261D01*
X134255385Y-96852270D01*
X134234859Y-97099994D01*
X134234859Y-97100005D01*
X115558500Y-97100005D01*
X115558500Y-96954711D01*
X115559809Y-96936741D01*
X115560129Y-96934553D01*
X115563289Y-96912983D01*
X115558735Y-96860937D01*
X115558500Y-96855534D01*
X115558500Y-96847303D01*
X115558500Y-96847297D01*
X115554693Y-96814730D01*
X115547999Y-96738209D01*
X115547999Y-96738207D01*
X115546539Y-96731135D01*
X115546597Y-96731122D01*
X115544965Y-96723763D01*
X115544906Y-96723778D01*
X115543242Y-96716759D01*
X115543241Y-96716751D01*
X115516974Y-96644582D01*
X115492814Y-96571672D01*
X115492809Y-96571665D01*
X115489760Y-96565124D01*
X115489815Y-96565097D01*
X115486533Y-96558319D01*
X115486480Y-96558346D01*
X115483235Y-96551886D01*
X115441028Y-96487714D01*
X115400710Y-96422348D01*
X115396234Y-96416688D01*
X115396281Y-96416650D01*
X115391519Y-96410805D01*
X115391474Y-96410844D01*
X115386834Y-96405314D01*
X115330964Y-96352602D01*
X112614267Y-93635905D01*
X112584018Y-93586544D01*
X112542199Y-93457837D01*
X112528678Y-93416224D01*
X112528675Y-93416218D01*
X112526119Y-93411791D01*
X112434030Y-93252287D01*
X112307368Y-93111615D01*
X112307367Y-93111614D01*
X112154231Y-93000354D01*
X112154226Y-93000351D01*
X111981304Y-92923360D01*
X111981299Y-92923358D01*
X111835498Y-92892368D01*
X111796143Y-92884003D01*
X111606851Y-92884003D01*
X111574394Y-92890901D01*
X111421694Y-92923358D01*
X111421689Y-92923360D01*
X111248767Y-93000351D01*
X111248762Y-93000354D01*
X111095628Y-93111613D01*
X111095625Y-93111615D01*
X111084972Y-93123447D01*
X111025485Y-93160095D01*
X110955628Y-93158764D01*
X110905142Y-93128155D01*
X107817199Y-90040212D01*
X107807376Y-90027950D01*
X107807155Y-90028134D01*
X107802182Y-90022123D01*
X107783555Y-90004631D01*
X107751760Y-89974773D01*
X107741315Y-89964328D01*
X107730871Y-89953883D01*
X107725382Y-89949625D01*
X107720957Y-89945847D01*
X107686978Y-89913938D01*
X107686976Y-89913936D01*
X107686973Y-89913935D01*
X107669425Y-89904288D01*
X107653159Y-89893604D01*
X107637329Y-89881325D01*
X107594564Y-89862818D01*
X107589318Y-89860248D01*
X107548489Y-89837803D01*
X107548488Y-89837802D01*
X107529089Y-89832822D01*
X107510677Y-89826518D01*
X107492294Y-89818562D01*
X107492288Y-89818560D01*
X107446270Y-89811272D01*
X107440548Y-89810087D01*
X107395417Y-89798500D01*
X107395415Y-89798500D01*
X107375380Y-89798500D01*
X107355982Y-89796973D01*
X107348558Y-89795797D01*
X107336201Y-89793840D01*
X107336200Y-89793840D01*
X107289812Y-89798225D01*
X107283974Y-89798500D01*
X107007438Y-89798500D01*
X106991817Y-89796775D01*
X106991790Y-89797061D01*
X106984028Y-89796326D01*
X106914867Y-89798500D01*
X106885344Y-89798500D01*
X106878473Y-89799367D01*
X106872654Y-89799825D01*
X106826069Y-89801289D01*
X106826063Y-89801290D01*
X106806821Y-89806880D01*
X106787782Y-89810823D01*
X106767912Y-89813334D01*
X106767898Y-89813337D01*
X106724578Y-89830488D01*
X106719053Y-89832380D01*
X106674308Y-89845380D01*
X106674305Y-89845381D01*
X106657061Y-89855579D01*
X106639600Y-89864133D01*
X106620969Y-89871510D01*
X106620957Y-89871517D01*
X106583265Y-89898902D01*
X106578382Y-89902109D01*
X106538275Y-89925829D01*
X106524109Y-89939995D01*
X106509319Y-89952627D01*
X106493109Y-89964404D01*
X106493106Y-89964407D01*
X106463405Y-90000309D01*
X106459472Y-90004631D01*
X105825208Y-90638894D01*
X105812951Y-90648715D01*
X105813134Y-90648936D01*
X105807123Y-90653908D01*
X105759772Y-90704331D01*
X105738889Y-90725214D01*
X105738877Y-90725227D01*
X105734621Y-90730712D01*
X105730837Y-90735142D01*
X105698937Y-90769113D01*
X105698936Y-90769115D01*
X105689284Y-90786671D01*
X105678610Y-90802921D01*
X105666329Y-90818756D01*
X105666324Y-90818763D01*
X105647815Y-90861533D01*
X105645245Y-90866779D01*
X105622803Y-90907601D01*
X105617822Y-90927002D01*
X105611521Y-90945405D01*
X105603562Y-90963797D01*
X105603561Y-90963800D01*
X105596271Y-91009822D01*
X105595087Y-91015541D01*
X105583501Y-91060667D01*
X105583500Y-91060677D01*
X105583500Y-91080711D01*
X105581973Y-91100110D01*
X105578840Y-91119889D01*
X105578840Y-91119890D01*
X105583225Y-91166278D01*
X105583500Y-91172116D01*
X105583500Y-93172255D01*
X105581775Y-93187872D01*
X105582061Y-93187899D01*
X105581326Y-93195665D01*
X105583500Y-93264814D01*
X105583500Y-93294343D01*
X105583501Y-93294360D01*
X105584368Y-93301231D01*
X105584826Y-93307050D01*
X105586290Y-93353624D01*
X105586291Y-93353627D01*
X105591880Y-93372867D01*
X105595824Y-93391911D01*
X105598336Y-93411792D01*
X105600089Y-93416219D01*
X105615490Y-93455119D01*
X105617382Y-93460647D01*
X105630381Y-93505388D01*
X105640580Y-93522634D01*
X105649138Y-93540103D01*
X105656514Y-93558732D01*
X105683898Y-93596423D01*
X105687106Y-93601307D01*
X105710827Y-93641416D01*
X105710833Y-93641424D01*
X105724990Y-93655580D01*
X105737628Y-93670376D01*
X105749405Y-93686586D01*
X105749406Y-93686587D01*
X105785309Y-93716288D01*
X105789632Y-93720222D01*
X105995038Y-93925629D01*
X106028523Y-93986952D01*
X106030678Y-94000348D01*
X106038968Y-94079227D01*
X106048326Y-94168256D01*
X106048327Y-94168259D01*
X106106818Y-94348277D01*
X106106821Y-94348284D01*
X106201467Y-94512216D01*
X106328129Y-94652888D01*
X106481265Y-94764148D01*
X106481270Y-94764151D01*
X106654192Y-94841142D01*
X106654197Y-94841144D01*
X106839354Y-94880500D01*
X106839355Y-94880500D01*
X107028644Y-94880500D01*
X107028646Y-94880500D01*
X107213803Y-94841144D01*
X107386730Y-94764151D01*
X107539871Y-94652888D01*
X107666533Y-94512216D01*
X107761179Y-94348284D01*
X107819674Y-94168256D01*
X107839460Y-93980000D01*
X107819674Y-93791744D01*
X107761179Y-93611716D01*
X107666533Y-93447784D01*
X107539871Y-93307112D01*
X107535767Y-93304130D01*
X107386734Y-93195851D01*
X107386729Y-93195848D01*
X107213807Y-93118857D01*
X107213802Y-93118855D01*
X107068001Y-93087865D01*
X107028646Y-93079500D01*
X107028645Y-93079500D01*
X106969453Y-93079500D01*
X106902414Y-93059815D01*
X106881772Y-93043181D01*
X106870819Y-93032228D01*
X106837334Y-92970905D01*
X106834500Y-92944547D01*
X106834500Y-92464500D01*
X106854185Y-92397461D01*
X106906989Y-92351706D01*
X106958500Y-92340500D01*
X107028644Y-92340500D01*
X107028646Y-92340500D01*
X107213803Y-92301144D01*
X107386730Y-92224151D01*
X107422004Y-92198522D01*
X107487809Y-92175043D01*
X107555863Y-92190868D01*
X107582570Y-92211160D01*
X112876181Y-97504771D01*
X112909666Y-97566094D01*
X112912500Y-97592452D01*
X112912500Y-118155651D01*
X112910775Y-118171268D01*
X112911061Y-118171295D01*
X112910326Y-118179061D01*
X112912500Y-118248210D01*
X112912500Y-118277739D01*
X112912501Y-118277756D01*
X112913368Y-118284627D01*
X112913826Y-118290446D01*
X112915290Y-118337020D01*
X112915291Y-118337023D01*
X112920880Y-118356263D01*
X112924824Y-118375307D01*
X112927336Y-118395187D01*
X112944490Y-118438515D01*
X112946382Y-118444043D01*
X112959381Y-118488784D01*
X112969580Y-118506030D01*
X112978138Y-118523499D01*
X112985514Y-118542128D01*
X113012898Y-118579819D01*
X113016106Y-118584703D01*
X113039827Y-118624812D01*
X113039833Y-118624820D01*
X113053990Y-118638976D01*
X113066628Y-118653772D01*
X113078405Y-118669982D01*
X113078406Y-118669983D01*
X113114309Y-118699684D01*
X113118620Y-118703606D01*
X116304610Y-121889596D01*
X119454798Y-125039784D01*
X119464623Y-125052048D01*
X119464844Y-125051866D01*
X119469814Y-125057873D01*
X119469817Y-125057876D01*
X119469818Y-125057877D01*
X119520255Y-125105241D01*
X119541134Y-125126120D01*
X119546608Y-125130366D01*
X119551046Y-125134156D01*
X119585022Y-125166062D01*
X119585026Y-125166064D01*
X119602577Y-125175713D01*
X119618835Y-125186392D01*
X119634668Y-125198674D01*
X119656619Y-125208172D01*
X119677441Y-125217183D01*
X119682685Y-125219752D01*
X119723512Y-125242197D01*
X119742916Y-125247179D01*
X119761314Y-125253478D01*
X119779709Y-125261438D01*
X119825733Y-125268726D01*
X119831436Y-125269907D01*
X119876585Y-125281500D01*
X119896620Y-125281500D01*
X119916017Y-125283026D01*
X119935800Y-125286160D01*
X119982188Y-125281775D01*
X119988026Y-125281500D01*
X125275548Y-125281500D01*
X125342587Y-125301185D01*
X125363229Y-125317819D01*
X127822338Y-127776928D01*
X127855823Y-127838251D01*
X127854863Y-127895049D01*
X127800892Y-128108174D01*
X127800890Y-128108187D01*
X127780357Y-128355994D01*
X127780357Y-128356005D01*
X127800890Y-128603812D01*
X127800892Y-128603824D01*
X127861936Y-128844881D01*
X127961826Y-129072606D01*
X128097833Y-129280782D01*
X128097836Y-129280785D01*
X128266256Y-129463738D01*
X128349008Y-129528147D01*
X128389821Y-129584857D01*
X128393496Y-129654630D01*
X128358864Y-129715313D01*
X128349014Y-129723848D01*
X128290400Y-129769469D01*
X128266257Y-129788261D01*
X128097833Y-129971217D01*
X127961826Y-130179393D01*
X127861936Y-130407118D01*
X127800892Y-130648175D01*
X127800890Y-130648187D01*
X127780357Y-130895994D01*
X127780357Y-130896005D01*
X127800890Y-131143812D01*
X127800892Y-131143824D01*
X127861936Y-131384881D01*
X127961826Y-131612606D01*
X128097833Y-131820782D01*
X128097836Y-131820785D01*
X128266256Y-132003738D01*
X128349008Y-132068147D01*
X128389821Y-132124857D01*
X128393496Y-132194630D01*
X128358864Y-132255313D01*
X128349014Y-132263848D01*
X128290400Y-132309469D01*
X128266257Y-132328261D01*
X128097833Y-132511217D01*
X127961826Y-132719393D01*
X127861936Y-132947118D01*
X127800892Y-133188175D01*
X127800890Y-133188187D01*
X127780357Y-133435994D01*
X127780357Y-133436005D01*
X127800890Y-133683812D01*
X127800892Y-133683824D01*
X127861936Y-133924881D01*
X127961826Y-134152606D01*
X128097833Y-134360782D01*
X128097836Y-134360785D01*
X128266256Y-134543738D01*
X128349008Y-134608147D01*
X128389821Y-134664857D01*
X128393496Y-134734630D01*
X128358864Y-134795313D01*
X128349014Y-134803848D01*
X128290400Y-134849469D01*
X128266257Y-134868261D01*
X128097833Y-135051217D01*
X127961826Y-135259393D01*
X127861936Y-135487118D01*
X127800892Y-135728175D01*
X127800890Y-135728187D01*
X127780357Y-135975994D01*
X127780357Y-135976005D01*
X127800890Y-136223812D01*
X127800892Y-136223824D01*
X127861936Y-136464881D01*
X127961826Y-136692606D01*
X128097833Y-136900782D01*
X128097836Y-136900785D01*
X128266256Y-137083738D01*
X128349008Y-137148147D01*
X128389821Y-137204857D01*
X128393496Y-137274630D01*
X128358864Y-137335313D01*
X128349014Y-137343848D01*
X128290400Y-137389469D01*
X128266257Y-137408261D01*
X128097833Y-137591217D01*
X127961826Y-137799393D01*
X127861936Y-138027118D01*
X127800892Y-138268175D01*
X127800890Y-138268187D01*
X127780357Y-138515994D01*
X127780357Y-138516005D01*
X127800890Y-138763812D01*
X127800892Y-138763824D01*
X127861936Y-139004881D01*
X127961826Y-139232606D01*
X128097833Y-139440782D01*
X128097836Y-139440785D01*
X128266256Y-139623738D01*
X128349008Y-139688147D01*
X128389821Y-139744857D01*
X128393496Y-139814630D01*
X128358864Y-139875313D01*
X128349014Y-139883848D01*
X128290400Y-139929469D01*
X128266257Y-139948261D01*
X128097833Y-140131217D01*
X127961826Y-140339393D01*
X127861936Y-140567118D01*
X127800892Y-140808175D01*
X127800890Y-140808187D01*
X127780357Y-141055994D01*
X127780357Y-141056005D01*
X127800890Y-141303812D01*
X127800892Y-141303824D01*
X127861936Y-141544881D01*
X127961826Y-141772606D01*
X128097833Y-141980782D01*
X128097836Y-141980785D01*
X128266256Y-142163738D01*
X128349008Y-142228147D01*
X128389821Y-142284857D01*
X128393496Y-142354630D01*
X128358864Y-142415313D01*
X128349014Y-142423848D01*
X128290400Y-142469469D01*
X128266257Y-142488261D01*
X128097833Y-142671217D01*
X127961826Y-142879393D01*
X127861936Y-143107118D01*
X127800892Y-143348175D01*
X127800890Y-143348187D01*
X127780357Y-143595994D01*
X127780357Y-143596005D01*
X127800890Y-143843812D01*
X127800892Y-143843824D01*
X127861936Y-144084881D01*
X127961826Y-144312606D01*
X128097833Y-144520782D01*
X128097836Y-144520785D01*
X128266256Y-144703738D01*
X128349008Y-144768147D01*
X128389821Y-144824857D01*
X128393496Y-144894630D01*
X128358864Y-144955313D01*
X128349014Y-144963848D01*
X128290400Y-145009469D01*
X128266257Y-145028261D01*
X128097833Y-145211217D01*
X127961826Y-145419393D01*
X127861936Y-145647118D01*
X127800892Y-145888175D01*
X127800890Y-145888187D01*
X127780357Y-146135994D01*
X127780357Y-146136005D01*
X127800890Y-146383812D01*
X127800892Y-146383824D01*
X127861936Y-146624881D01*
X127961826Y-146852606D01*
X128097833Y-147060782D01*
X128097836Y-147060785D01*
X128266256Y-147243738D01*
X128349008Y-147308147D01*
X128389821Y-147364857D01*
X128393496Y-147434630D01*
X128358864Y-147495313D01*
X128349014Y-147503848D01*
X128290400Y-147549469D01*
X128266257Y-147568261D01*
X128097833Y-147751217D01*
X127961826Y-147959393D01*
X127861936Y-148187118D01*
X127800892Y-148428175D01*
X127800890Y-148428187D01*
X127780357Y-148675994D01*
X127780357Y-148676005D01*
X127800890Y-148923812D01*
X127800892Y-148923824D01*
X127861936Y-149164881D01*
X127961826Y-149392606D01*
X128097833Y-149600782D01*
X128111455Y-149615579D01*
X128266256Y-149783738D01*
X128349008Y-149848147D01*
X128389821Y-149904857D01*
X128393496Y-149974630D01*
X128358864Y-150035313D01*
X128349014Y-150043848D01*
X128290400Y-150089469D01*
X128266257Y-150108261D01*
X128097833Y-150291217D01*
X127961826Y-150499393D01*
X127861936Y-150727118D01*
X127800892Y-150968175D01*
X127800890Y-150968187D01*
X127780357Y-151215994D01*
X127780357Y-151216005D01*
X127800890Y-151463812D01*
X127800892Y-151463824D01*
X127861936Y-151704881D01*
X127961826Y-151932606D01*
X128097833Y-152140782D01*
X128097836Y-152140785D01*
X128266256Y-152323738D01*
X128349008Y-152388147D01*
X128389821Y-152444857D01*
X128393496Y-152514630D01*
X128358864Y-152575313D01*
X128349014Y-152583848D01*
X128290400Y-152629469D01*
X128266257Y-152648261D01*
X128097833Y-152831217D01*
X127961826Y-153039393D01*
X127861936Y-153267118D01*
X127800892Y-153508175D01*
X127800890Y-153508187D01*
X127780028Y-153759962D01*
X127754875Y-153825147D01*
X127698473Y-153866385D01*
X127628730Y-153870583D01*
X127568771Y-153837403D01*
X126649245Y-152917877D01*
X125493581Y-151762212D01*
X125483758Y-151749950D01*
X125483537Y-151750134D01*
X125478564Y-151744123D01*
X125474613Y-151740413D01*
X125428142Y-151696773D01*
X125417489Y-151686120D01*
X125407253Y-151675883D01*
X125401764Y-151671625D01*
X125397339Y-151667847D01*
X125363360Y-151635938D01*
X125363358Y-151635936D01*
X125363355Y-151635935D01*
X125345807Y-151626288D01*
X125329541Y-151615604D01*
X125313711Y-151603325D01*
X125270946Y-151584818D01*
X125265700Y-151582248D01*
X125224871Y-151559803D01*
X125224870Y-151559802D01*
X125205471Y-151554822D01*
X125187059Y-151548518D01*
X125168676Y-151540562D01*
X125168670Y-151540560D01*
X125122652Y-151533272D01*
X125116930Y-151532087D01*
X125071799Y-151520500D01*
X125071797Y-151520500D01*
X125051762Y-151520500D01*
X125032364Y-151518973D01*
X125024940Y-151517797D01*
X125012583Y-151515840D01*
X125012582Y-151515840D01*
X124966194Y-151520225D01*
X124960356Y-151520500D01*
X112746452Y-151520500D01*
X112679413Y-151500815D01*
X112658771Y-151484181D01*
X105349660Y-144175069D01*
X105316175Y-144113746D01*
X105317135Y-144056950D01*
X105371108Y-143843821D01*
X105391643Y-143596000D01*
X105381977Y-143479354D01*
X105371109Y-143348187D01*
X105371107Y-143348175D01*
X105310063Y-143107118D01*
X105210173Y-142879393D01*
X105074166Y-142671217D01*
X105010712Y-142602288D01*
X104905744Y-142488262D01*
X104822991Y-142423852D01*
X104782179Y-142367143D01*
X104778504Y-142297370D01*
X104813136Y-142236687D01*
X104822985Y-142228151D01*
X104905744Y-142163738D01*
X105074164Y-141980785D01*
X105210173Y-141772607D01*
X105310063Y-141544881D01*
X105371108Y-141303821D01*
X105391643Y-141056000D01*
X105371108Y-140808179D01*
X105310063Y-140567119D01*
X105210173Y-140339393D01*
X105074166Y-140131217D01*
X105052557Y-140107744D01*
X104905744Y-139948262D01*
X104822991Y-139883852D01*
X104782179Y-139827143D01*
X104778504Y-139757370D01*
X104813136Y-139696687D01*
X104822985Y-139688151D01*
X104905744Y-139623738D01*
X105074164Y-139440785D01*
X105210173Y-139232607D01*
X105310063Y-139004881D01*
X105371108Y-138763821D01*
X105375716Y-138708214D01*
X105391643Y-138516005D01*
X105391643Y-138515994D01*
X105371109Y-138268187D01*
X105371107Y-138268175D01*
X105310063Y-138027118D01*
X105210173Y-137799393D01*
X105074166Y-137591217D01*
X105052557Y-137567744D01*
X104905744Y-137408262D01*
X104822991Y-137343852D01*
X104782179Y-137287143D01*
X104778504Y-137217370D01*
X104813136Y-137156687D01*
X104822985Y-137148151D01*
X104905744Y-137083738D01*
X105074164Y-136900785D01*
X105123233Y-136825679D01*
X105176379Y-136780322D01*
X105227042Y-136769500D01*
X110417755Y-136769500D01*
X110484794Y-136789185D01*
X110505436Y-136805819D01*
X111796520Y-138096903D01*
X111830005Y-138158226D01*
X111832160Y-138171622D01*
X111832620Y-138175999D01*
X111832620Y-138176000D01*
X111852406Y-138364256D01*
X111852407Y-138364259D01*
X111910898Y-138544277D01*
X111910901Y-138544284D01*
X112005547Y-138708216D01*
X112055617Y-138763824D01*
X112132209Y-138848888D01*
X112285345Y-138960148D01*
X112285350Y-138960151D01*
X112458272Y-139037142D01*
X112458277Y-139037144D01*
X112643434Y-139076500D01*
X112643435Y-139076500D01*
X112832724Y-139076500D01*
X112832726Y-139076500D01*
X113017883Y-139037144D01*
X113190810Y-138960151D01*
X113343951Y-138848888D01*
X113470613Y-138708216D01*
X113565259Y-138544284D01*
X113623754Y-138364256D01*
X113643540Y-138176000D01*
X113623754Y-137987744D01*
X113565259Y-137807716D01*
X113470613Y-137643784D01*
X113343951Y-137503112D01*
X113343950Y-137503111D01*
X113190814Y-137391851D01*
X113190809Y-137391848D01*
X113017887Y-137314857D01*
X113017882Y-137314855D01*
X112872081Y-137283865D01*
X112832726Y-137275500D01*
X112832725Y-137275500D01*
X112795659Y-137275500D01*
X112728620Y-137255815D01*
X112707978Y-137239181D01*
X111229010Y-135760212D01*
X111219187Y-135747950D01*
X111218966Y-135748134D01*
X111213993Y-135742123D01*
X111199140Y-135728175D01*
X111163571Y-135694773D01*
X111153126Y-135684328D01*
X111142682Y-135673883D01*
X111137193Y-135669625D01*
X111132768Y-135665847D01*
X111098789Y-135633938D01*
X111098787Y-135633936D01*
X111098784Y-135633935D01*
X111081236Y-135624288D01*
X111064970Y-135613604D01*
X111049140Y-135601325D01*
X111006375Y-135582818D01*
X111001129Y-135580248D01*
X110960300Y-135557803D01*
X110960299Y-135557802D01*
X110940900Y-135552822D01*
X110922488Y-135546518D01*
X110904105Y-135538562D01*
X110904099Y-135538560D01*
X110858081Y-135531272D01*
X110852359Y-135530087D01*
X110807228Y-135518500D01*
X110807226Y-135518500D01*
X110787191Y-135518500D01*
X110767793Y-135516973D01*
X110760369Y-135515797D01*
X110748012Y-135513840D01*
X110748011Y-135513840D01*
X110701623Y-135518225D01*
X110695785Y-135518500D01*
X105404841Y-135518500D01*
X105337802Y-135498815D01*
X105292047Y-135446011D01*
X105291285Y-135444310D01*
X105210173Y-135259393D01*
X105074166Y-135051217D01*
X105052557Y-135027744D01*
X104905744Y-134868262D01*
X104822991Y-134803852D01*
X104782179Y-134747143D01*
X104778504Y-134677370D01*
X104813136Y-134616687D01*
X104822985Y-134608151D01*
X104905744Y-134543738D01*
X105074164Y-134360785D01*
X105210173Y-134152607D01*
X105310063Y-133924881D01*
X105371108Y-133683821D01*
X105391643Y-133436000D01*
X105371108Y-133188179D01*
X105310063Y-132947119D01*
X105210173Y-132719393D01*
X105074166Y-132511217D01*
X105052557Y-132487744D01*
X104905744Y-132328262D01*
X104822991Y-132263852D01*
X104782179Y-132207143D01*
X104778504Y-132137370D01*
X104813136Y-132076687D01*
X104822985Y-132068151D01*
X104905744Y-132003738D01*
X105074164Y-131820785D01*
X105123233Y-131745679D01*
X105176379Y-131700322D01*
X105227042Y-131689500D01*
X114471257Y-131689500D01*
X114486877Y-131691224D01*
X114486904Y-131690939D01*
X114494660Y-131691671D01*
X114494667Y-131691673D01*
X114563814Y-131689500D01*
X114593350Y-131689500D01*
X114600228Y-131688630D01*
X114606041Y-131688172D01*
X114652627Y-131686709D01*
X114671869Y-131681117D01*
X114690912Y-131677174D01*
X114710792Y-131674664D01*
X114754122Y-131657507D01*
X114759646Y-131655617D01*
X114763396Y-131654527D01*
X114804390Y-131642618D01*
X114821629Y-131632422D01*
X114839103Y-131623862D01*
X114857727Y-131616488D01*
X114857727Y-131616487D01*
X114857732Y-131616486D01*
X114895449Y-131589082D01*
X114900305Y-131585892D01*
X114940420Y-131562170D01*
X114954589Y-131547999D01*
X114969379Y-131535368D01*
X114985587Y-131523594D01*
X115015299Y-131487676D01*
X115019212Y-131483376D01*
X117803772Y-128698819D01*
X117865095Y-128665334D01*
X117891453Y-128662500D01*
X117950644Y-128662500D01*
X117950646Y-128662500D01*
X118135803Y-128623144D01*
X118308730Y-128546151D01*
X118461871Y-128434888D01*
X118588533Y-128294216D01*
X118683179Y-128130284D01*
X118741674Y-127950256D01*
X118761460Y-127762000D01*
X118741674Y-127573744D01*
X118683179Y-127393716D01*
X118588533Y-127229784D01*
X118461871Y-127089112D01*
X118457588Y-127086000D01*
X118308734Y-126977851D01*
X118308729Y-126977848D01*
X118135807Y-126900857D01*
X118135802Y-126900855D01*
X117990001Y-126869865D01*
X117950646Y-126861500D01*
X117761354Y-126861500D01*
X117728897Y-126868398D01*
X117576197Y-126900855D01*
X117576192Y-126900857D01*
X117403270Y-126977848D01*
X117403265Y-126977851D01*
X117250129Y-127089111D01*
X117123466Y-127229785D01*
X117028821Y-127393715D01*
X117028818Y-127393722D01*
X116998884Y-127485851D01*
X116970326Y-127573744D01*
X116953085Y-127737784D01*
X116952679Y-127741649D01*
X116926094Y-127806263D01*
X116917039Y-127816368D01*
X116831520Y-127901887D01*
X116770197Y-127935372D01*
X116700505Y-127930388D01*
X116644572Y-127888516D01*
X116636452Y-127876206D01*
X116556534Y-127737785D01*
X116429870Y-127597111D01*
X116276734Y-127485851D01*
X116276729Y-127485848D01*
X116103807Y-127408857D01*
X116103802Y-127408855D01*
X115958001Y-127377865D01*
X115918646Y-127369500D01*
X115918645Y-127369500D01*
X115859452Y-127369500D01*
X115792413Y-127349815D01*
X115771771Y-127333181D01*
X106164803Y-117726212D01*
X106154980Y-117713950D01*
X106154759Y-117714134D01*
X106149786Y-117708123D01*
X106148716Y-117707118D01*
X106099364Y-117660773D01*
X106088919Y-117650328D01*
X106078475Y-117639883D01*
X106072986Y-117635625D01*
X106068561Y-117631847D01*
X106034582Y-117599938D01*
X106034580Y-117599936D01*
X106034577Y-117599935D01*
X106017029Y-117590288D01*
X106000763Y-117579604D01*
X105984933Y-117567325D01*
X105942168Y-117548818D01*
X105936922Y-117546248D01*
X105896093Y-117523803D01*
X105896092Y-117523802D01*
X105876693Y-117518822D01*
X105858281Y-117512518D01*
X105839898Y-117504562D01*
X105839892Y-117504560D01*
X105793874Y-117497272D01*
X105788152Y-117496087D01*
X105743021Y-117484500D01*
X105743019Y-117484500D01*
X105722984Y-117484500D01*
X105703586Y-117482973D01*
X105696162Y-117481797D01*
X105683805Y-117479840D01*
X105683804Y-117479840D01*
X105637416Y-117484225D01*
X105631578Y-117484500D01*
X105510499Y-117484500D01*
X105443460Y-117464815D01*
X105397705Y-117412011D01*
X105386499Y-117360500D01*
X105386499Y-117148129D01*
X105386498Y-117148123D01*
X105380091Y-117088516D01*
X105329797Y-116953671D01*
X105329793Y-116953664D01*
X105243547Y-116838455D01*
X105243544Y-116838452D01*
X105128335Y-116752206D01*
X105128328Y-116752202D01*
X104993482Y-116701908D01*
X104993483Y-116701908D01*
X104933883Y-116695501D01*
X104933881Y-116695500D01*
X104933873Y-116695500D01*
X104933865Y-116695500D01*
X103180500Y-116695500D01*
X103113461Y-116675815D01*
X103067706Y-116623011D01*
X103056500Y-116571500D01*
X103056500Y-111736018D01*
X103076185Y-111668979D01*
X103128989Y-111623224D01*
X103198147Y-111613280D01*
X103257810Y-111639069D01*
X103317143Y-111686386D01*
X103544357Y-111817568D01*
X103788584Y-111913420D01*
X104044370Y-111971802D01*
X104044376Y-111971802D01*
X104044379Y-111971803D01*
X104240500Y-111986500D01*
X104240506Y-111986500D01*
X104371500Y-111986500D01*
X104567620Y-111971803D01*
X104567622Y-111971802D01*
X104567630Y-111971802D01*
X104823416Y-111913420D01*
X105067643Y-111817568D01*
X105294857Y-111686386D01*
X105499981Y-111522805D01*
X105678433Y-111330479D01*
X105826228Y-111113704D01*
X105940063Y-110877323D01*
X106017396Y-110626615D01*
X106056500Y-110367182D01*
X106056500Y-110104818D01*
X106017396Y-109845385D01*
X105940063Y-109594677D01*
X105928121Y-109569880D01*
X105826232Y-109358303D01*
X105826231Y-109358302D01*
X105826230Y-109358301D01*
X105826228Y-109358296D01*
X105678433Y-109141521D01*
X105555500Y-109009030D01*
X105499985Y-108949198D01*
X105438613Y-108900256D01*
X105294857Y-108785614D01*
X105067643Y-108654432D01*
X104823416Y-108558580D01*
X104823411Y-108558578D01*
X104823402Y-108558576D01*
X104605818Y-108508914D01*
X104567630Y-108500198D01*
X104567629Y-108500197D01*
X104567625Y-108500197D01*
X104567620Y-108500196D01*
X104371500Y-108485500D01*
X104371494Y-108485500D01*
X104240506Y-108485500D01*
X104240500Y-108485500D01*
X104044379Y-108500196D01*
X104044374Y-108500197D01*
X103788597Y-108558576D01*
X103788578Y-108558582D01*
X103544356Y-108654432D01*
X103317139Y-108785616D01*
X103257812Y-108832928D01*
X103193126Y-108859337D01*
X103124430Y-108846580D01*
X103073537Y-108798709D01*
X103056500Y-108735981D01*
X103056500Y-76200000D01*
X128634540Y-76200000D01*
X128654326Y-76388256D01*
X128654327Y-76388259D01*
X128712818Y-76568277D01*
X128712821Y-76568284D01*
X128807467Y-76732216D01*
X128934129Y-76872888D01*
X129087265Y-76984148D01*
X129087270Y-76984151D01*
X129260192Y-77061142D01*
X129260197Y-77061144D01*
X129445354Y-77100500D01*
X129445355Y-77100500D01*
X129634644Y-77100500D01*
X129634646Y-77100500D01*
X129819803Y-77061144D01*
X129992730Y-76984151D01*
X130145871Y-76872888D01*
X130272533Y-76732216D01*
X130367179Y-76568284D01*
X130425674Y-76388256D01*
X130443321Y-76220345D01*
X130469905Y-76155732D01*
X130478952Y-76145636D01*
X139067788Y-67556801D01*
X139080042Y-67546986D01*
X139079859Y-67546764D01*
X139085866Y-67541792D01*
X139085877Y-67541786D01*
X139116775Y-67508882D01*
X139133227Y-67491364D01*
X139143671Y-67480918D01*
X139154120Y-67470471D01*
X139158379Y-67464978D01*
X139162152Y-67460561D01*
X139194062Y-67426582D01*
X139203715Y-67409020D01*
X139214389Y-67392770D01*
X139226673Y-67376936D01*
X139245180Y-67334167D01*
X139247749Y-67328924D01*
X139270196Y-67288093D01*
X139270197Y-67288092D01*
X139275177Y-67268691D01*
X139281478Y-67250288D01*
X139289438Y-67231896D01*
X139296730Y-67185849D01*
X139297911Y-67180152D01*
X139309500Y-67135019D01*
X139309500Y-67114983D01*
X139311027Y-67095582D01*
X139314160Y-67075804D01*
X139309775Y-67029415D01*
X139309500Y-67023577D01*
X139309500Y-58420000D01*
X139593975Y-58420000D01*
X139614042Y-58674989D01*
X139673752Y-58923702D01*
X139771634Y-59160012D01*
X139771636Y-59160015D01*
X139905275Y-59378095D01*
X139905286Y-59378110D01*
X139908533Y-59381911D01*
X139908535Y-59381911D01*
X140472766Y-58817679D01*
X140516316Y-58899822D01*
X140636009Y-59040735D01*
X140783195Y-59152623D01*
X140825402Y-59172150D01*
X140262087Y-59735464D01*
X140262087Y-59735465D01*
X140265888Y-59738712D01*
X140265898Y-59738719D01*
X140483984Y-59872363D01*
X140483987Y-59872365D01*
X140720297Y-59970247D01*
X140969011Y-60029957D01*
X140969010Y-60029957D01*
X141224000Y-60050024D01*
X141478989Y-60029957D01*
X141727702Y-59970247D01*
X141964012Y-59872365D01*
X141964015Y-59872363D01*
X142182103Y-59738719D01*
X142185912Y-59735464D01*
X141622609Y-59172161D01*
X141741431Y-59100669D01*
X141875658Y-58973523D01*
X141978861Y-58821309D01*
X142539464Y-59381912D01*
X142542719Y-59378103D01*
X142676363Y-59160015D01*
X142676365Y-59160012D01*
X142774247Y-58923702D01*
X142833957Y-58674989D01*
X142854024Y-58420000D01*
X142833957Y-58165010D01*
X142774247Y-57916297D01*
X142676365Y-57679987D01*
X142676363Y-57679984D01*
X142542719Y-57461898D01*
X142542712Y-57461888D01*
X142539465Y-57458087D01*
X142539464Y-57458087D01*
X141975232Y-58022319D01*
X141931684Y-57940178D01*
X141811991Y-57799265D01*
X141664805Y-57687377D01*
X141622597Y-57667849D01*
X142185911Y-57104535D01*
X142185911Y-57104533D01*
X142182110Y-57101286D01*
X142182095Y-57101275D01*
X141964015Y-56967636D01*
X141964012Y-56967634D01*
X141727702Y-56869752D01*
X141478988Y-56810042D01*
X141478989Y-56810042D01*
X141224000Y-56789975D01*
X140969010Y-56810042D01*
X140720297Y-56869752D01*
X140483987Y-56967634D01*
X140483984Y-56967636D01*
X140265897Y-57101280D01*
X140262087Y-57104534D01*
X140825390Y-57667837D01*
X140706569Y-57739331D01*
X140572342Y-57866477D01*
X140469138Y-58018691D01*
X139908534Y-57458087D01*
X139905280Y-57461897D01*
X139771636Y-57679984D01*
X139771634Y-57679987D01*
X139673752Y-57916297D01*
X139614042Y-58165010D01*
X139593975Y-58420000D01*
X139309500Y-58420000D01*
X139309500Y-57354681D01*
X139329185Y-57287642D01*
X139374794Y-57246377D01*
X139374550Y-57245978D01*
X139376676Y-57244674D01*
X139377207Y-57244195D01*
X139378688Y-57243439D01*
X139378704Y-57243433D01*
X139583439Y-57117972D01*
X139766027Y-56962027D01*
X139921972Y-56779439D01*
X140047433Y-56574704D01*
X140139323Y-56352863D01*
X140195377Y-56119379D01*
X140214217Y-55880000D01*
X140195377Y-55640621D01*
X140139323Y-55407137D01*
X140087508Y-55282047D01*
X140047434Y-55185297D01*
X139921973Y-54980563D01*
X139921972Y-54980561D01*
X139766027Y-54797973D01*
X139583439Y-54642028D01*
X139583436Y-54642026D01*
X139378702Y-54516565D01*
X139156865Y-54424678D01*
X139156867Y-54424678D01*
X139156863Y-54424677D01*
X139156859Y-54424676D01*
X139156853Y-54424674D01*
X138923382Y-54368623D01*
X138684000Y-54349783D01*
X138444617Y-54368623D01*
X138211146Y-54424674D01*
X138211134Y-54424678D01*
X137989297Y-54516565D01*
X137784563Y-54642026D01*
X137601973Y-54797973D01*
X137446026Y-54980563D01*
X137320565Y-55185297D01*
X137228678Y-55407134D01*
X137228674Y-55407146D01*
X137172623Y-55640617D01*
X137153783Y-55880000D01*
X137172623Y-56119382D01*
X137228674Y-56352853D01*
X137228678Y-56352865D01*
X137320565Y-56574702D01*
X137419955Y-56736892D01*
X137446028Y-56779439D01*
X137601973Y-56962027D01*
X137784561Y-57117972D01*
X137989296Y-57243433D01*
X137989306Y-57243437D01*
X137990793Y-57244195D01*
X137991259Y-57244635D01*
X137993450Y-57245978D01*
X137993168Y-57246438D01*
X138041590Y-57292169D01*
X138058500Y-57354681D01*
X138058500Y-66745547D01*
X138038815Y-66812586D01*
X138022181Y-66833228D01*
X129592228Y-75263181D01*
X129530905Y-75296666D01*
X129504547Y-75299500D01*
X129445354Y-75299500D01*
X129412897Y-75306398D01*
X129260197Y-75338855D01*
X129260192Y-75338857D01*
X129087270Y-75415848D01*
X129087265Y-75415851D01*
X128934129Y-75527111D01*
X128807466Y-75667785D01*
X128712821Y-75831715D01*
X128712818Y-75831722D01*
X128654327Y-76011740D01*
X128654326Y-76011744D01*
X128634540Y-76200000D01*
X103056500Y-76200000D01*
X103056500Y-67805452D01*
X103076185Y-67738413D01*
X103092819Y-67717771D01*
X111540590Y-59270000D01*
X112390590Y-58420000D01*
X134513975Y-58420000D01*
X134534042Y-58674989D01*
X134593752Y-58923702D01*
X134691634Y-59160012D01*
X134691636Y-59160015D01*
X134825275Y-59378095D01*
X134825286Y-59378110D01*
X134828533Y-59381911D01*
X134828535Y-59381911D01*
X135392766Y-58817679D01*
X135436316Y-58899822D01*
X135556009Y-59040735D01*
X135703195Y-59152623D01*
X135745402Y-59172150D01*
X135182087Y-59735464D01*
X135182087Y-59735465D01*
X135185888Y-59738712D01*
X135185898Y-59738719D01*
X135403984Y-59872363D01*
X135403987Y-59872365D01*
X135640297Y-59970247D01*
X135889011Y-60029957D01*
X135889010Y-60029957D01*
X136144000Y-60050024D01*
X136398989Y-60029957D01*
X136647702Y-59970247D01*
X136884012Y-59872365D01*
X136884015Y-59872363D01*
X137102103Y-59738719D01*
X137105912Y-59735464D01*
X136542609Y-59172161D01*
X136661431Y-59100669D01*
X136795658Y-58973523D01*
X136898861Y-58821309D01*
X137459464Y-59381912D01*
X137462719Y-59378103D01*
X137596363Y-59160015D01*
X137596365Y-59160012D01*
X137694247Y-58923702D01*
X137753957Y-58674989D01*
X137774024Y-58420000D01*
X137753957Y-58165010D01*
X137694247Y-57916297D01*
X137596365Y-57679987D01*
X137596363Y-57679984D01*
X137462719Y-57461898D01*
X137462712Y-57461888D01*
X137459465Y-57458087D01*
X137459464Y-57458087D01*
X136895232Y-58022319D01*
X136851684Y-57940178D01*
X136731991Y-57799265D01*
X136584805Y-57687377D01*
X136542597Y-57667849D01*
X137105911Y-57104535D01*
X137105911Y-57104533D01*
X137102110Y-57101286D01*
X137102095Y-57101275D01*
X136884015Y-56967636D01*
X136884012Y-56967634D01*
X136647702Y-56869752D01*
X136398988Y-56810042D01*
X136398989Y-56810042D01*
X136144000Y-56789975D01*
X135889010Y-56810042D01*
X135640297Y-56869752D01*
X135403987Y-56967634D01*
X135403984Y-56967636D01*
X135185897Y-57101280D01*
X135182087Y-57104534D01*
X135745390Y-57667837D01*
X135626569Y-57739331D01*
X135492342Y-57866477D01*
X135389138Y-58018691D01*
X134828534Y-57458087D01*
X134825280Y-57461897D01*
X134691636Y-57679984D01*
X134691634Y-57679987D01*
X134593752Y-57916297D01*
X134534042Y-58165010D01*
X134513975Y-58420000D01*
X112390590Y-58420000D01*
X117470589Y-53340000D01*
X134513975Y-53340000D01*
X134534042Y-53594989D01*
X134593752Y-53843702D01*
X134691634Y-54080012D01*
X134691636Y-54080015D01*
X134825275Y-54298095D01*
X134825286Y-54298110D01*
X134828533Y-54301911D01*
X134828535Y-54301911D01*
X135392766Y-53737679D01*
X135436316Y-53819822D01*
X135556009Y-53960735D01*
X135703195Y-54072623D01*
X135745402Y-54092150D01*
X135182087Y-54655464D01*
X135182087Y-54655465D01*
X135185888Y-54658712D01*
X135185898Y-54658719D01*
X135403984Y-54792363D01*
X135403987Y-54792365D01*
X135640297Y-54890247D01*
X135889011Y-54949957D01*
X135889010Y-54949957D01*
X136144000Y-54970024D01*
X136398989Y-54949957D01*
X136647702Y-54890247D01*
X136884012Y-54792365D01*
X136884015Y-54792363D01*
X137102103Y-54658719D01*
X137105912Y-54655464D01*
X136542609Y-54092161D01*
X136661431Y-54020669D01*
X136795658Y-53893523D01*
X136898861Y-53741309D01*
X137459464Y-54301912D01*
X137462719Y-54298103D01*
X137596363Y-54080015D01*
X137596365Y-54080012D01*
X137694247Y-53843702D01*
X137753957Y-53594989D01*
X137774024Y-53340000D01*
X139593975Y-53340000D01*
X139614042Y-53594989D01*
X139673752Y-53843702D01*
X139771634Y-54080012D01*
X139771636Y-54080015D01*
X139905275Y-54298095D01*
X139905286Y-54298110D01*
X139908533Y-54301911D01*
X139908535Y-54301911D01*
X140472766Y-53737679D01*
X140516316Y-53819822D01*
X140636009Y-53960735D01*
X140783195Y-54072623D01*
X140825402Y-54092150D01*
X140262087Y-54655464D01*
X140262087Y-54655465D01*
X140265888Y-54658712D01*
X140265898Y-54658719D01*
X140483984Y-54792363D01*
X140483987Y-54792365D01*
X140720297Y-54890247D01*
X140969011Y-54949957D01*
X140969010Y-54949957D01*
X141224000Y-54970024D01*
X141478989Y-54949957D01*
X141727702Y-54890247D01*
X141964012Y-54792365D01*
X141964015Y-54792363D01*
X142182103Y-54658719D01*
X142185912Y-54655464D01*
X141622609Y-54092161D01*
X141741431Y-54020669D01*
X141875658Y-53893523D01*
X141978861Y-53741309D01*
X142539464Y-54301912D01*
X142542719Y-54298103D01*
X142676363Y-54080015D01*
X142676365Y-54080012D01*
X142774247Y-53843702D01*
X142833957Y-53594989D01*
X142854024Y-53340000D01*
X142833957Y-53085010D01*
X142774247Y-52836297D01*
X142676365Y-52599987D01*
X142676363Y-52599984D01*
X142542719Y-52381898D01*
X142542712Y-52381888D01*
X142539465Y-52378087D01*
X142539464Y-52378087D01*
X141975232Y-52942319D01*
X141931684Y-52860178D01*
X141811991Y-52719265D01*
X141664805Y-52607377D01*
X141622597Y-52587849D01*
X142185911Y-52024535D01*
X142185911Y-52024533D01*
X142182110Y-52021286D01*
X142182095Y-52021275D01*
X141964015Y-51887636D01*
X141964012Y-51887634D01*
X141727702Y-51789752D01*
X141478988Y-51730042D01*
X141478989Y-51730042D01*
X141224000Y-51709975D01*
X140969010Y-51730042D01*
X140720297Y-51789752D01*
X140483987Y-51887634D01*
X140483984Y-51887636D01*
X140265897Y-52021280D01*
X140262087Y-52024534D01*
X140825390Y-52587837D01*
X140706569Y-52659331D01*
X140572342Y-52786477D01*
X140469138Y-52938691D01*
X139908534Y-52378087D01*
X139905280Y-52381897D01*
X139771636Y-52599984D01*
X139771634Y-52599987D01*
X139673752Y-52836297D01*
X139614042Y-53085010D01*
X139593975Y-53340000D01*
X137774024Y-53340000D01*
X137753957Y-53085010D01*
X137694247Y-52836297D01*
X137596365Y-52599987D01*
X137596363Y-52599984D01*
X137462719Y-52381898D01*
X137462712Y-52381888D01*
X137459465Y-52378087D01*
X137459464Y-52378087D01*
X136895232Y-52942319D01*
X136851684Y-52860178D01*
X136731991Y-52719265D01*
X136584805Y-52607377D01*
X136542597Y-52587849D01*
X137105911Y-52024535D01*
X137105911Y-52024533D01*
X137102110Y-52021286D01*
X137102095Y-52021275D01*
X136884015Y-51887636D01*
X136884012Y-51887634D01*
X136647702Y-51789752D01*
X136398988Y-51730042D01*
X136398989Y-51730042D01*
X136144000Y-51709975D01*
X135889010Y-51730042D01*
X135640297Y-51789752D01*
X135403987Y-51887634D01*
X135403984Y-51887636D01*
X135185897Y-52021280D01*
X135182087Y-52024534D01*
X135745390Y-52587837D01*
X135626569Y-52659331D01*
X135492342Y-52786477D01*
X135389138Y-52938691D01*
X134828534Y-52378087D01*
X134825280Y-52381897D01*
X134691636Y-52599984D01*
X134691634Y-52599987D01*
X134593752Y-52836297D01*
X134534042Y-53085010D01*
X134513975Y-53340000D01*
X117470589Y-53340000D01*
X120017788Y-50792801D01*
X120030042Y-50782986D01*
X120029859Y-50782764D01*
X120035866Y-50777792D01*
X120035877Y-50777786D01*
X120066775Y-50744882D01*
X120083227Y-50727364D01*
X120093671Y-50716918D01*
X120104120Y-50706471D01*
X120108379Y-50700978D01*
X120112152Y-50696561D01*
X120144062Y-50662582D01*
X120153715Y-50645020D01*
X120164389Y-50628770D01*
X120176673Y-50612936D01*
X120195180Y-50570167D01*
X120197749Y-50564924D01*
X120220196Y-50524093D01*
X120220197Y-50524092D01*
X120225177Y-50504691D01*
X120231478Y-50486288D01*
X120239438Y-50467896D01*
X120246730Y-50421849D01*
X120247911Y-50416152D01*
X120259500Y-50371019D01*
X120259500Y-50350983D01*
X120261027Y-50331582D01*
X120264160Y-50311804D01*
X120259775Y-50265415D01*
X120259500Y-50259577D01*
X120259500Y-41407226D01*
X120279185Y-41340187D01*
X120312374Y-41305654D01*
X120505401Y-41170495D01*
X120672495Y-41003401D01*
X120808035Y-40809830D01*
X120907903Y-40595663D01*
X120969063Y-40367408D01*
X120989659Y-40132000D01*
X120969063Y-39896592D01*
X120907903Y-39668337D01*
X120808035Y-39454171D01*
X120802425Y-39446158D01*
X120672494Y-39260597D01*
X120505402Y-39093506D01*
X120505395Y-39093501D01*
X120311834Y-38957967D01*
X120311830Y-38957965D01*
X120240727Y-38924809D01*
X120097663Y-38858097D01*
X120097659Y-38858096D01*
X120097655Y-38858094D01*
X119869413Y-38796938D01*
X119869403Y-38796936D01*
X119634001Y-38776341D01*
X119633999Y-38776341D01*
X119398596Y-38796936D01*
X119398586Y-38796938D01*
X119170344Y-38858094D01*
X119170335Y-38858098D01*
X118956171Y-38957964D01*
X118956169Y-38957965D01*
X118762597Y-39093505D01*
X118595505Y-39260597D01*
X118465575Y-39446158D01*
X118410998Y-39489783D01*
X118341500Y-39496977D01*
X118279145Y-39465454D01*
X118262425Y-39446158D01*
X118132494Y-39260597D01*
X117965402Y-39093506D01*
X117965395Y-39093501D01*
X117771834Y-38957967D01*
X117771830Y-38957965D01*
X117700727Y-38924809D01*
X117557663Y-38858097D01*
X117557659Y-38858096D01*
X117557655Y-38858094D01*
X117329413Y-38796938D01*
X117329403Y-38796936D01*
X117094001Y-38776341D01*
X117093999Y-38776341D01*
X116858596Y-38796936D01*
X116858586Y-38796938D01*
X116630344Y-38858094D01*
X116630335Y-38858098D01*
X116416171Y-38957964D01*
X116416169Y-38957965D01*
X116222597Y-39093505D01*
X116055505Y-39260597D01*
X115925575Y-39446158D01*
X115870998Y-39489783D01*
X115801500Y-39496977D01*
X115739145Y-39465454D01*
X115722425Y-39446158D01*
X115592494Y-39260597D01*
X115425402Y-39093506D01*
X115425395Y-39093501D01*
X115231834Y-38957967D01*
X115231830Y-38957965D01*
X115160727Y-38924809D01*
X115017663Y-38858097D01*
X115017659Y-38858096D01*
X115017655Y-38858094D01*
X114789413Y-38796938D01*
X114789403Y-38796936D01*
X114554001Y-38776341D01*
X114553999Y-38776341D01*
X114318596Y-38796936D01*
X114318586Y-38796938D01*
X114090344Y-38858094D01*
X114090335Y-38858098D01*
X113876171Y-38957964D01*
X113876169Y-38957965D01*
X113682600Y-39093503D01*
X113560284Y-39215819D01*
X113498961Y-39249303D01*
X113429269Y-39244319D01*
X113373336Y-39202447D01*
X113356421Y-39171470D01*
X113307354Y-39039913D01*
X113307350Y-39039906D01*
X113221190Y-38924812D01*
X113221187Y-38924809D01*
X113106093Y-38838649D01*
X113106086Y-38838645D01*
X112971379Y-38788403D01*
X112971372Y-38788401D01*
X112911844Y-38782000D01*
X112264000Y-38782000D01*
X112264000Y-39696498D01*
X112156315Y-39647320D01*
X112049763Y-39632000D01*
X111978237Y-39632000D01*
X111871685Y-39647320D01*
X111764000Y-39696498D01*
X111764000Y-38782000D01*
X111116155Y-38782000D01*
X111056627Y-38788401D01*
X111056620Y-38788403D01*
X110921913Y-38838645D01*
X110921906Y-38838649D01*
X110806812Y-38924809D01*
X110806809Y-38924812D01*
X110720649Y-39039906D01*
X110720645Y-39039913D01*
X110670403Y-39174620D01*
X110670401Y-39174627D01*
X110664000Y-39234155D01*
X110664000Y-39882000D01*
X111580314Y-39882000D01*
X111554507Y-39922156D01*
X111514000Y-40060111D01*
X111514000Y-40203889D01*
X111554507Y-40341844D01*
X111580314Y-40382000D01*
X110664000Y-40382000D01*
X110664000Y-41029844D01*
X110670401Y-41089372D01*
X110670403Y-41089379D01*
X110720645Y-41224086D01*
X110720649Y-41224093D01*
X110806809Y-41339187D01*
X110806812Y-41339190D01*
X110921906Y-41425350D01*
X110921913Y-41425354D01*
X111056620Y-41475596D01*
X111056627Y-41475598D01*
X111116155Y-41481999D01*
X111116172Y-41482000D01*
X111764000Y-41482000D01*
X111764000Y-40567501D01*
X111871685Y-40616680D01*
X111978237Y-40632000D01*
X112049763Y-40632000D01*
X112156315Y-40616680D01*
X112264000Y-40567501D01*
X112264000Y-41482000D01*
X112911828Y-41482000D01*
X112911844Y-41481999D01*
X112971372Y-41475598D01*
X112971379Y-41475596D01*
X113106086Y-41425354D01*
X113106093Y-41425350D01*
X113221187Y-41339190D01*
X113221190Y-41339187D01*
X113307350Y-41224093D01*
X113307354Y-41224086D01*
X113356422Y-41092529D01*
X113398293Y-41036595D01*
X113463757Y-41012178D01*
X113532030Y-41027030D01*
X113560285Y-41048181D01*
X113682599Y-41170495D01*
X113759135Y-41224086D01*
X113876165Y-41306032D01*
X113876167Y-41306033D01*
X113876170Y-41306035D01*
X114090337Y-41405903D01*
X114090343Y-41405904D01*
X114090344Y-41405905D01*
X114145285Y-41420626D01*
X114318592Y-41467063D01*
X114489319Y-41482000D01*
X114553999Y-41487659D01*
X114554388Y-41487659D01*
X114554553Y-41487707D01*
X114559394Y-41488131D01*
X114559308Y-41489103D01*
X114621427Y-41507344D01*
X114667182Y-41560148D01*
X114677126Y-41629306D01*
X114648101Y-41692862D01*
X114642069Y-41699340D01*
X99525681Y-56815727D01*
X99464358Y-56849212D01*
X99394666Y-56844228D01*
X99338733Y-56802356D01*
X99314316Y-56736892D01*
X99314000Y-56728046D01*
X99314000Y-34798001D01*
X101372390Y-34798001D01*
X101392804Y-35083433D01*
X101453628Y-35363037D01*
X101453630Y-35363043D01*
X101453631Y-35363046D01*
X101552572Y-35628317D01*
X101553635Y-35631166D01*
X101690770Y-35882309D01*
X101690775Y-35882317D01*
X101862254Y-36111387D01*
X101862270Y-36111405D01*
X102064594Y-36313729D01*
X102064612Y-36313745D01*
X102293682Y-36485224D01*
X102293690Y-36485229D01*
X102544833Y-36622364D01*
X102544832Y-36622364D01*
X102544836Y-36622365D01*
X102544839Y-36622367D01*
X102812954Y-36722369D01*
X102812960Y-36722370D01*
X102812962Y-36722371D01*
X103092566Y-36783195D01*
X103092568Y-36783195D01*
X103092572Y-36783196D01*
X103306552Y-36798500D01*
X103449448Y-36798500D01*
X103663428Y-36783196D01*
X103943046Y-36722369D01*
X104211161Y-36622367D01*
X104462315Y-36485226D01*
X104691395Y-36313739D01*
X104893739Y-36111395D01*
X105065226Y-35882315D01*
X105202367Y-35631161D01*
X105302369Y-35363046D01*
X105363196Y-35083428D01*
X105383610Y-34798000D01*
X105363196Y-34512572D01*
X105302369Y-34232954D01*
X105202367Y-33964839D01*
X105065226Y-33713685D01*
X105063091Y-33710833D01*
X104893745Y-33484612D01*
X104893729Y-33484594D01*
X104691405Y-33282270D01*
X104691387Y-33282254D01*
X104462317Y-33110775D01*
X104462309Y-33110770D01*
X104211166Y-32973635D01*
X104211167Y-32973635D01*
X104103915Y-32933632D01*
X103943046Y-32873631D01*
X103943043Y-32873630D01*
X103943037Y-32873628D01*
X103845913Y-32852500D01*
X130905000Y-32852500D01*
X130905000Y-34750344D01*
X130911401Y-34809872D01*
X130911403Y-34809879D01*
X130961645Y-34944586D01*
X130961649Y-34944593D01*
X131047809Y-35059687D01*
X131047812Y-35059690D01*
X131162906Y-35145850D01*
X131162913Y-35145854D01*
X131297620Y-35196096D01*
X131297627Y-35196098D01*
X131357155Y-35202499D01*
X131357172Y-35202500D01*
X131830000Y-35202500D01*
X131830000Y-32852500D01*
X132330000Y-32852500D01*
X132330000Y-35202500D01*
X132802828Y-35202500D01*
X132802844Y-35202499D01*
X132862372Y-35196098D01*
X132862379Y-35196096D01*
X132997086Y-35145854D01*
X132997093Y-35145850D01*
X133112187Y-35059690D01*
X133112190Y-35059687D01*
X133198350Y-34944593D01*
X133198354Y-34944586D01*
X133248596Y-34809879D01*
X133248598Y-34809872D01*
X133254999Y-34750344D01*
X133255000Y-34750327D01*
X133255000Y-32852500D01*
X136555000Y-32852500D01*
X136555000Y-34750344D01*
X136561401Y-34809872D01*
X136561403Y-34809879D01*
X136611645Y-34944586D01*
X136611649Y-34944593D01*
X136697809Y-35059687D01*
X136697812Y-35059690D01*
X136812906Y-35145850D01*
X136812913Y-35145854D01*
X136947620Y-35196096D01*
X136947627Y-35196098D01*
X137007155Y-35202499D01*
X137007172Y-35202500D01*
X137480000Y-35202500D01*
X137480000Y-32852500D01*
X137980000Y-32852500D01*
X137980000Y-35202500D01*
X138452828Y-35202500D01*
X138452844Y-35202499D01*
X138512372Y-35196098D01*
X138512379Y-35196096D01*
X138647086Y-35145854D01*
X138647093Y-35145850D01*
X138762187Y-35059690D01*
X138762190Y-35059687D01*
X138848350Y-34944593D01*
X138848354Y-34944586D01*
X138898596Y-34809879D01*
X138898598Y-34809872D01*
X138904999Y-34750344D01*
X138905000Y-34750327D01*
X138905000Y-34544001D01*
X141250390Y-34544001D01*
X141270804Y-34829433D01*
X141331628Y-35109037D01*
X141331630Y-35109043D01*
X141331631Y-35109046D01*
X141431633Y-35377161D01*
X141431635Y-35377166D01*
X141568770Y-35628309D01*
X141568775Y-35628317D01*
X141740254Y-35857387D01*
X141740270Y-35857405D01*
X141942594Y-36059729D01*
X141942612Y-36059745D01*
X142171682Y-36231224D01*
X142171690Y-36231229D01*
X142422833Y-36368364D01*
X142422832Y-36368364D01*
X142422836Y-36368365D01*
X142422839Y-36368367D01*
X142690954Y-36468369D01*
X142690960Y-36468370D01*
X142690962Y-36468371D01*
X142970566Y-36529195D01*
X142970568Y-36529195D01*
X142970572Y-36529196D01*
X143184552Y-36544500D01*
X143327448Y-36544500D01*
X143541428Y-36529196D01*
X143743556Y-36485226D01*
X143821037Y-36468371D01*
X143821037Y-36468370D01*
X143821046Y-36468369D01*
X144089161Y-36368367D01*
X144340315Y-36231226D01*
X144569395Y-36059739D01*
X144771739Y-35857395D01*
X144943226Y-35628315D01*
X145080367Y-35377161D01*
X145180369Y-35109046D01*
X145191106Y-35059687D01*
X145241195Y-34829433D01*
X145241195Y-34829432D01*
X145241196Y-34829428D01*
X145261610Y-34544000D01*
X145241196Y-34258572D01*
X145180369Y-33978954D01*
X145080367Y-33710839D01*
X144956833Y-33484605D01*
X144943229Y-33459690D01*
X144943224Y-33459682D01*
X144771745Y-33230612D01*
X144771729Y-33230594D01*
X144569405Y-33028270D01*
X144569387Y-33028254D01*
X144340317Y-32856775D01*
X144340309Y-32856770D01*
X144089166Y-32719635D01*
X144089167Y-32719635D01*
X143981915Y-32679632D01*
X143821046Y-32619631D01*
X143821043Y-32619630D01*
X143821037Y-32619628D01*
X143541433Y-32558804D01*
X143327448Y-32543500D01*
X143184552Y-32543500D01*
X142970566Y-32558804D01*
X142690962Y-32619628D01*
X142422833Y-32719635D01*
X142171690Y-32856770D01*
X142171682Y-32856775D01*
X141942612Y-33028254D01*
X141942594Y-33028270D01*
X141740270Y-33230594D01*
X141740254Y-33230612D01*
X141568775Y-33459682D01*
X141568770Y-33459690D01*
X141431635Y-33710833D01*
X141331628Y-33978962D01*
X141270804Y-34258566D01*
X141250390Y-34543998D01*
X141250390Y-34544001D01*
X138905000Y-34544001D01*
X138905000Y-32852500D01*
X137980000Y-32852500D01*
X137480000Y-32852500D01*
X136555000Y-32852500D01*
X133255000Y-32852500D01*
X132330000Y-32852500D01*
X131830000Y-32852500D01*
X130905000Y-32852500D01*
X103845913Y-32852500D01*
X103663433Y-32812804D01*
X103449448Y-32797500D01*
X103306552Y-32797500D01*
X103092566Y-32812804D01*
X102812962Y-32873628D01*
X102544833Y-32973635D01*
X102293690Y-33110770D01*
X102293682Y-33110775D01*
X102064612Y-33282254D01*
X102064594Y-33282270D01*
X101862270Y-33484594D01*
X101862254Y-33484612D01*
X101690775Y-33713682D01*
X101690770Y-33713690D01*
X101553635Y-33964833D01*
X101453628Y-34232962D01*
X101392804Y-34512566D01*
X101372390Y-34797998D01*
X101372390Y-34798001D01*
X99314000Y-34798001D01*
X99314000Y-30858000D01*
X99333685Y-30790961D01*
X99386489Y-30745206D01*
X99438000Y-30734000D01*
X130781000Y-30734000D01*
X130848039Y-30753685D01*
G37*
%TD.AperFunction*%
%TA.AperFunction,Conductor*%
G36*
X118448855Y-40798546D02*
G01*
X118465575Y-40817842D01*
X118595500Y-41003395D01*
X118595505Y-41003401D01*
X118762599Y-41170495D01*
X118955624Y-41305653D01*
X118999248Y-41360228D01*
X119008500Y-41407226D01*
X119008500Y-49981546D01*
X118988815Y-50048585D01*
X118972181Y-50069227D01*
X102047208Y-66994199D01*
X102034951Y-67004020D01*
X102035134Y-67004241D01*
X102029123Y-67009213D01*
X101981772Y-67059636D01*
X101960889Y-67080519D01*
X101960877Y-67080532D01*
X101956621Y-67086017D01*
X101952837Y-67090447D01*
X101920937Y-67124418D01*
X101920936Y-67124420D01*
X101911284Y-67141976D01*
X101900610Y-67158226D01*
X101888329Y-67174061D01*
X101888324Y-67174068D01*
X101869815Y-67216838D01*
X101867245Y-67222084D01*
X101844803Y-67262906D01*
X101839822Y-67282307D01*
X101833521Y-67300710D01*
X101825562Y-67319102D01*
X101825561Y-67319105D01*
X101818271Y-67365127D01*
X101817087Y-67370846D01*
X101805501Y-67415972D01*
X101805500Y-67415982D01*
X101805500Y-67436016D01*
X101803973Y-67455415D01*
X101800840Y-67475194D01*
X101800840Y-67475195D01*
X101805225Y-67521583D01*
X101805500Y-67527421D01*
X101805500Y-142058255D01*
X101803775Y-142073872D01*
X101804061Y-142073899D01*
X101803326Y-142081665D01*
X101805500Y-142150814D01*
X101805500Y-142180343D01*
X101805501Y-142180360D01*
X101806368Y-142187231D01*
X101806826Y-142193050D01*
X101808290Y-142239624D01*
X101808291Y-142239627D01*
X101813880Y-142258867D01*
X101817824Y-142277911D01*
X101820336Y-142297792D01*
X101827733Y-142316474D01*
X101837490Y-142341119D01*
X101839382Y-142346647D01*
X101852381Y-142391388D01*
X101862580Y-142408634D01*
X101871138Y-142426103D01*
X101878514Y-142444732D01*
X101905898Y-142482423D01*
X101909106Y-142487307D01*
X101932827Y-142527416D01*
X101932833Y-142527424D01*
X101946990Y-142541580D01*
X101959628Y-142556376D01*
X101971405Y-142572586D01*
X101971406Y-142572587D01*
X102007309Y-142602288D01*
X102011620Y-142606210D01*
X102242521Y-142837111D01*
X102422338Y-143016928D01*
X102455823Y-143078251D01*
X102454863Y-143135049D01*
X102400892Y-143348174D01*
X102400890Y-143348187D01*
X102380357Y-143595994D01*
X102380357Y-143596005D01*
X102400890Y-143843812D01*
X102400892Y-143843824D01*
X102461936Y-144084881D01*
X102561826Y-144312606D01*
X102697833Y-144520782D01*
X102697836Y-144520785D01*
X102866256Y-144703738D01*
X102949008Y-144768147D01*
X102989821Y-144824857D01*
X102993496Y-144894630D01*
X102958864Y-144955313D01*
X102949014Y-144963848D01*
X102890400Y-145009469D01*
X102866257Y-145028261D01*
X102697833Y-145211217D01*
X102561826Y-145419393D01*
X102461936Y-145647118D01*
X102400892Y-145888175D01*
X102400890Y-145888187D01*
X102380357Y-146135994D01*
X102380357Y-146136005D01*
X102400890Y-146383812D01*
X102400892Y-146383824D01*
X102461936Y-146624881D01*
X102561826Y-146852606D01*
X102697833Y-147060782D01*
X102697836Y-147060785D01*
X102866256Y-147243738D01*
X102949008Y-147308147D01*
X102989821Y-147364857D01*
X102993496Y-147434630D01*
X102958864Y-147495313D01*
X102949014Y-147503848D01*
X102890400Y-147549469D01*
X102866257Y-147568261D01*
X102697833Y-147751217D01*
X102561826Y-147959393D01*
X102461936Y-148187118D01*
X102400892Y-148428175D01*
X102400890Y-148428187D01*
X102380357Y-148675994D01*
X102380357Y-148676005D01*
X102400890Y-148923812D01*
X102400892Y-148923824D01*
X102461936Y-149164881D01*
X102561826Y-149392606D01*
X102697833Y-149600782D01*
X102711455Y-149615579D01*
X102866256Y-149783738D01*
X102949008Y-149848147D01*
X102989821Y-149904857D01*
X102993496Y-149974630D01*
X102958864Y-150035313D01*
X102949014Y-150043848D01*
X102890400Y-150089469D01*
X102866257Y-150108261D01*
X102697833Y-150291217D01*
X102561824Y-150499396D01*
X102554405Y-150516311D01*
X102509449Y-150569797D01*
X102442713Y-150590486D01*
X102440850Y-150590500D01*
X102017452Y-150590500D01*
X101950413Y-150570815D01*
X101929771Y-150554181D01*
X100483819Y-149108228D01*
X100450334Y-149046905D01*
X100447500Y-149020547D01*
X100447500Y-57714451D01*
X100467185Y-57647412D01*
X100483814Y-57626775D01*
X116638353Y-41472235D01*
X116699674Y-41438752D01*
X116758125Y-41440143D01*
X116792780Y-41449428D01*
X116858592Y-41467063D01*
X117029319Y-41482000D01*
X117093999Y-41487659D01*
X117094000Y-41487659D01*
X117094001Y-41487659D01*
X117158681Y-41482000D01*
X117329408Y-41467063D01*
X117557663Y-41405903D01*
X117771830Y-41306035D01*
X117965401Y-41170495D01*
X118132495Y-41003401D01*
X118262425Y-40817842D01*
X118317002Y-40774217D01*
X118386500Y-40767023D01*
X118448855Y-40798546D01*
G37*
%TD.AperFunction*%
%TA.AperFunction,Conductor*%
G36*
X105591703Y-118922739D02*
G01*
X105598181Y-118928771D01*
X114885038Y-128215628D01*
X114918523Y-128276951D01*
X114920678Y-128290347D01*
X114921085Y-128294216D01*
X114938326Y-128458256D01*
X114938327Y-128458259D01*
X114996818Y-128638277D01*
X114996821Y-128638284D01*
X115091467Y-128802216D01*
X115129883Y-128844881D01*
X115218129Y-128942888D01*
X115371265Y-129054148D01*
X115371267Y-129054149D01*
X115371270Y-129054151D01*
X115419556Y-129075649D01*
X115472790Y-129120897D01*
X115493112Y-129187746D01*
X115474067Y-129254970D01*
X115456799Y-129276608D01*
X114331228Y-130402181D01*
X114269905Y-130435666D01*
X114243547Y-130438500D01*
X105404841Y-130438500D01*
X105337802Y-130418815D01*
X105292047Y-130366011D01*
X105291285Y-130364310D01*
X105210173Y-130179393D01*
X105074166Y-129971217D01*
X105052557Y-129947744D01*
X104905744Y-129788262D01*
X104822991Y-129723852D01*
X104782179Y-129667143D01*
X104778504Y-129597370D01*
X104813136Y-129536687D01*
X104822985Y-129528151D01*
X104905744Y-129463738D01*
X105074164Y-129280785D01*
X105210173Y-129072607D01*
X105310063Y-128844881D01*
X105371108Y-128603821D01*
X105383170Y-128458256D01*
X105391643Y-128356005D01*
X105391643Y-128355994D01*
X105371109Y-128108187D01*
X105371107Y-128108175D01*
X105310063Y-127867118D01*
X105210173Y-127639393D01*
X105074166Y-127431217D01*
X104983917Y-127333181D01*
X104905744Y-127248262D01*
X104822991Y-127183852D01*
X104782179Y-127127143D01*
X104778504Y-127057370D01*
X104813136Y-126996687D01*
X104822985Y-126988151D01*
X104905744Y-126923738D01*
X105074164Y-126740785D01*
X105210173Y-126532607D01*
X105310063Y-126304881D01*
X105371108Y-126063821D01*
X105391643Y-125816000D01*
X105389830Y-125794121D01*
X105371109Y-125568187D01*
X105371107Y-125568175D01*
X105310063Y-125327118D01*
X105210173Y-125099393D01*
X105074166Y-124891217D01*
X105019483Y-124831816D01*
X104905744Y-124708262D01*
X104822991Y-124643852D01*
X104782179Y-124587143D01*
X104778504Y-124517370D01*
X104813136Y-124456687D01*
X104822985Y-124448151D01*
X104905744Y-124383738D01*
X105074164Y-124200785D01*
X105210173Y-123992607D01*
X105310063Y-123764881D01*
X105371108Y-123523821D01*
X105381397Y-123399655D01*
X105391643Y-123276005D01*
X105391643Y-123275994D01*
X105371109Y-123028187D01*
X105371107Y-123028175D01*
X105310063Y-122787118D01*
X105210173Y-122559393D01*
X105074166Y-122351217D01*
X104993061Y-122263114D01*
X104905744Y-122168262D01*
X104802253Y-122087712D01*
X104761442Y-122031003D01*
X104754655Y-121982176D01*
X104756056Y-121959609D01*
X104027365Y-121230918D01*
X104031161Y-121230373D01*
X104164562Y-121169451D01*
X104275395Y-121073413D01*
X104354682Y-120950040D01*
X104377132Y-120873580D01*
X105109434Y-121605882D01*
X105209731Y-121452369D01*
X105309587Y-121224717D01*
X105370612Y-120983738D01*
X105370614Y-120983729D01*
X105391141Y-120736005D01*
X105391141Y-120735994D01*
X105370614Y-120488270D01*
X105370612Y-120488261D01*
X105309587Y-120247282D01*
X105209733Y-120019635D01*
X105078817Y-119819252D01*
X105058630Y-119752362D01*
X105077810Y-119685176D01*
X105123203Y-119642595D01*
X105128321Y-119639799D01*
X105128331Y-119639796D01*
X105243546Y-119553546D01*
X105329796Y-119438331D01*
X105380091Y-119303483D01*
X105386500Y-119243873D01*
X105386500Y-119016452D01*
X105406185Y-118949413D01*
X105458989Y-118903658D01*
X105528147Y-118893714D01*
X105591703Y-118922739D01*
G37*
%TD.AperFunction*%
%TA.AperFunction,Conductor*%
G36*
X127983903Y-118966185D02*
G01*
X128020672Y-119002677D01*
X128097836Y-119120785D01*
X128266256Y-119303738D01*
X128266259Y-119303740D01*
X128266262Y-119303743D01*
X128369743Y-119384286D01*
X128410556Y-119440996D01*
X128417343Y-119489823D01*
X128415941Y-119512389D01*
X129144634Y-120241081D01*
X129140839Y-120241627D01*
X129007438Y-120302549D01*
X128896605Y-120398587D01*
X128817318Y-120521960D01*
X128794867Y-120598419D01*
X128062564Y-119866116D01*
X127962267Y-120019632D01*
X127862412Y-120247282D01*
X127801387Y-120488261D01*
X127801385Y-120488270D01*
X127780859Y-120735994D01*
X127780859Y-120736005D01*
X127801385Y-120983729D01*
X127801387Y-120983738D01*
X127862412Y-121224717D01*
X127962266Y-121452364D01*
X128062564Y-121605882D01*
X128794866Y-120873580D01*
X128817318Y-120950040D01*
X128896605Y-121073413D01*
X129007438Y-121169451D01*
X129140839Y-121230373D01*
X129144634Y-121230918D01*
X128415942Y-121959609D01*
X128417343Y-121982177D01*
X128401850Y-122050307D01*
X128369744Y-122087713D01*
X128266258Y-122168260D01*
X128097833Y-122351217D01*
X127961826Y-122559393D01*
X127861936Y-122787118D01*
X127800892Y-123028175D01*
X127800890Y-123028187D01*
X127780357Y-123275994D01*
X127780357Y-123276005D01*
X127794465Y-123446260D01*
X127780384Y-123514696D01*
X127731539Y-123564655D01*
X127670889Y-123580500D01*
X120452453Y-123580500D01*
X120385414Y-123560815D01*
X120364772Y-123544181D01*
X115978772Y-119158181D01*
X115945287Y-119096858D01*
X115950271Y-119027166D01*
X115992143Y-118971233D01*
X116057607Y-118946816D01*
X116066453Y-118946500D01*
X127916864Y-118946500D01*
X127983903Y-118966185D01*
G37*
%TD.AperFunction*%
%TD*%
M02*
